<?xml version="1.0" encoding="utf-8"?>
<!-- Generator: Adobe Illustrator 21.1.0, SVG Export Plug-In . SVG Version: 6.00 Build 0)  -->
<svg version="1.1" id="Calque_1" xmlns="http://www.w3.org/2000/svg" xmlns:xlink="http://www.w3.org/1999/xlink" x="0px" y="0px"
	 viewBox="0 0 496 30" enable-background="new 0 0 496 30" xml:space="preserve">
<rect x="116.142" y="5.84" fill="none" width="264.285" height="15.583"/>
<text transform="matrix(1 0 0 1 162.3644 21.1926)" display="none" fill="#FAB700" font-family="'FranklinGothic-Medium'" font-size="23px">HEAT SOLUTIONS FOR </text>
<g>
	<path fill="#FAB700" d="M21.476,29.552H16.23V16.908H5.114v12.644h-5.248V0.448h5.248v11.962H16.23V0.448h5.246V29.552z"/>
	<path fill="#FAB700" d="M46.8,29.552H27.876V0.448h18.731v4.328H33.124v7.889h10.837v4.222H33.124v8.145H46.8V29.552z"/>
	<path fill="#FAB700" d="M74.17,29.552h-5.612l-2.324-6.93H55.033l-2.282,6.93h-4.482l9.665-29.104h6.463L74.17,29.552z
		 M64.824,18.422L60.579,5.437l-4.244,12.985H64.824z"/>
	<path fill="#FAB700" d="M85.475,29.552h-5.632V4.947h-7.743V0.448h21.12v4.499h-7.745V29.552z"/>
	<path fill="#FAB700" d="M104.289,22.537l5.1-1.087c0.612,2.886,2.959,4.328,7.04,4.328c1.863,0,3.296-0.37,4.298-1.109
		c1.004-0.739,1.504-1.656,1.504-2.751c0-0.796-0.228-1.531-0.683-2.206c-0.455-0.676-1.429-1.205-2.924-1.589l-5.567-1.45
		c-1.905-0.498-3.313-1.062-4.224-1.695c-0.911-0.633-1.64-1.525-2.187-2.676c-0.547-1.151-0.822-2.381-0.822-3.689
		c0-2.601,0.968-4.687,2.901-6.258C110.661,0.785,113.136,0,116.15,0c2.504,0,4.74,0.547,6.71,1.642
		c1.97,1.095,3.226,2.644,3.766,4.648l-4.992,1.237c-0.768-2.204-2.56-3.305-5.376-3.305c-1.636,0-2.883,0.341-3.744,1.024
		c-0.861,0.682-1.291,1.549-1.291,2.601c0,1.663,1.35,2.829,4.053,3.497l4.949,1.237c3.002,0.754,5.014,1.865,6.038,3.337
		c1.024,1.47,1.536,3.094,1.536,4.872c0,2.857-1.078,5.107-3.233,6.748c-2.154,1.643-4.946,2.463-8.372,2.463
		c-2.888,0-5.417-0.605-7.585-1.812C106.441,26.98,105.001,25.096,104.289,22.537z"/>
	<path fill="#FAB700" d="M143.034,30c-3.87,0-6.88-1.45-9.036-4.35c-2.154-2.9-3.232-6.482-3.232-10.746
		c0-4.236,1.145-7.779,3.434-10.628C136.491,1.425,139.513,0,143.268,0c3.782,0,6.773,1.425,8.971,4.276
		c2.197,2.85,3.295,6.414,3.295,10.692c0,4.491-1.141,8.12-3.423,10.885C149.827,28.618,146.801,30,143.034,30z M143.075,25.778
		c1.892,0,3.493-0.781,4.801-2.345c1.308-1.564,1.963-4.4,1.963-8.508c0-3.34-0.54-5.959-1.621-7.857
		c-1.082-1.897-2.759-2.846-5.035-2.846c-4.495,0-6.742,3.617-6.742,10.853c0,3.511,0.573,6.173,1.718,7.985
		C139.303,24.873,140.941,25.778,143.075,25.778z"/>
	<path fill="#FAB700" d="M178.338,29.552h-17.92V0.448h5.526v24.35h12.394V29.552z"/>
	<path fill="#FAB700" d="M201.697,0.448v18.699c0,2.53-0.284,4.478-0.853,5.842c-0.568,1.365-1.666,2.541-3.295,3.528
		C195.92,29.506,193.932,30,191.587,30c-2.376,0-4.328-0.426-5.856-1.279c-1.529-0.853-2.629-2.022-3.296-3.507
		c-0.668-1.486-1.002-3.38-1.002-5.683V0.448h5.354v18.699c0,2.559,0.536,4.239,1.61,5.043c1.074,0.803,2.323,1.204,3.744,1.204
		c1.636,0,2.946-0.43,3.925-1.29c0.983-0.86,1.473-2.513,1.473-4.958V0.448H201.697z"/>
	<path fill="#FAB700" d="M217.868,29.552h-5.632V4.947h-7.743V0.448h21.12v4.499h-7.745V29.552z"/>
	<path fill="#FAB700" d="M234.061,29.552h-5.248V0.448h5.248V29.552z"/>
	<path fill="#FAB700" d="M251.192,30c-3.87,0-6.88-1.45-9.036-4.35c-2.154-2.9-3.232-6.482-3.232-10.746
		c0-4.236,1.145-7.779,3.434-10.628C244.65,1.425,247.671,0,251.426,0c3.782,0,6.773,1.425,8.971,4.276
		c2.197,2.85,3.295,6.414,3.295,10.692c0,4.491-1.141,8.12-3.423,10.885C257.986,28.618,254.96,30,251.192,30z M251.233,25.778
		c1.892,0,3.493-0.781,4.801-2.345c1.308-1.564,1.963-4.4,1.963-8.508c0-3.34-0.54-5.959-1.621-7.857
		c-1.082-1.897-2.759-2.846-5.035-2.846c-4.495,0-6.741,3.617-6.741,10.853c0,3.511,0.573,6.173,1.718,7.985
		C247.462,24.873,249.1,25.778,251.233,25.778z"/>
	<path fill="#FAB700" d="M290.574,29.552h-5.1L274.424,10.96c-0.171-0.285-0.449-0.746-0.831-1.386
		c-0.171-0.285-0.434-0.732-0.79-1.343v21.322h-4.224V0.448h5.803l10.197,17.143c0.085,0.142,0.705,1.187,1.855,3.134V0.448h4.141
		V29.552z"/>
	<path fill="#FAB700" d="M293.921,22.537l5.1-1.087c0.612,2.886,2.959,4.328,7.04,4.328c1.863,0,3.297-0.37,4.298-1.109
		c1.004-0.739,1.504-1.656,1.504-2.751c0-0.796-0.228-1.531-0.683-2.206c-0.454-0.676-1.428-1.205-2.923-1.589l-5.567-1.45
		c-1.905-0.498-3.313-1.062-4.224-1.695c-0.911-0.633-1.64-1.525-2.187-2.676c-0.547-1.151-0.822-2.381-0.822-3.689
		c0-2.601,0.968-4.687,2.901-6.258C300.293,0.785,302.767,0,305.782,0c2.504,0,4.74,0.547,6.71,1.642
		c1.97,1.095,3.226,2.644,3.766,4.648l-4.992,1.237c-0.768-2.204-2.56-3.305-5.376-3.305c-1.636,0-2.883,0.341-3.744,1.024
		s-1.291,1.549-1.291,2.601c0,1.663,1.35,2.829,4.053,3.497l4.949,1.237c3.001,0.754,5.014,1.865,6.038,3.337
		c1.024,1.47,1.536,3.094,1.536,4.872c0,2.857-1.078,5.107-3.233,6.748c-2.154,1.643-4.946,2.463-8.372,2.463
		c-2.888,0-5.417-0.605-7.585-1.812C296.072,26.98,294.633,25.096,293.921,22.537z"/>
	<path fill="#FAB700" d="M338.251,29.552h-5.396V0.448h18.412v4.499h-13.015V12.9h10.24v4.371h-10.24V29.552z"/>
	<path fill="#FAB700" d="M364.942,30c-3.87,0-6.881-1.45-9.036-4.35c-2.154-2.9-3.232-6.482-3.232-10.746
		c0-4.236,1.145-7.779,3.434-10.628C358.399,1.425,361.421,0,365.176,0c3.783,0,6.773,1.425,8.971,4.276
		c2.196,2.85,3.295,6.414,3.295,10.692c0,4.491-1.141,8.12-3.423,10.885C371.736,28.618,368.71,30,364.942,30z M364.983,25.778
		c1.892,0,3.493-0.781,4.801-2.345c1.308-1.564,1.963-4.4,1.963-8.508c0-3.34-0.54-5.959-1.621-7.857
		c-1.081-1.897-2.758-2.846-5.035-2.846c-4.495,0-6.741,3.617-6.741,10.853c0,3.511,0.573,6.173,1.718,7.985
		C361.212,24.873,362.85,25.778,364.983,25.778z"/>
	<path fill="#FAB700" d="M405.025,29.552h-5.547l-4.523-11.962h-7.381v11.962h-5.248V0.448h12.629c3.513,0,6.094,0.793,7.745,2.378
		c1.649,1.584,2.475,3.635,2.475,6.151c0,3.739-1.751,6.311-5.25,7.719L405.025,29.552z M387.574,13.39h6.528
		c1.892,0,3.3-0.398,4.224-1.194c0.924-0.796,1.388-1.89,1.388-3.284c0-1.279-0.456-2.314-1.365-3.102
		c-0.911-0.79-2.183-1.184-3.82-1.184h-6.955V13.39z"/>
	<path fill="#FAB700" d="M439.244,29.552h-17.92V0.448h5.526v24.35h12.394V29.552z"/>
	<path fill="#FAB700" d="M448.354,29.552h-5.248V0.448h5.248V29.552z"/>
	<path fill="#FAB700" d="M460.152,29.552h-5.396V0.448h18.412v4.499h-13.015V12.9h10.24v4.371h-10.24V29.552z"/>
	<path fill="#FAB700" d="M495.866,29.552h-18.924V0.448h18.731v4.328h-13.483v7.889h10.837v4.222h-10.837v8.145h13.676V29.552z"/>
</g>
</svg>
