<?xml version="1.0" encoding="utf-8"?>
<!-- Generator: Adobe Illustrator 21.1.0, SVG Export Plug-In . SVG Version: 6.00 Build 0)  -->
<svg version="1.1" id="Alcen" xmlns="http://www.w3.org/2000/svg" xmlns:xlink="http://www.w3.org/1999/xlink" x="0px" y="0px"
	 viewBox="0 0 807.7 46.5" style="enable-background:new 0 0 807.7 46.5;" xml:space="preserve">
<style type="text/css">
	.st0{fill:#EC7404;}
</style>
<g>
	<path class="st0" d="M10.1,18.6H6v18.5H3.5V18.6H0v-2.1h3.5v-1.9c0-3.6,1-6,5-6c0.7,0,1.3,0,2.1,0.2v2.2c-0.7-0.1-1.2-0.2-1.8-0.2
		c-2.8,0-2.7,1.8-2.8,4v1.8h4.1V18.6z"/>
	<path class="st0" d="M12.5,16.5h2.3v4.8h0.1c1.3-3.3,4.1-5.3,7.8-5.1v2.5c-4.6-0.2-7.7,3.1-7.7,7.4v11h-2.5V16.5z"/>
	<path class="st0" d="M42.9,26.8c0,5.9-3.4,10.9-9.8,10.9c-6.3,0-9.8-5-9.8-10.9c0-5.9,3.4-10.9,9.8-10.9
		C39.4,15.9,42.9,20.9,42.9,26.8z M25.9,26.8c0,4.4,2.4,8.8,7.2,8.8c4.8,0,7.2-4.4,7.2-8.8S38,18,33.1,18
		C28.3,18,25.9,22.4,25.9,26.8z"/>
	<path class="st0" d="M46.6,16.5H49V20h0.1c1.3-2.5,3.5-4.1,6.8-4.1c2.7,0,5.2,1.3,5.9,4c1.2-2.7,3.8-4,6.6-4c4.5,0,6.8,2.4,6.8,7.2
		v14h-2.5V23.3c0-3.4-1.3-5.2-4.9-5.2c-4.4,0-5.6,3.6-5.6,7.4v11.7h-2.5v-14c0-2.8-1.1-5.1-4.3-5.1c-4.4,0-6.1,3.3-6.2,7.6v11.5
		h-2.5V16.5z"/>
	<path class="st0" d="M103.9,10.1h5.5v6.3h-5.5v9.4c0,2.5,0.6,3.6,3.2,3.6c0.8,0,1.6-0.1,2.3-0.2v7.8c-2.1,0-4.4,0.3-6.6,0.3
		c-4.4,0-9.2-0.7-9.2-8.1V16.5H89v-6.3h4.6V1.9h10.3V10.1z"/>
	<path class="st0" d="M121.3,25.9c0.3,3.1,2,5.3,5.3,5.3c1.7,0,3.5-0.6,4.3-1.9h9.6c-2.1,5.8-7.7,8.5-13.9,8.5
		c-8.6,0-15.1-5.1-15.1-14.1c0-7.9,5.7-14.2,14.2-14.2c10.7,0,15.3,6,15.3,16.5H121.3z M131.2,20.6c0-2.5-1.9-4.5-4.5-4.5
		c-3.1,0-4.8,1.6-5.3,4.5H131.2z"/>
	<path class="st0" d="M162.8,20.4c-0.1-1.1-0.5-2-1.1-2.5c-0.6-0.6-1.5-0.9-2.6-0.9c-4,0-4.5,3.4-4.5,6.7c0,3.3,0.6,6.7,4.5,6.7
		c2.2,0,3.8-1.8,4-4h9.8c-0.5,3.6-2.2,6.5-4.7,8.5c-2.4,1.9-5.7,3-9.4,3c-8.1,0-14.6-5.6-14.6-14.1c0-8.5,6.5-14.2,14.6-14.2
		c7.1,0,13.1,3.5,13.7,10.9H162.8z"/>
	<path class="st0" d="M177.2,0h10.3v13.1h0.1c1.8-2.1,4.1-3.6,8.4-3.6c4.8,0,9.3,3,9.3,9.2v18.5H195V23c0-3.1-0.4-5.3-3.4-5.3
		c-1.8,0-4.1,0.9-4.1,5.2v14.2h-10.3V0z"/>
	<path class="st0" d="M210.9,10.1h9.9v3.4h0.1c1.9-2.7,4.7-4.1,8.8-4.1c4.8,0,9.3,3,9.3,9.2v18.5h-10.3V23c0-3.1-0.4-5.3-3.4-5.3
		c-1.8,0-4.1,0.9-4.1,5.2v14.2h-10.3V10.1z"/>
	<path class="st0" d="M258.1,37.8c-10.1,0-14.7-6.7-14.7-14.2S248,9.5,258.1,9.5c10.1,0,14.7,6.7,14.7,14.1S268.3,37.8,258.1,37.8z
		 M258.1,17c-3.9,0-4.4,3.8-4.4,6.7c0,2.9,0.5,6.7,4.4,6.7c3.9,0,4.4-3.8,4.4-6.7C262.6,20.7,262,17,258.1,17z"/>
	<path class="st0" d="M277.5,0h10.3v37.1h-10.3V0z"/>
	<path class="st0" d="M307.3,37.8c-10.1,0-14.7-6.7-14.7-14.2s4.6-14.1,14.7-14.1c10.1,0,14.7,6.7,14.7,14.1S317.4,37.8,307.3,37.8z
		 M307.3,17c-3.9,0-4.4,3.8-4.4,6.7c0,2.9,0.5,6.7,4.4,6.7c3.9,0,4.4-3.8,4.4-6.7C311.7,20.7,311.2,17,307.3,17z"/>
	<path class="st0" d="M354,33.6c0,5.4-1.4,12.9-14,12.9c-6.4,0-13.2-1.7-14.1-9H336c0.1,0.3,0.4,0.6,0.6,0.9c0.6,0.9,1.7,2,3,2
		c3.3,0,4.1-4,4.1-6.2v-2.5h-0.1c-1.7,2.4-4.2,3.7-7.2,3.7c-8,0-11.5-5.9-11.5-13.2c0-7,4-12.9,11.7-12.9c3,0,5.9,1.2,7.1,4h0.1
		v-3.3H354V33.6z M339.7,28.9c3.8,0,4.2-3.6,4.2-6.7c0-3-1.5-5.3-4.5-5.3c-2.9,0-4.4,2.5-4.4,5.4C335.1,25.4,336,28.9,339.7,28.9z"
		/>
	<path class="st0" d="M369.7,7.2h-10.3V0h10.3V7.2z M359.4,10.1h10.3v27h-10.3V10.1z"/>
	<path class="st0" d="M384.3,25.9c0.3,3.1,2,5.3,5.3,5.3c1.7,0,3.5-0.6,4.3-1.9h9.6c-2.1,5.8-7.7,8.5-13.9,8.5
		c-8.6,0-15.1-5.1-15.1-14.1c0-7.9,5.7-14.2,14.2-14.2c10.7,0,15.3,6,15.3,16.5H384.3z M394.2,20.6c0-2.5-1.9-4.5-4.5-4.5
		c-3.1,0-4.8,1.6-5.3,4.5H394.2z"/>
	<path class="st0" d="M424,18c-0.1-0.9-0.5-1.6-1.2-2c-0.6-0.5-1.5-0.8-2.3-0.8c-1.5,0-3.1,0.3-3.1,2.1c0,0.8,0.6,1.1,1.2,1.4
		c1.7,0.7,5.6,0.9,9,2.1c3.4,1.1,6.4,3.1,6.4,7.5c0,7.5-7.2,9.5-13.7,9.5c-6.3,0-13.3-2.5-13.5-9.5h9.8c0.1,0.9,0.5,1.7,1.2,2.4
		c0.5,0.5,1.5,0.8,2.8,0.8c1.4,0,3.5-0.5,3.5-2.1c0-1.6-0.9-2-5.7-2.9c-7.9-1.4-11-3.8-11-8.5c0-6.8,7.3-8.6,12.7-8.6
		c5.8,0,12.8,1.6,13.1,8.5H424z"/>
	<path class="st0" d="M459.2,16.5h4.2v2.1h-4.2v13.9c0,1.6,0.2,2.6,2,2.7c0.7,0,1.4,0,2.2-0.1v2.2c-0.8,0-1.5,0.1-2.2,0.1
		c-3.4,0-4.5-1.1-4.5-4.6V18.6h-3.6v-2.1h3.6v-6.2h2.5V16.5z"/>
	<path class="st0" d="M485.5,26.8c0,5.9-3.4,10.9-9.8,10.9c-6.3,0-9.8-5-9.8-10.9c0-5.9,3.4-10.9,9.8-10.9
		C482.1,15.9,485.5,20.9,485.5,26.8z M468.5,26.8c0,4.4,2.4,8.8,7.2,8.8s7.2-4.4,7.2-8.8s-2.4-8.8-7.2-8.8S468.5,22.4,468.5,26.8z"
		/>
	<path class="st0" d="M511.3,7.2H501V0h10.3V7.2z M501,10.1h10.3v27H501V10.1z"/>
	<path class="st0" d="M517.2,10.1h9.9v3.4h0.1c1.9-2.7,4.7-4.1,8.8-4.1c4.8,0,9.3,3,9.3,9.2v18.5h-10.3V23c0-3.1-0.4-5.3-3.4-5.3
		c-1.8,0-4.1,0.9-4.1,5.2v14.2h-10.3V10.1z"/>
	<path class="st0" d="M550.9,10.1h9.9v3.4h0.1c1.9-2.7,4.7-4.1,8.8-4.1c4.8,0,9.3,3,9.3,9.2v18.5h-10.3V23c0-3.1-0.4-5.3-3.4-5.3
		c-1.8,0-4.1,0.9-4.1,5.2v14.2h-10.3V10.1z"/>
	<path class="st0" d="M598.1,37.8c-10.1,0-14.7-6.7-14.7-14.2S588,9.5,598.1,9.5c10.1,0,14.7,6.7,14.7,14.1S608.3,37.8,598.1,37.8z
		 M598.1,17c-3.9,0-4.4,3.8-4.4,6.7c0,2.9,0.5,6.7,4.4,6.7s4.4-3.8,4.4-6.7C602.5,20.7,602,17,598.1,17z"/>
	<path class="st0" d="M635,37.1h-12.2l-8.8-27h10.9l4.2,16.4h0.1l4.3-16.4h10.5L635,37.1z"/>
	<path class="st0" d="M672.5,31.1c0,2,0.1,4.3,1.2,6h-10.5c-0.3-0.7-0.4-1.8-0.4-2.5h-0.1c-2.2,2.5-5.4,3.2-8.7,3.2
		c-5.2,0-9.5-2.5-9.5-8.2c0-8.5,10-8.2,15.2-9.2c1.4-0.3,2.8-0.7,2.8-2.4c0-1.8-1.7-2.5-3.4-2.5c-3.2,0-3.8,1.6-3.8,2.8h-9.6
		c0.2-3.8,2-6,4.7-7.3c2.6-1.2,6-1.6,9.2-1.6c12.9,0,12.8,5.4,12.8,10.6V31.1z M662.7,25c-1.2,0.6-2.7,1-4.1,1.3
		c-2.3,0.5-3.5,1.1-3.5,2.9c0,1.2,1.4,2.5,3.2,2.5c2.3,0,4.2-1.4,4.3-4.2V25z"/>
	<path class="st0" d="M690.4,10.1h5.5v6.3h-5.5v9.4c0,2.5,0.6,3.6,3.2,3.6c0.8,0,1.6-0.1,2.3-0.2v7.8c-2.1,0-4.4,0.3-6.6,0.3
		c-4.4,0-9.2-0.7-9.2-8.1V16.5h-4.6v-6.3h4.6V1.9h10.3V10.1z"/>
	<path class="st0" d="M709.7,7.2h-10.3V0h10.3V7.2z M699.4,10.1h10.3v27h-10.3V10.1z"/>
	<path class="st0" d="M729.1,37.8c-10.1,0-14.7-6.7-14.7-14.2S719,9.5,729.1,9.5c10.1,0,14.7,6.7,14.7,14.1S739.3,37.8,729.1,37.8z
		 M729.1,17c-3.9,0-4.4,3.8-4.4,6.7c0,2.9,0.5,6.7,4.4,6.7s4.4-3.8,4.4-6.7C733.5,20.7,733,17,729.1,17z"/>
	<path class="st0" d="M748.3,10.1h9.9v3.4h0.1c1.9-2.7,4.7-4.1,8.8-4.1c4.8,0,9.3,3,9.3,9.2v18.5h-10.3V23c0-3.1-0.4-5.3-3.4-5.3
		c-1.8,0-4.1,0.9-4.1,5.2v14.2h-10.3V10.1z"/>
	<path class="st0" d="M797.6,18c-0.1-0.9-0.5-1.6-1.2-2c-0.6-0.5-1.5-0.8-2.3-0.8c-1.5,0-3.1,0.3-3.1,2.1c0,0.8,0.6,1.1,1.2,1.4
		c1.7,0.7,5.6,0.9,9,2.1c3.4,1.1,6.4,3.1,6.4,7.5c0,7.5-7.2,9.5-13.7,9.5c-6.3,0-13.3-2.5-13.5-9.5h9.8c0.1,0.9,0.5,1.7,1.2,2.4
		c0.5,0.5,1.5,0.8,2.8,0.8c1.4,0,3.5-0.5,3.5-2.1c0-1.6-0.9-2-5.7-2.9c-7.9-1.4-11-3.8-11-8.5c0-6.8,7.3-8.6,12.7-8.6
		c5.8,0,12.8,1.6,13.1,8.5H797.6z"/>
</g>
</svg>
