<?xml version="1.0" encoding="utf-8"?>
<!-- Generator: Adobe Illustrator 21.1.0, SVG Export Plug-In . SVG Version: 6.00 Build 0)  -->
<svg version="1.1" id="Calque_1" xmlns="http://www.w3.org/2000/svg" xmlns:xlink="http://www.w3.org/1999/xlink" x="0px" y="0px"
	 viewBox="0 0 239.101 14" enable-background="new 0 0 239.101 14" xml:space="preserve">
<g>
	<path fill="#ED7203" d="M0,3.016h2.955v1.067h0.031c0.619-0.928,1.516-1.269,2.63-1.269c0.866,0,1.794,0.449,2.166,1.253
		c0.124-0.093,0.743-1.253,2.738-1.253c2.058,0,2.754,1.423,2.754,2.723v5.507H10.21V6.698c0-0.758-0.077-1.439-1.005-1.439
		c-0.773,0-1.037,0.603-1.037,1.439v4.347H5.105V6.698c0-0.758-0.077-1.439-1.006-1.439c-0.773,0-1.036,0.603-1.036,1.439v4.347H0
		V3.016z"/>
	<path fill="#ED7203" d="M17.496,7.719c0.077,0.913,0.603,1.562,1.562,1.562c0.495,0,1.037-0.186,1.284-0.572h2.862
		c-0.619,1.733-2.305,2.537-4.13,2.537c-2.568,0-4.502-1.516-4.502-4.192c0-2.336,1.702-4.239,4.239-4.239
		c3.187,0,4.564,1.779,4.564,4.904H17.496z M20.435,6.126c0-0.743-0.557-1.346-1.346-1.346c-0.913,0-1.439,0.479-1.578,1.346H20.435
		z"/>
	<path fill="#ED7203" d="M32.485,9.251c0,0.603,0.031,1.284,0.371,1.794h-3.125c-0.077-0.217-0.124-0.542-0.108-0.758h-0.031
		c-0.65,0.743-1.593,0.959-2.583,0.959c-1.547,0-2.831-0.743-2.831-2.429c0-2.537,2.97-2.444,4.532-2.738
		c0.418-0.077,0.835-0.201,0.835-0.712c0-0.541-0.511-0.743-1.006-0.743c-0.944,0-1.129,0.48-1.145,0.82h-2.846
		c0.046-1.129,0.603-1.794,1.392-2.166c0.774-0.371,1.794-0.464,2.738-0.464c3.836,0,3.806,1.593,3.806,3.14V9.251z M29.546,7.441
		c-0.371,0.186-0.789,0.294-1.207,0.387c-0.681,0.155-1.037,0.325-1.037,0.866c0,0.371,0.402,0.743,0.959,0.743
		c0.696,0,1.238-0.418,1.284-1.253V7.441z"/>
	<path fill="#ED7203" d="M38.75,5.352c-0.016-0.263-0.155-0.464-0.356-0.603c-0.186-0.155-0.433-0.232-0.681-0.232
		c-0.433,0-0.928,0.093-0.928,0.619c0,0.232,0.186,0.34,0.356,0.418c0.511,0.217,1.671,0.279,2.692,0.619
		c1.021,0.325,1.918,0.928,1.918,2.243c0,2.228-2.135,2.831-4.084,2.831c-1.887,0-3.96-0.758-4.007-2.831h2.924
		c0.016,0.278,0.139,0.511,0.371,0.712c0.155,0.139,0.449,0.232,0.82,0.232c0.402,0,1.036-0.155,1.036-0.619
		c0-0.464-0.263-0.603-1.686-0.851c-2.336-0.402-3.28-1.145-3.28-2.522c0-2.026,2.181-2.552,3.79-2.552
		c1.733,0,3.821,0.48,3.898,2.537H38.75z"/>
	<path fill="#ED7203" d="M51.341,11.045h-2.955v-1.021h-0.031c-0.572,0.804-1.392,1.222-2.614,1.222
		c-1.439,0-2.754-0.882-2.754-2.723V3.016h3.063v4.208c0,0.928,0.108,1.578,1.005,1.578c0.526,0,1.222-0.263,1.222-1.547V3.016
		h3.063V11.045z"/>
	<path fill="#ED7203" d="M53.012,3.016h2.939v1.284h0.031c0.495-0.959,1.145-1.485,2.259-1.485c0.309,0,0.603,0.046,0.897,0.124
		v2.707c-0.309-0.108-0.588-0.201-1.207-0.201c-1.207,0-1.856,0.712-1.856,2.429v3.171h-3.063V3.016z"/>
	<path fill="#ED7203" d="M62.185,7.719c0.077,0.913,0.603,1.562,1.562,1.562c0.495,0,1.036-0.186,1.284-0.572h2.862
		c-0.619,1.733-2.305,2.537-4.13,2.537c-2.568,0-4.502-1.516-4.502-4.192c0-2.336,1.702-4.239,4.239-4.239
		c3.187,0,4.563,1.779,4.563,4.904H62.185z M65.124,6.126c0-0.743-0.557-1.346-1.346-1.346c-0.913,0-1.439,0.479-1.578,1.346H65.124
		z"/>
	<path fill="#ED7203" d="M74.513,3.016h2.955v0.882h0.031c0.387-0.511,0.851-1.083,2.351-1.083c2.274,0,3.373,2.243,3.373,4.254
		c0,1.887-0.727,4.177-3.419,4.177c-0.913,0-1.733-0.402-2.197-1.083h-0.031v3.481h-3.063V3.016z M78.814,9.019
		c1.098,0,1.346-1.036,1.346-1.98c0-0.959-0.248-1.995-1.346-1.995s-1.346,1.037-1.346,1.995
		C77.468,7.982,77.715,9.019,78.814,9.019z"/>
	<path fill="#ED7203" d="M92.365,9.251c0,0.603,0.031,1.284,0.371,1.794h-3.125c-0.077-0.217-0.124-0.542-0.108-0.758h-0.031
		c-0.65,0.743-1.593,0.959-2.583,0.959c-1.547,0-2.831-0.743-2.831-2.429c0-2.537,2.97-2.444,4.533-2.738
		c0.418-0.077,0.835-0.201,0.835-0.712c0-0.541-0.511-0.743-1.006-0.743c-0.944,0-1.129,0.48-1.145,0.82h-2.846
		c0.046-1.129,0.603-1.794,1.392-2.166c0.774-0.371,1.794-0.464,2.738-0.464c3.836,0,3.806,1.593,3.806,3.14V9.251z M89.425,7.441
		c-0.371,0.186-0.789,0.294-1.207,0.387c-0.681,0.155-1.037,0.325-1.037,0.866c0,0.371,0.402,0.743,0.959,0.743
		c0.696,0,1.238-0.418,1.284-1.253V7.441z"/>
	<path fill="#ED7203" d="M93.988,3.016h2.939v1.284h0.031c0.495-0.959,1.145-1.485,2.259-1.485c0.309,0,0.603,0.046,0.897,0.124
		v2.707c-0.309-0.108-0.588-0.201-1.206-0.201c-1.207,0-1.856,0.712-1.856,2.429v3.171h-3.063V3.016z"/>
	<path fill="#ED7203" d="M104.538,3.016h1.64v1.887h-1.64v2.8c0,0.743,0.17,1.067,0.944,1.067c0.232,0,0.464-0.015,0.696-0.046v2.32
		c-0.619,0-1.315,0.093-1.964,0.093c-1.299,0-2.738-0.201-2.738-2.398V4.904h-1.361V3.016h1.361V0.572h3.063V3.016z"/>
	<path fill="#ED7203" d="M110.277,2.15h-3.063V0h3.063V2.15z M107.214,3.016h3.063v8.029h-3.063V3.016z"/>
	<path fill="#ED7203" d="M117.207,6.064c-0.031-0.325-0.139-0.588-0.34-0.758c-0.186-0.17-0.449-0.263-0.774-0.263
		c-1.176,0-1.346,1.021-1.346,1.995c0,0.975,0.17,1.98,1.346,1.98c0.665,0,1.129-0.541,1.191-1.176h2.924
		c-0.139,1.083-0.65,1.934-1.392,2.522c-0.727,0.572-1.701,0.882-2.785,0.882c-2.413,0-4.347-1.671-4.347-4.208
		s1.934-4.223,4.347-4.223c2.104,0,3.898,1.037,4.084,3.249H117.207z"/>
	<path fill="#ED7203" d="M121.538,0h3.063v11.045h-3.063V0z"/>
	<path fill="#ED7203" d="M128.932,7.719c0.078,0.913,0.603,1.562,1.563,1.562c0.495,0,1.036-0.186,1.284-0.572h2.862
		c-0.619,1.733-2.305,2.537-4.13,2.537c-2.568,0-4.502-1.516-4.502-4.192c0-2.336,1.702-4.239,4.239-4.239
		c3.187,0,4.563,1.779,4.563,4.904H128.932z M131.871,6.126c0-0.743-0.557-1.346-1.346-1.346c-0.913,0-1.439,0.479-1.578,1.346
		H131.871z"/>
	<path fill="#ED7203" d="M140.735,5.352c-0.016-0.263-0.155-0.464-0.356-0.603c-0.186-0.155-0.433-0.232-0.681-0.232
		c-0.433,0-0.928,0.093-0.928,0.619c0,0.232,0.186,0.34,0.356,0.418c0.51,0.217,1.67,0.279,2.692,0.619
		c1.021,0.325,1.918,0.928,1.918,2.243c0,2.228-2.135,2.831-4.084,2.831c-1.887,0-3.96-0.758-4.007-2.831h2.924
		c0.016,0.278,0.139,0.511,0.371,0.712c0.155,0.139,0.449,0.232,0.82,0.232c0.402,0,1.036-0.155,1.036-0.619
		c0-0.464-0.263-0.603-1.686-0.851c-2.336-0.402-3.28-1.145-3.28-2.522c0-2.026,2.181-2.552,3.79-2.552
		c1.733,0,3.821,0.48,3.898,2.537H140.735z"/>
	<path fill="#ED7203" d="M149.335,3.063h1.037l2.63,6.807l2.46-6.807h0.974l-3.465,9.204c-0.557,1.346-0.882,1.733-2.104,1.733
		c-0.387-0.016-0.588-0.016-0.743-0.077v-0.82c0.232,0.046,0.449,0.077,0.665,0.077c0.866,0,1.067-0.511,1.392-1.253l0.34-0.913
		L149.335,3.063z"/>
	<path fill="#ED7203" d="M164.541,7.054c0,2.289-1.33,4.223-3.774,4.223c-2.444,0-3.775-1.934-3.775-4.223s1.331-4.223,3.775-4.223
		C163.211,2.831,164.541,4.765,164.541,7.054z M157.967,7.054c0,1.702,0.928,3.403,2.8,3.403c1.872,0,2.8-1.702,2.8-3.403
		s-0.928-3.403-2.8-3.403C158.895,3.651,157.967,5.352,157.967,7.054z"/>
	<path fill="#ED7203" d="M172.462,11.045h-0.897V9.607h-0.031c-0.51,1.067-1.562,1.671-2.753,1.671c-2.011,0-2.8-1.176-2.8-3.032
		V3.063h0.974v5.198c0.046,1.439,0.588,2.197,2.135,2.197c1.671,0,2.398-1.578,2.398-3.202V3.063h0.975V11.045z"/>
	<path fill="#ED7203" d="M178.509,0h3.063v3.898h0.031c0.464-0.681,1.284-1.083,2.197-1.083c2.692,0,3.419,2.289,3.419,4.177
		c0,2.011-1.098,4.254-3.372,4.254c-1.501,0-1.965-0.572-2.351-1.083h-0.031v0.882h-2.955V0z M182.81,5.043
		c-1.098,0-1.346,1.037-1.346,1.98c0,0.959,0.248,1.995,1.346,1.995c1.098,0,1.346-1.036,1.346-1.995
		C184.156,6.08,183.908,5.043,182.81,5.043z"/>
	<path fill="#ED7203" d="M188.533,3.016h2.939v1.284h0.031c0.495-0.959,1.145-1.485,2.259-1.485c0.309,0,0.603,0.046,0.897,0.124
		v2.707c-0.31-0.108-0.588-0.201-1.207-0.201c-1.207,0-1.856,0.712-1.856,2.429v3.171h-3.063V3.016z"/>
	<path fill="#ED7203" d="M197.706,7.719c0.077,0.913,0.603,1.562,1.562,1.562c0.495,0,1.037-0.186,1.284-0.572h2.862
		c-0.619,1.733-2.305,2.537-4.13,2.537c-2.568,0-4.502-1.516-4.502-4.192c0-2.336,1.702-4.239,4.239-4.239
		c3.187,0,4.564,1.779,4.564,4.904H197.706z M200.646,6.126c0-0.743-0.557-1.346-1.346-1.346c-0.913,0-1.439,0.479-1.578,1.346
		H200.646z"/>
	<path fill="#ED7203" d="M212.696,9.251c0,0.603,0.031,1.284,0.371,1.794h-3.125c-0.078-0.217-0.124-0.542-0.108-0.758h-0.031
		c-0.65,0.743-1.593,0.959-2.583,0.959c-1.547,0-2.831-0.743-2.831-2.429c0-2.537,2.97-2.444,4.533-2.738
		c0.418-0.077,0.835-0.201,0.835-0.712c0-0.541-0.51-0.743-1.005-0.743c-0.944,0-1.129,0.48-1.145,0.82h-2.846
		c0.046-1.129,0.603-1.794,1.392-2.166c0.774-0.371,1.794-0.464,2.738-0.464c3.836,0,3.806,1.593,3.806,3.14V9.251z M209.756,7.441
		c-0.371,0.186-0.789,0.294-1.206,0.387c-0.681,0.155-1.037,0.325-1.037,0.866c0,0.371,0.402,0.743,0.959,0.743
		c0.696,0,1.238-0.418,1.284-1.253V7.441z"/>
	<path fill="#ED7203" d="M218.001,3.016h1.64v1.887h-1.64v2.8c0,0.743,0.17,1.067,0.944,1.067c0.232,0,0.464-0.015,0.696-0.046v2.32
		c-0.619,0-1.315,0.093-1.965,0.093c-1.299,0-2.738-0.201-2.738-2.398V4.904h-1.361V3.016h1.361V0.572h3.063V3.016z"/>
	<path fill="#ED7203" d="M220.616,0h3.063v3.883h0.031c0.526-0.619,1.206-1.067,2.506-1.067c1.439,0,2.753,0.882,2.753,2.723v5.507
		h-3.063V6.838c0-0.928-0.108-1.578-1.005-1.578c-0.526,0-1.222,0.263-1.222,1.547v4.239h-3.063V0z"/>
	<path fill="#ED7203" d="M233.222,7.719c0.077,0.913,0.603,1.562,1.562,1.562c0.495,0,1.037-0.186,1.284-0.572h2.862
		c-0.619,1.733-2.305,2.537-4.13,2.537c-2.568,0-4.502-1.516-4.502-4.192c0-2.336,1.702-4.239,4.239-4.239
		c3.187,0,4.564,1.779,4.564,4.904H233.222z M236.162,6.126c0-0.743-0.557-1.346-1.346-1.346c-0.913,0-1.439,0.479-1.578,1.346
		H236.162z"/>
</g>
</svg>
