<?xml version="1.0" encoding="utf-8"?>
<!-- Generator: Adobe Illustrator 21.1.0, SVG Export Plug-In . SVG Version: 6.00 Build 0)  -->
<svg version="1.1" id="Calque_1" xmlns="http://www.w3.org/2000/svg" xmlns:xlink="http://www.w3.org/1999/xlink" x="0px" y="0px"
	 viewBox="0 0 250.2 30" style="enable-background:new 0 0 250.2 30;" xml:space="preserve">
<style type="text/css">
	.st0{fill-rule:evenodd;clip-rule:evenodd;fill:#ED7203;}
	.st1{fill:#939393;}
	.st2{fill-rule:evenodd;clip-rule:evenodd;fill:#4565AC;}
	.st3{fill:#4565AC;}
</style>
<g>
	<path class="st0" d="M201.2,25.6c0.6,0,1.1,0.4,1.1,1V30h-0.8v-3.3c0-0.3-0.2-0.5-0.5-0.5h-1.7v-0.6H201.2L201.2,25.6z M198.7,27.6
		h2.3v0.6h-2.3V30h-0.8v-4.4h0.8V27.6L198.7,27.6z M208.8,28.9c0,0.3,0.2,0.5,0.5,0.5h2.6V30H209c-0.6,0-1.1-0.4-1.1-1v-2.5
		c0-0.5,0.5-1,1.1-1h2.9v0.6h-2.6c-0.3,0-0.5,0.2-0.5,0.5V28.9L208.8,28.9z M213.9,26.2c-0.1,0-0.2,0.1-0.2,0.2v1.1h2.7v0.6h-2.7
		v1.1c0,0.1,0.1,0.2,0.2,0.2h2.9V30h-3.6c-0.2,0-0.3-0.1-0.3-0.3v-3.8c0-0.2,0.1-0.3,0.3-0.3h3.6v0.6H213.9L213.9,26.2z M204.2,29.2
		c0,0.1,0.1,0.2,0.2,0.2h2.9V30h-3.5c-0.2,0-0.3-0.1-0.3-0.3l0-4.1h0.8V29.2L204.2,29.2z M221.4,28.7
		C221.4,28.7,221.5,28.6,221.4,28.7l0.1-3.1h0.8V30h-0.4c-0.1,0-0.3-0.1-0.3-0.1l-2.7-3c-0.1,0-0.1,0-0.1,0l0,3.1H218v-4.1v-0.3h0.4
		c0.1,0,0.3,0.1,0.3,0.1L221.4,28.7L221.4,28.7z"/>
	<path class="st1" d="M250.2,28.4h-25.7v-1h25.7V28.4z M195.6,28.4H0v-1h195.6V28.4z M250.2,1H0V0h250.2V1z"/>
	<path class="st2" d="M49.6,9.8c0.9,0,1.6,0.6,1.6,1.4V12c0,0.8-0.7,1.4-1.6,1.4h-5.2v-3.2c0-0.3,0.2-0.5,0.5-0.5H49.6L49.6,9.8z
		 M50.4,15.2l3.2,5.5h-2.3L48.4,16c-0.3-0.4-0.8-0.8-1.4-0.8h-2.7v5.5H42V8.9C42,8.4,42.5,8,43,8h7.5c1.7,0,3,1.2,3,2.7v1.8
		c0,1.5-1.3,2.7-3,2.7H50.4L50.4,15.2z"/>
	<path class="st3" d="M80.9,16.7c0-0.1,0-8.7,0-8.7h2.3v12.7c0,0-0.5,0-1.2,0c-0.4,0-0.8-0.2-1-0.4l-7.6-8.4c0,0-0.1,0-0.1,0
		c-0.1,0-0.1,0.1-0.1,0.1c0,0.1,0,8.7,0,8.7H71V8c0,0,0.5,0,1.2,0c0.4,0,0.8,0.2,1,0.4l7.6,8.4c0,0,0.1,0,0.1,0
		C80.9,16.8,80.9,16.8,80.9,16.7L80.9,16.7z"/>
	<path class="st3" d="M94.2,17.5c0,0.8,0.7,1.4,1.6,1.4h7.4v1.8h-8.3c-1.7,0-3-1.2-3-2.7v-7.2c0-1.5,1.3-2.7,3-2.7h8.3v1.8h-7.4
		c-0.9,0-1.6,0.6-1.6,1.4V17.5L94.2,17.5z"/>
	<path class="st2" d="M58.3,17.5c0,0.8,0.7,1.4,1.6,1.4h4.3c0.9,0,1.6-0.6,1.6-1.4v-6.3c0-0.8-0.7-1.4-1.6-1.4h-4.3
		c-0.9,0-1.6,0.6-1.6,1.4V17.5L58.3,17.5z M58.9,20.7c-1.7,0-3-1.2-3-2.7v-7.2c0-1.5,1.3-2.7,3-2.7h6c1.7,0,3,1.2,3,2.7v7.2
		c0,1.5-1.3,2.7-3,2.7H58.9L58.9,20.7z"/>
	<polygon class="st3" points="35,20.7 32.7,20.7 32.7,9.8 27.9,9.8 27.9,8 39.8,8 39.8,9.8 35,9.8 35,20.7 	"/>
	<path class="st2" d="M107.7,17.5c0,0.8,0.7,1.4,1.6,1.4h4.3c0.9,0,1.6-0.6,1.6-1.4v-6.3c0-0.8-0.7-1.4-1.6-1.4h-4.3
		c-0.9,0-1.6,0.6-1.6,1.4V17.5L107.7,17.5z M108.4,20.7c-1.7,0-3-1.2-3-2.7v-7.2c0-1.5,1.3-2.7,3-2.7h6c1.7,0,3,1.2,3,2.7v7.2
		c0,1.5-1.3,2.7-3,2.7H108.4L108.4,20.7z"/>
	<polygon class="st3" points="88.9,20.7 86.5,20.7 86.5,8 88.9,8 88.9,20.7 	"/>
	<g>
		<path class="st3" d="M157.5,8c1.7,0,3,1.2,3,2.7v1h-2.3v-0.5c0-0.8-0.7-1.4-1.6-1.4h-4.3c-0.9,0-1.6,0.6-1.6,1.4v6.3
			c0,0.8,0.7,1.4,1.6,1.4h4.3c0.9,0,1.6-0.6,1.6-1.4v-1.4c0-0.3-0.2-0.5-0.5-0.5h-2.2v-1.8h4.1c0.5,0,1,0.4,1,0.9v3.2
			c0,1.5-1.3,2.7-3,2.7h-6c-1.7,0-3-1.2-3-2.7v-7.2c0-1.5,1.3-2.7,3-2.7H157.5L157.5,8z"/>
		<polygon class="st3" points="145.4,20.7 143,20.7 143,8 145.4,8 145.4,20.7 		"/>
		<polygon class="st3" points="165.9,20.7 163.5,20.7 163.5,8 165.9,8 165.9,20.7 		"/>
		<path class="st3" d="M127.3,8h2.5l3.9,9.2c0,0.1,0.1,0.2,0.2,0.2s0.2-0.1,0.2-0.2L138,8h2.5l-5.2,12.3c-0.1,0.2-0.3,0.4-0.6,0.4
			h-1.6c-0.3,0-0.5-0.2-0.6-0.4L127.3,8L127.3,8z"/>
		<path class="st3" d="M171.3,17.5c0,0.8,0.7,1.4,1.6,1.4h7.4v1.8h-8.3c-1.7,0-3-1.2-3-2.7v-7.2c0-1.5,1.3-2.7,3-2.7h8.3v1.8h-7.4
			c-0.9,0-1.6,0.6-1.6,1.4V17.5L171.3,17.5z"/>
		<path class="st3" d="M199.8,8v10.5c0,0.3,0.2,0.5,0.5,0.5h8.4v1.8h-10.3c-0.5,0-1-0.4-1-0.9V8H199.8L199.8,8z"/>
		<path class="st3" d="M213.3,8v10.5c0,0.3,0.2,0.5,0.5,0.5h8.4v1.8h-10.3c-0.5,0-1-0.4-1-0.9V8H213.3L213.3,8z"/>
		<path class="st3" d="M185.6,9.8c-0.3,0-0.5,0.2-0.5,0.5l0,3.2h7.7v1.8h-7.7v3.2c0,0.3,0.2,0.5,0.5,0.5h8.4v1.8h-10.3
			c-0.5,0-1-0.4-1-0.9V8.9c0-0.5,0.4-0.9,1-0.9H194v1.8H185.6L185.6,9.8z"/>
	</g>
</g>
</svg>
