<?xml version="1.0" encoding="utf-8"?>
<!-- Generator: Adobe Illustrator 21.1.0, SVG Export Plug-In . SVG Version: 6.00 Build 0)  -->
<svg version="1.1" id="Calque_1" xmlns="http://www.w3.org/2000/svg" xmlns:xlink="http://www.w3.org/1999/xlink" x="0px" y="0px"
	 viewBox="0 0 99 30" enable-background="new 0 0 99 30" xml:space="preserve">
<g>
	<path fill-rule="evenodd" clip-rule="evenodd" fill="#EE7203" d="M49.725,25.583c0.579,0,1.049,0.426,1.049,0.95l0,3.467h-0.817
		v-3.313c0-0.269-0.242-0.486-0.541-0.486h-1.729v-0.619H49.725L49.725,25.583z M47.174,27.637h2.27v0.618h-2.27V30h-0.817v-4.417
		h0.817V27.637L47.174,27.637z M57.223,28.896c0,0.268,0.242,0.486,0.541,0.486h2.573V30h-2.882c-0.579,0-1.049-0.425-1.049-0.95
		v-2.518c0-0.524,0.47-0.95,1.049-0.95h2.882v0.619h-2.573c-0.299,0-0.541,0.217-0.541,0.486V28.896L57.223,28.896z M62.303,26.201
		c-0.098,0-0.177,0.072-0.177,0.16v1.121h2.672v0.619h-2.672v1.121c0,0.088,0.079,0.16,0.177,0.16h2.926V30H61.64
		c-0.183,0-0.331-0.138-0.331-0.309v-3.799c0-0.171,0.148-0.31,0.331-0.31h3.589v0.619H62.303L62.303,26.201z M52.717,29.222
		c0,0.088,0.079,0.16,0.177,0.16h2.871V30h-3.527c-0.183,0-0.331-0.138-0.331-0.309L51.9,25.583h0.817V29.222L52.717,29.222z
		 M69.764,28.662c0.051,0.013,0.07-0.01,0.07-0.04l0-3.04h0.817V30h-0.408c-0.141,0-0.265-0.053-0.338-0.135l-2.651-2.944
		c-0.051-0.013-0.07,0.011-0.07,0.04l0,3.04h-0.817v-4.116v-0.302h0.409c0.14,0,0.264,0.054,0.338,0.135L69.764,28.662
		L69.764,28.662z"/>
	<path fill="#949494" d="M98.437,28.633H72.881v-0.994h25.556V28.633z M44.148,28.633H0v-0.994h44.148V28.633z M98.437,0.994H0V0
		h98.437V0.994z"/>
	<path fill-rule="evenodd" clip-rule="evenodd" fill="#4565AD" d="M66.792,9.45c0.854,0,1.546,0.621,1.546,1.388v0.882
		c0,0.767-0.692,1.388-1.546,1.388h-5.206V9.923c0-0.261,0.226-0.473,0.505-0.473H66.792L66.792,9.45z M67.539,14.876l3.134,5.428
		h-2.331l-2.703-4.68c-0.258-0.444-0.775-0.747-1.372-0.747h-2.681v5.428h-2.335V8.567c0-0.488,0.423-0.884,0.947-0.884h7.477
		c1.655,0,2.997,1.215,2.997,2.713v1.766c0,1.499-1.342,2.714-2.997,2.714H67.539L67.539,14.876z"/>
	<path fill-rule="evenodd" clip-rule="evenodd" fill="#4565AD" d="M53.384,11.216c0-0.962-0.865-1.745-1.941-1.767h-4.56
		c-0.279,0-0.505,0.205-0.505,0.457l0.001,8.629l5.064,0.001c1.076-0.022,1.941-0.805,1.941-1.767V11.216L53.384,11.216z
		 M51.933,7.682c2.091,0,3.785,1.554,3.785,3.471v5.681c0,1.916-1.694,3.47-3.785,3.47l-7.889-0.001V8.566
		c0-0.488,0.424-0.883,0.946-0.883H51.933L51.933,7.682z"/>
	<path fill-rule="evenodd" clip-rule="evenodd" fill="#4565AD" d="M38.05,13.552h-7.951V9.924c0-0.262,0.226-0.473,0.505-0.473h5.9
		c0.854,0,1.546,0.622,1.546,1.388V13.552L38.05,13.552z M37.387,7.683c1.655,0,2.997,1.215,2.997,2.713l0,9.907H38.05l0-4.985
		h-7.951v4.985h-2.335V8.567c0-0.488,0.424-0.884,0.947-0.884H37.387L37.387,7.683z"/>
</g>
</svg>
