<?xml version="1.0" encoding="utf-8"?>
<!-- Generator: Adobe Illustrator 21.1.0, SVG Export Plug-In . SVG Version: 6.00 Build 0)  -->
<svg version="1.1" id="Calque_1" xmlns="http://www.w3.org/2000/svg" xmlns:xlink="http://www.w3.org/1999/xlink" x="0px" y="0px"
	 viewBox="0 0 162.6 30" style="enable-background:new 0 0 162.6 30;" xml:space="preserve">
<style type="text/css">
	.st0{fill-rule:evenodd;clip-rule:evenodd;fill:#ED7203;}
	.st1{fill:#939393;}
	.st2{fill:#4565AC;}
	.st3{fill-rule:evenodd;clip-rule:evenodd;fill:#4565AC;}
</style>
<g>
	<path class="st0" d="M113.6,25.6c0.6,0,1.1,0.4,1.1,1l0,3.5h-0.8v-3.3c0-0.3-0.2-0.5-0.5-0.5h-1.7v-0.6H113.6L113.6,25.6z
		 M111.1,27.6h2.3v0.6h-2.3V30h-0.8v-4.4h0.8V27.6L111.1,27.6z M121.2,28.9c0,0.3,0.2,0.5,0.5,0.5h2.6V30h-2.9c-0.6,0-1.1-0.4-1.1-1
		v-2.5c0-0.5,0.5-1,1.1-1h2.9v0.6h-2.6c-0.3,0-0.5,0.2-0.5,0.5V28.9L121.2,28.9z M126.3,26.2c-0.1,0-0.2,0.1-0.2,0.2v1.1h2.7v0.6
		h-2.7v1.1c0,0.1,0.1,0.2,0.2,0.2h2.9V30h-3.6c-0.2,0-0.3-0.1-0.3-0.3v-3.8c0-0.2,0.1-0.3,0.3-0.3h3.6v0.6H126.3L126.3,26.2z
		 M116.6,29.2c0,0.1,0.1,0.2,0.2,0.2h2.9V30h-3.5c-0.2,0-0.3-0.1-0.3-0.3l0-4.1h0.8V29.2L116.6,29.2z M133.8,28.7
		C133.8,28.7,133.8,28.6,133.8,28.7l0.1-3.1h0.8V30h-0.4c-0.1,0-0.3-0.1-0.3-0.1l-2.7-3c-0.1,0-0.1,0-0.1,0V30h-0.8v-4.1v-0.3h0.4
		c0.1,0,0.3,0.1,0.3,0.1L133.8,28.7L133.8,28.7z"/>
	<path class="st1" d="M162.6,28.5h-25.7v-1h25.7V28.5z M108,28.5H0v-1h108V28.5z M162.6,1H0V0h162.6V1z"/>
	<path class="st2" d="M46.6,18.4c0,0.3,0.2,0.5,0.5,0.5h8.2v1.8c0,0-9.8,0-10.1,0c-0.5,0-1-0.4-1-0.9c0-0.3,0-11.8,0-11.8h2.3V18.4
		L46.6,18.4z"/>
	<path class="st2" d="M74.1,9.8c-0.3,0-0.5,0.2-0.5,0.5v3.2h7.7v1.8h-7.7v3.2c0,0.3,0.2,0.5,0.5,0.5h8.4v1.8c0,0-10.3,0-10.3,0
		c-0.5,0-1-0.4-1-0.9c0-0.1,0-10.8,0-10.9c0-0.5,0.4-0.9,1-0.9c0.1,0,10.3,0,10.3,0v1.8H74.1L74.1,9.8z"/>
	<path class="st2" d="M59.5,17.5c0,0.8,0.7,1.4,1.6,1.4h7.4v1.8c0,0-7.8,0-8.3,0c-1.7,0-3-1.2-3-2.7c0-0.1,0-7.1,0-7.2
		c0-1.5,1.3-2.7,3-2.7c0.4,0,8.3,0,8.3,0v1.8h-7.4c-0.9,0-1.6,0.6-1.6,1.4V17.5L59.5,17.5z"/>
	<path class="st3" d="M95.8,11.5c0-1-0.9-1.8-2-1.8h-4.6c-0.3,0-0.5,0.2-0.5,0.5l0,8.7l5.1,0c1.1,0,2-0.8,2-1.8V11.5L95.8,11.5z
		 M94.3,8c2.1,0,3.8,1.6,3.8,3.5v5.7c0,1.9-1.7,3.5-3.8,3.5l-7.9,0V8.9c0-0.5,0.4-0.9,1-0.9H94.3L94.3,8z"/>
	<polygon class="st2" points="103.5,20.7 101.2,20.7 101.2,8 103.5,8 103.5,20.7 	"/>
	<path class="st2" d="M131.6,8c1.7,0,3,1.2,3,2.7v1h-2.3v-0.5c0-0.8-0.7-1.4-1.6-1.4h-4.3c-0.9,0-1.6,0.6-1.6,1.4v6.3
		c0,0.8,0.7,1.4,1.6,1.4h4.3c0.9,0,1.6-0.6,1.6-1.4v-1.4c0-0.3-0.2-0.5-0.5-0.5h-2.2v-1.8h4.1c0.5,0,1,0.4,1,0.9v3.2
		c0,1.5-1.3,2.7-3,2.7h-6c-1.7,0-3-1.2-3-2.7v-7.2c0-1.5,1.3-2.7,3-2.7H131.6L131.6,8z"/>
	<path class="st3" d="M117,13.9h-8v-3.6c0-0.3,0.2-0.5,0.5-0.5h5.9c0.9,0,1.6,0.6,1.6,1.4V13.9L117,13.9z M116.3,8
		c1.7,0,3,1.2,3,2.7v10H117v-5h-8v5h-2.3V8.9c0-0.5,0.4-0.9,1-0.9H116.3L116.3,8z"/>
	<path class="st3" d="M38.7,13.9h-8v-3.6c0-0.3,0.2-0.5,0.5-0.5h5.9c0.9,0,1.6,0.6,1.6,1.4V13.9L38.7,13.9z M38,8c1.7,0,3,1.2,3,2.7
		v10h-2.3v-5h-8v5h-2.3V8.9c0-0.5,0.4-0.9,1-0.9H38L38,8z"/>
</g>
</svg>
