<?xml version="1.0" encoding="utf-8"?>
<!-- Generator: Adobe Illustrator 21.1.0, SVG Export Plug-In . SVG Version: 6.00 Build 0)  -->
<svg version="1.1" id="Calque_1" xmlns="http://www.w3.org/2000/svg" xmlns:xlink="http://www.w3.org/1999/xlink" x="0px" y="0px"
	 viewBox="0 0 175.7 30" style="enable-background:new 0 0 175.7 30;" xml:space="preserve">
<style type="text/css">
	.st0{fill-rule:evenodd;clip-rule:evenodd;fill:#EB7405;}
	.st1{fill:#929496;}
	.st2{fill-rule:evenodd;clip-rule:evenodd;fill:#4066A9;}
	.st3{fill:#4066A9;}
</style>
<g>
	<path class="st0" d="M126.7,25.6c0.6,0,1.1,0.4,1.1,1l0,3.5H127v-3.3c0-0.3-0.2-0.5-0.5-0.5h-1.7v-0.6H126.7L126.7,25.6z
		 M124.2,27.6h2.3v0.6h-2.3V30h-0.8v-4.4h0.8V27.6L124.2,27.6z M134.3,28.9c0,0.3,0.2,0.5,0.5,0.5h2.6V30h-2.9c-0.6,0-1.1-0.4-1.1-1
		v-2.5c0-0.5,0.5-1,1.1-1h2.9v0.6h-2.6c-0.3,0-0.5,0.2-0.5,0.5V28.9L134.3,28.9z M139.4,26.2c-0.1,0-0.2,0.1-0.2,0.2v1.1h2.7v0.6
		h-2.7v1.1c0,0.1,0.1,0.2,0.2,0.2h2.9V30h-3.6c-0.2,0-0.3-0.1-0.3-0.3v-3.8c0-0.2,0.1-0.3,0.3-0.3h3.6v0.6H139.4L139.4,26.2z
		 M129.7,29.2c0,0.1,0.1,0.2,0.2,0.2h2.9V30h-3.5c-0.2,0-0.3-0.1-0.3-0.3l0-4.1h0.8V29.2L129.7,29.2z M146.9,28.7
		C146.9,28.7,146.9,28.6,146.9,28.7l0.1-3.1h0.8V30h-0.4c-0.1,0-0.3-0.1-0.3-0.1l-2.7-3c-0.1,0-0.1,0-0.1,0l0,3.1h-0.8v-4.1v-0.3
		h0.4c0.1,0,0.3,0.1,0.3,0.1L146.9,28.7L146.9,28.7z"/>
	<path class="st1" d="M175.7,27.9H150v-1h25.7V27.9z M121.1,27.9H0v-1h121.1V27.9z M175.7,1H0V0h175.7V1z"/>
	<g>
		<path class="st2" d="M137.8,13.5v-3.2c0-0.3,0.2-0.5,0.5-0.5h4.3c0.9,0,1.6,0.6,1.6,1.4v0.9c0,0.8-0.7,1.4-1.6,1.4H137.8
			L137.8,13.5z M137.8,15.2h6.1c0.9,0,1.6,0.6,1.6,1.4v0.9c0,0.8-0.7,1.4-1.6,1.4h-6.1V15.2L137.8,15.2z M143.5,8c1.7,0,3,1.2,3,2.7
			v1.8c0,0.5-0.1,0.9-0.3,1.3c1,0.5,1.6,1.4,1.6,2.4V18c0,1.5-1.3,2.7-3,2.7h-9.3V8.9c0-0.5,0.4-0.9,1-0.9H143.5L143.5,8z"/>
		<path class="st3" d="M109,8v10.5c0,0.3,0.2,0.5,0.5,0.5h8.4v1.8h-10.3c-0.5,0-1-0.4-1-0.9V8H109L109,8z"/>
		<path class="st2" d="M130.2,13.9h-8v-3.6c0-0.3,0.2-0.5,0.5-0.5h5.9c0.9,0,1.6,0.6,1.6,1.4V13.9L130.2,13.9z M129.5,8
			c1.7,0,3,1.2,3,2.7v10h-2.3v-5h-8v5h-2.3V8.9c0-0.5,0.4-0.9,1-0.9H129.5L129.5,8z"/>
		<g>
			<path class="st3" d="M30.7,17.5c0,0.8,0.7,1.4,1.6,1.4h4.3c0.9,0,1.6-0.6,1.6-1.4v-0.9c0-0.8-0.7-1.4-1.6-1.4h-5.1
				c-1.7,0-3-1.2-3-2.7v-1.8c0-1.5,1.3-2.7,3-2.7h6c1.7,0,3,1.2,3,2.7v0.4h-2.3c0-0.8-0.7-1.4-1.6-1.4h-4.3c-0.9,0-1.6,0.6-1.6,1.4
				v0.9c0,0.8,0.7,1.4,1.6,1.4h5.1c1.7,0,3,1.2,3,2.7V18c0,1.5-1.3,2.7-3,2.7h-6c-1.7,0-3-1.2-3-2.7v-0.4H30.7L30.7,17.5z"/>
			<path class="st3" d="M49.3,15.3c-0.1,0.2-0.2,0.4-0.2,0.6l0,4.9h-2.4v-4.9c0-0.2-0.1-0.4-0.2-0.6L41.5,8h2.7l3.7,5.3L51.7,8h2.7
				L49.3,15.3L49.3,15.3z"/>
			<path class="st2" d="M74,13.5v-3.2c0-0.3,0.2-0.5,0.5-0.5h4.3c0.9,0,1.6,0.6,1.6,1.4v0.9c0,0.8-0.7,1.4-1.6,1.4H74L74,13.5z
				 M74,15.2H80c0.9,0,1.6,0.6,1.6,1.4v0.9c0,0.8-0.7,1.4-1.6,1.4H74V15.2L74,15.2z M79.6,8c1.7,0,3,1.2,3,2.7v1.8
				c0,0.5-0.1,0.9-0.3,1.3c1,0.5,1.6,1.4,1.6,2.4V18c0,1.5-1.3,2.7-3,2.7h-9.3V8.9c0-0.5,0.4-0.9,1-0.9H79.6L79.6,8z"/>
			<path class="st2" d="M94,17.5c0,0.8,0.7,1.4,1.6,1.4h4.3c0.9,0,1.6-0.6,1.6-1.4v-6.3c0-0.8-0.7-1.4-1.6-1.4h-4.3
				c-0.9,0-1.6,0.6-1.6,1.4V17.5L94,17.5z M94.7,20.7c-1.7,0-3-1.2-3-2.7v-7.2c0-1.5,1.3-2.7,3-2.7h6c1.7,0,3,1.2,3,2.7V18
				c0,1.5-1.3,2.7-3,2.7H94.7L94.7,20.7z"/>
			<polygon class="st3" points="88.6,20.7 86.3,20.7 86.3,8 88.6,8 88.6,20.7 			"/>
		</g>
		<path class="st3" d="M66.1,16.7c0-0.1,0-8.7,0-8.7h2.3v12.7c0,0-0.5,0-1.2,0c-0.4,0-0.8-0.2-1-0.4l-7.6-8.4c0,0-0.1,0-0.1,0
			c-0.1,0-0.1,0.1-0.1,0.1c0,0.1,0,8.7,0,8.7h-2.3V8c0,0,0.5,0,1.2,0c0.4,0,0.8,0.2,1,0.4l7.6,8.4c0,0,0.1,0,0.1,0
			C66.1,16.9,66.1,16.8,66.1,16.7L66.1,16.7z"/>
	</g>
</g>
</svg>
