<?xml version="1.0" encoding="utf-8"?>
<!-- Generator: Adobe Illustrator 21.1.0, SVG Export Plug-In . SVG Version: 6.00 Build 0)  -->
<svg version="1.1" id="Calque_1" xmlns="http://www.w3.org/2000/svg" xmlns:xlink="http://www.w3.org/1999/xlink" x="0px" y="0px"
	 viewBox="0 0 173.9 30" style="enable-background:new 0 0 173.9 30;" xml:space="preserve">
<style type="text/css">
	.st0{fill-rule:evenodd;clip-rule:evenodd;fill:#ED7203;}
	.st1{fill:#939393;}
	.st2{fill:#4565AC;}
	.st3{fill-rule:evenodd;clip-rule:evenodd;fill:#4565AC;}
</style>
<g>
	<g>
		<path class="st0" d="M124.9,25.6c0.6,0,1.1,0.4,1.1,1l0,3.5h-0.8v-3.3c0-0.3-0.2-0.5-0.5-0.5h-1.7v-0.6H124.9L124.9,25.6z
			 M122.3,27.6h2.3v0.6h-2.3V30h-0.8v-4.4h0.8V27.6L122.3,27.6z M132.5,28.9c0,0.3,0.2,0.5,0.5,0.5h2.6V30h-2.9
			c-0.6,0-1.1-0.4-1.1-1v-2.5c0-0.5,0.5-1,1.1-1h2.9v0.6H133c-0.3,0-0.5,0.2-0.5,0.5V28.9L132.5,28.9z M137.6,26.2
			c-0.1,0-0.2,0.1-0.2,0.2v1.1h2.7v0.6h-2.7v1.1c0,0.1,0.1,0.2,0.2,0.2h2.9V30h-3.6c-0.2,0-0.3-0.1-0.3-0.3v-3.8
			c0-0.2,0.1-0.3,0.3-0.3h3.6v0.6H137.6L137.6,26.2z M127.9,29.2c0,0.1,0.1,0.2,0.2,0.2h2.9V30h-3.5c-0.2,0-0.3-0.1-0.3-0.3l0-4.1
			h0.8V29.2L127.9,29.2z M145.1,28.7C145.1,28.7,145.1,28.6,145.1,28.7l0.1-3.1h0.8V30h-0.4c-0.1,0-0.3-0.1-0.3-0.1l-2.7-3
			c-0.1,0-0.1,0-0.1,0V30h-0.8v-4.1v-0.3h0.4c0.1,0,0.3,0.1,0.3,0.1L145.1,28.7L145.1,28.7z"/>
		<path class="st1" d="M173.9,28.7h-25.7v-1h25.7V28.7z M119.3,28.7H0v-1h119.3V28.7z M173.9,1H0V0h173.9V1z"/>
	</g>
	<path class="st2" d="M46.2,8v10.5c0,0.3,0.2,0.5,0.5,0.5h8.4v1.8H44.8c-0.5,0-1-0.4-1-0.9V8H46.2L46.2,8z"/>
	<path class="st2" d="M59.5,17.5c0,0.8,0.7,1.4,1.6,1.4h4.3c0.9,0,1.6-0.6,1.6-1.4v-0.9c0-0.8-0.7-1.4-1.6-1.4h-5.1
		c-1.7,0-3-1.2-3-2.7v-1.8c0-1.5,1.3-2.7,3-2.7h6c1.7,0,3,1.2,3,2.7v0.4h-2.3c0-0.8-0.7-1.4-1.6-1.4H61c-0.9,0-1.6,0.6-1.6,1.4V12
		c0,0.8,0.7,1.4,1.6,1.4h5.1c1.7,0,3,1.2,3,2.7v1.8c0,1.5-1.3,2.7-3,2.7h-6c-1.7,0-3-1.2-3-2.7v-0.4H59.5L59.5,17.5z"/>
	<path class="st3" d="M38.3,13.9h-8v-3.6c0-0.3,0.2-0.5,0.5-0.5h5.9c0.9,0,1.6,0.6,1.6,1.4V13.9L38.3,13.9z M37.6,8
		c1.7,0,3,1.2,3,2.7l0,10h-2.3l0-5h-8v5h-2.3V8.9c0-0.5,0.4-0.9,1-0.9H37.6L37.6,8z"/>
	<path class="st2" d="M74.9,9.8c-0.3,0-0.5,0.2-0.5,0.5v3.2H82v1.8h-7.7v3.2c0,0.3,0.2,0.5,0.5,0.5h8.4v1.8H73c-0.5,0-1-0.4-1-0.9
		V8.9C72,8.4,72.4,8,73,8h10.3v1.8H74.9L74.9,9.8z"/>
	<path class="st2" d="M104.6,11.7C104.6,11.7,104.6,11.6,104.6,11.7c-0.2,0-0.2,0-0.2,0.1v8.9c-0.1,0-2.3,0-2.3,0V8h1.2
		c0.4,0,0.8,0.2,1,0.4l4.5,5l4.5-5c0.2-0.2,0.6-0.4,1-0.4h1.2v12.7c0,0-2.3,0-2.3,0v-8.9c0-0.1-0.1-0.1-0.1-0.1c0,0-0.1,0-0.1,0
		l-3.4,3.8H108L104.6,11.7L104.6,11.7z"/>
	<path class="st3" d="M96.5,13.9h-8v-3.6c0-0.3,0.2-0.5,0.5-0.5H95c0.9,0,1.6,0.6,1.6,1.4V13.9L96.5,13.9z M95.9,8
		c1.7,0,3,1.2,3,2.7l0,10h-2.3l0-5h-8v5h-2.3V8.9c0-0.5,0.4-0.9,1-0.9H95.9L95.9,8z"/>
	<path class="st3" d="M128.9,13.9h-8v-3.6c0-0.3,0.2-0.5,0.5-0.5h5.9c0.9,0,1.6,0.6,1.6,1.4V13.9L128.9,13.9z M128.2,8
		c1.7,0,3,1.2,3,2.7v10h-2.3v-5h-8v5h-2.3V8.9c0-0.5,0.4-0.9,1-0.9H128.2L128.2,8z"/>
	<path class="st3" d="M142.1,9.8c0.9,0,1.6,0.6,1.6,1.4V12c0,0.8-0.7,1.4-1.6,1.4h-5.2l0-3.2c0-0.3,0.2-0.5,0.5-0.5H142.1L142.1,9.8
		z M142.8,15.2l3.2,5.5h-2.3l-2.7-4.7c-0.3-0.4-0.8-0.8-1.4-0.8h-2.7v5.5h-2.3V8.9c0-0.5,0.4-0.9,1-0.9h7.5c1.7,0,3,1.2,3,2.7v1.8
		c0,1.5-1.3,2.7-3,2.7H142.8L142.8,15.2z"/>
</g>
</svg>
