<?xml version="1.0" encoding="utf-8"?>
<!-- Generator: Adobe Illustrator 15.0.2, SVG Export Plug-In . SVG Version: 6.00 Build 0)  -->
<!DOCTYPE svg PUBLIC "-//W3C//DTD SVG 1.1//EN" "http://www.w3.org/Graphics/SVG/1.1/DTD/svg11.dtd">
<svg version="1.1" xmlns="http://www.w3.org/2000/svg" xmlns:xlink="http://www.w3.org/1999/xlink" x="0px" y="0px"
	 width="497.49px" height="98.234px" viewBox="0 0 497.49 98.234" enable-background="new 0 0 497.49 98.234" xml:space="preserve">
<g id="Power" display="none">
	<g display="inline">
		<rect x="-51.177" y="88.504" fill="#949597" width="336.715" height="1.588"/>
		<path fill-rule="evenodd" clip-rule="evenodd" fill="#EC7404" d="M330.425,81.396c1.325,0,2.398,0.965,2.398,2.154v1.367
			c0,1.189-1.073,2.154-2.398,2.154h-8.075v-4.941c0-0.404,0.351-0.734,0.783-0.734H330.425L330.425,81.396z M331.584,89.814
			l4.861,8.418h-3.617l-4.192-7.26c-0.399-0.689-1.202-1.158-2.127-1.158h-4.159v8.418h-3.621V80.027
			c0-0.758,0.657-1.371,1.468-1.371h11.599c2.568,0,4.65,1.885,4.65,4.209v2.74c0,2.322-2.082,4.209-4.65,4.209H331.584
			L331.584,89.814z"/>
		<path fill="#EC7404" d="M378.734,92.139c0-0.109,0-13.482,0-13.482h3.621v19.576c0,0-0.811,0-1.811,0
			c-0.622,0-1.172-0.238-1.498-0.6l-11.718-13.004c-0.035-0.041-0.087-0.066-0.145-0.066c-0.108,0-0.195,0.088-0.195,0.195
			c0,0.111,0,13.475,0,13.475h-3.622V78.656c0,0,0.811,0,1.811,0c0.624,0,1.172,0.238,1.498,0.602l11.718,13.012
			c0.036,0.041,0.087,0.064,0.144,0.064C378.646,92.334,378.734,92.246,378.734,92.139L378.734,92.139z"/>
		<path fill="#EC7404" d="M399.281,93.338c0,1.189,1.073,2.154,2.398,2.154h11.403v2.74h-12.774c-2.567,0-4.648-1.885-4.648-4.209
			V82.865c0-2.324,2.081-4.209,4.648-4.209h12.774v2.74H401.68c-1.325,0-2.398,0.965-2.398,2.154V93.338L399.281,93.338z"/>
		<path fill-rule="evenodd" clip-rule="evenodd" fill="#EC7404" d="M343.766,93.338c0,1.189,1.072,2.154,2.396,2.154h6.559
			c1.324,0,2.397-0.965,2.397-2.154v-9.787c0-1.189-1.073-2.154-2.397-2.154h-6.559c-1.324,0-2.396,0.965-2.396,2.154V93.338
			L343.766,93.338z M344.793,98.232c-2.568,0-4.649-1.885-4.649-4.209V82.865c0-2.324,2.081-4.209,4.649-4.209h9.298
			c2.567,0,4.649,1.885,4.649,4.209v11.158c0,2.324-2.082,4.209-4.649,4.209H344.793L344.793,98.232z"/>
		<polygon fill="#EC7404" points="307.959,98.232 304.339,98.232 304.339,81.396 297,81.396 297,78.656 315.303,78.656 
			315.303,81.396 307.959,81.396 307.959,98.232 		"/>
		<path fill-rule="evenodd" clip-rule="evenodd" fill="#EC7404" d="M420.03,93.338c0,1.189,1.073,2.154,2.398,2.154h6.559
			c1.324,0,2.397-0.965,2.397-2.154v-9.785c0-1.191-1.073-2.154-2.397-2.154h-6.559c-1.325,0-2.398,0.963-2.398,2.154V93.338
			L420.03,93.338z M421.059,98.234c-2.568,0-4.648-1.887-4.648-4.209V82.867c0-2.326,2.08-4.209,4.648-4.209h9.299
			c2.566,0,4.648,1.883,4.648,4.209v11.158c0,2.322-2.082,4.209-4.648,4.209H421.059L421.059,98.234z"/>
		<polygon fill="#EC7404" points="390.971,98.234 387.349,98.234 387.349,78.658 390.971,78.658 390.971,98.234 		"/>
		<polygon fill="#949597" points="-19.437,56.697 -29.925,56.697 -29.925,7.943 -51.177,7.943 -51.177,0.006 1.831,0.006 
			1.831,7.943 -19.437,7.943 -19.437,56.697 		"/>
		<g>
			<path fill="#949597" d="M33.389,13.012H4.729c-2.275,0-4.127,1.758-4.127,3.918v39.768h9.712V40.231h24.261v16.466h9.713V22.974
				C44.288,17.48,39.398,13.012,33.389,13.012z M34.576,24.434v7.961H10.314V21.41c0-0.311,0.299-0.562,0.667-0.562h19.489
				C32.734,20.848,34.576,22.456,34.576,24.434z"/>
			<path fill="#949597" d="M425.354,38.713c5.424-0.566,9.651-4.787,9.651-9.893v-5.828c0-5.491-4.888-9.959-10.896-9.959h-24.686
				c-2.274,0-4.124,1.758-4.124,3.917v39.747h9.708v-17.92h7.849c1.555,0,2.958,0.754,3.662,1.969l9.211,15.951h10.008
				L425.354,38.713z M425.3,24.449v2.913c0,1.975-1.841,3.581-4.104,3.581h-16.187V21.43c0-0.311,0.299-0.562,0.666-0.562h15.521
				C423.459,20.867,425.3,22.475,425.3,24.449z"/>
			<path fill="#949597" d="M348.828,16.95v35.83c0,2.159,1.851,3.917,4.125,3.917h34.955v-7.834h-28.706
				c-0.361,0-0.666-0.233-0.666-0.51v-9.57h25.205v-7.836h-25.205v-9.57c0-0.276,0.305-0.51,0.666-0.51h28.706v-7.834h-34.955
				C350.679,13.033,348.828,14.791,348.828,16.95z"/>
			<path fill="#949597" d="M106.756,16.93v35.85c0,2.16,1.852,3.918,4.127,3.918h34.974V48.86h-28.721
				c-0.362,0-0.668-0.233-0.668-0.511v-9.576h25.22v-7.838h-25.22v-9.577c0-0.276,0.306-0.511,0.668-0.511h28.721v-7.836h-34.974
				C108.607,13.012,106.756,14.77,106.756,16.93z"/>
			<path fill="#949597" d="M89.519,14.584l-14.027,15.56L61.497,14.598c-0.903-1.004-2.373-1.604-3.932-1.604H52.71v43.68
				l0.995,0.006c0,0,3.318,0.018,5.605,0.018c2.076,0,2.159-0.014,2.264-0.029l0.848-0.131V27.965l10.467,11.623h5.202L88.56,27.966
				v28.571l0.848,0.131c0.104,0.016,0.187,0.029,2.263,0.029c2.287,0,5.606-0.018,5.606-0.018l0.995-0.006v-43.68h-4.856
				C91.855,12.994,90.436,13.572,89.519,14.584z"/>
			<path fill="#949597" d="M268.655,13.033h-19.79c-6.008,0-10.896,4.467-10.896,9.957v23.748c0,5.491,4.888,9.959,10.896,9.959
				h19.79c6.007,0,10.895-4.468,10.895-9.959V22.99C279.55,17.5,274.662,13.033,268.655,13.033z M269.843,24.448v20.831
				c0,1.977-1.841,3.584-4.104,3.584h-13.957c-2.263,0-4.104-1.607-4.104-3.584V24.448c0-1.976,1.841-3.582,4.104-3.582h13.957
				C268.002,20.866,269.843,22.473,269.843,24.448z"/>
			<path fill="#949597" d="M326.964,40.109l-8.798-27.074h-8.431l-8.812,27.07l-8.796-27.07h-9.552l0.426,1.309
				c0,0,13.106,40.326,13.188,40.578c0.343,1.062,1.322,1.775,2.438,1.775h4.606c1.114,0,2.095-0.712,2.438-1.768
				c0.04-0.121,5.93-18.25,8.278-25.479c2.346,7.217,8.22,25.293,8.277,25.472c0.343,1.062,1.322,1.774,2.439,1.774h4.605
				c1.115,0,2.096-0.713,2.438-1.775c0.066-0.202,13.188-40.578,13.188-40.578l0.426-1.309h-9.551L326.964,40.109z"/>
		</g>
		<polygon fill="#949597" points="161.108,36.279 153.796,36.279 153.796,31.509 172.036,31.509 172.036,36.279 164.718,36.279 		
			"/>
		<path fill-rule="evenodd" clip-rule="evenodd" fill="#949597" d="M215.864,7.941c3.836,0,6.945,2.793,6.945,6.236v3.964
			c0,3.442-3.109,6.235-6.945,6.235h-23.387v-14.31c0-1.174,1.016-2.126,2.268-2.126H215.864L215.864,7.941z M219.832,0.004
			c7.437,0,13.465,5.459,13.465,12.189v7.931c0,6.732-6.028,12.189-13.465,12.189h-27.354v24.385h-10.488V3.973
			c0-2.19,1.904-3.969,4.252-3.969H219.832L219.832,0.004z"/>
	</g>
</g>
<g id="Data">
	<g>
		<rect y="88.504" fill="#949597" width="348.022" height="1.588"/>
		<path fill-rule="evenodd" clip-rule="evenodd" fill="#EC7404" d="M392.909,81.396c1.325,0,2.398,0.965,2.398,2.154v1.367
			c0,1.189-1.073,2.154-2.398,2.154h-8.075v-4.941c0-0.404,0.351-0.734,0.783-0.734H392.909L392.909,81.396z M394.068,89.814
			l4.861,8.418h-3.617l-4.192-7.26c-0.399-0.689-1.202-1.158-2.127-1.158h-4.159v8.418h-3.621V80.027
			c0-0.758,0.657-1.371,1.468-1.371h11.599c2.568,0,4.65,1.885,4.65,4.209v2.74c0,2.322-2.082,4.209-4.65,4.209H394.068
			L394.068,89.814z"/>
		<path fill="#EC7404" d="M441.219,92.139c0-0.109,0-13.482,0-13.482h3.621v19.576c0,0-0.811,0-1.811,0
			c-0.622,0-1.172-0.238-1.498-0.6l-11.718-13.004c-0.035-0.041-0.087-0.066-0.145-0.066c-0.108,0-0.195,0.088-0.195,0.195
			c0,0.111,0,13.475,0,13.475h-3.622V78.656c0,0,0.811,0,1.811,0c0.624,0,1.172,0.238,1.498,0.602l11.718,13.012
			c0.036,0.041,0.087,0.064,0.144,0.064C441.131,92.334,441.219,92.246,441.219,92.139L441.219,92.139z"/>
		<path fill="#EC7404" d="M461.766,93.338c0,1.189,1.073,2.154,2.398,2.154h11.403v2.74h-12.774c-2.567,0-4.648-1.885-4.648-4.209
			V82.865c0-2.324,2.081-4.209,4.648-4.209h12.774v2.74h-11.403c-1.325,0-2.398,0.965-2.398,2.154V93.338L461.766,93.338z"/>
		<path fill-rule="evenodd" clip-rule="evenodd" fill="#EC7404" d="M406.25,93.338c0,1.189,1.072,2.154,2.396,2.154h6.559
			c1.324,0,2.397-0.965,2.397-2.154v-9.787c0-1.189-1.073-2.154-2.397-2.154h-6.559c-1.324,0-2.396,0.965-2.396,2.154V93.338
			L406.25,93.338z M407.277,98.232c-2.568,0-4.649-1.885-4.649-4.209V82.865c0-2.324,2.081-4.209,4.649-4.209h9.298
			c2.567,0,4.649,1.885,4.649,4.209v11.158c0,2.324-2.082,4.209-4.649,4.209H407.277L407.277,98.232z"/>
		<polygon fill="#EC7404" points="370.443,98.232 366.823,98.232 366.823,81.396 359.484,81.396 359.484,78.656 377.787,78.656 
			377.787,81.396 370.443,81.396 370.443,98.232 		"/>
		<path fill-rule="evenodd" clip-rule="evenodd" fill="#EC7404" d="M482.515,93.338c0,1.189,1.073,2.154,2.398,2.154h6.559
			c1.324,0,2.397-0.965,2.397-2.154v-9.785c0-1.191-1.073-2.154-2.397-2.154h-6.559c-1.325,0-2.398,0.963-2.398,2.154V93.338
			L482.515,93.338z M483.543,98.234c-2.568,0-4.648-1.887-4.648-4.209V82.867c0-2.326,2.08-4.209,4.648-4.209h9.299
			c2.566,0,4.648,1.883,4.648,4.209v11.158c0,2.322-2.082,4.209-4.648,4.209H483.543L483.543,98.234z"/>
		<polygon fill="#EC7404" points="453.455,98.234 449.833,98.234 449.833,78.658 453.455,78.658 453.455,98.234 		"/>
		<g>
			<polygon fill="#949597" points="31.74,56.697 21.252,56.697 21.252,7.943 0,7.943 0,0.006 53.008,0.006 53.008,7.943 
				31.74,7.943 31.74,56.697 			"/>
			<path fill="#949597" d="M84.565,13.012H55.906c-2.275,0-4.127,1.758-4.127,3.918v39.768h9.712V40.231h24.261v16.466h9.713V22.974
				C95.465,17.48,90.575,13.012,84.565,13.012z M85.753,24.434v7.961H61.491V21.41c0-0.311,0.299-0.562,0.667-0.562h19.489
				C83.911,20.848,85.753,22.456,85.753,24.434z"/>
			<path fill="#949597" d="M157.933,16.93v35.85c0,2.16,1.852,3.918,4.127,3.918h34.974V48.86h-28.721
				c-0.362,0-0.668-0.233-0.668-0.511v-9.576h25.22v-7.838h-25.22v-9.577c0-0.276,0.306-0.511,0.668-0.511h28.721v-7.836H162.06
				C159.784,13.012,157.933,14.77,157.933,16.93z"/>
			<path fill="#949597" d="M140.695,14.584l-14.027,15.56l-13.994-15.546c-0.903-1.004-2.373-1.604-3.932-1.604h-4.855v43.68
				l0.995,0.006c0,0,3.318,0.018,5.605,0.018c2.076,0,2.159-0.014,2.264-0.029l0.848-0.131V27.965l10.467,11.623h5.202
				l10.469-11.622v28.571l0.848,0.131c0.104,0.016,0.187,0.029,2.263,0.029c2.287,0,5.606-0.018,5.606-0.018l0.995-0.006v-43.68
				h-4.856C143.032,12.994,141.612,13.572,140.695,14.584z"/>
			<polygon fill="#949597" points="212.285,36.279 204.973,36.279 204.973,31.509 223.213,31.509 223.213,36.279 215.895,36.279 			
				"/>
			<g>
				<path fill="#949597" d="M281.615,56.691c-0.946,0-1.748-0.616-2.023-1.471c-0.066-0.206-12.56-38.646-12.56-38.646
					s-12.491,38.442-12.558,38.648c-0.277,0.853-1.081,1.468-2.026,1.468h-6.267c-0.946,0-1.748-0.617-2.024-1.472
					C244.091,55.014,226.213,0,226.213,0h10.134l11.988,36.896c0.062,0.412,0.477,0.785,0.98,0.785c0.503,0,0.918-0.373,0.983-0.858
					L262.284,0h3.248h3h3.248l11.99,36.899c0.065,0.413,0.479,0.782,0.979,0.782s0.914-0.369,0.982-0.851L297.717,0h10.134
					c0,0-17.879,55.015-17.945,55.22c-0.276,0.854-1.078,1.472-2.024,1.472H281.615L281.615,56.691z"/>
				<path fill="#949597" d="M361.541,16.935v35.85c0,2.16,1.852,3.918,4.127,3.918h34.973v-7.837H371.92
					c-0.361,0-0.668-0.233-0.668-0.511v-9.576h25.221V30.94h-25.221v-9.577c0-0.276,0.307-0.511,0.668-0.511h28.721v-7.836h-34.973
					C363.393,13.017,361.541,14.774,361.541,16.935z"/>
				<path fill="#949597" d="M458.391,16.935v35.85c0,2.16,1.852,3.918,4.127,3.918h34.973v-7.837H468.77
					c-0.361,0-0.668-0.233-0.668-0.511v-9.576h25.221V30.94h-25.221v-9.577c0-0.276,0.307-0.511,0.668-0.511h28.721v-7.836h-34.973
					C460.242,13.017,458.391,14.774,458.391,16.935z"/>
				<path fill="#949597" d="M439.379,38.707c5.424-0.566,9.65-4.787,9.65-9.893v-5.828c0-5.491-4.887-9.959-10.895-9.959h-24.686
					c-2.275,0-4.125,1.758-4.125,3.917v39.747h9.709v-17.92h7.848c1.555,0,2.959,0.754,3.662,1.969l9.211,15.951h10.008
					L439.379,38.707z M439.324,24.443v2.913c0,1.975-1.842,3.581-4.105,3.581h-16.186v-9.514c0-0.311,0.299-0.562,0.666-0.562h15.52
					C437.482,20.861,439.324,22.469,439.324,24.443z"/>
				<polygon fill="#949597" points="353.255,12.987 353.255,56.691 343.369,56.691 343.369,38.778 320.301,38.778 320.301,56.691 
					310.589,56.691 310.589,12.987 320.301,12.987 320.301,30.94 343.369,30.94 343.369,12.987 353.255,12.987 				"/>
			</g>
		</g>
	</g>
</g>
</svg>
