<?xml version="1.0" encoding="utf-8"?>
<!-- Generator: Adobe Illustrator 21.1.0, SVG Export Plug-In . SVG Version: 6.00 Build 0)  -->
<svg version="1.1" id="Calque_1" xmlns="http://www.w3.org/2000/svg" xmlns:xlink="http://www.w3.org/1999/xlink" x="0px" y="0px"
	 viewBox="0 0 128.2 30" style="enable-background:new 0 0 128.2 30;" xml:space="preserve">
<style type="text/css">
	.st0{fill-rule:evenodd;clip-rule:evenodd;fill:#ED7203;}
	.st1{fill:#939393;}
	.st2{fill:#4565AC;}
	.st3{fill-rule:evenodd;clip-rule:evenodd;fill:#4565AC;}
</style>
<g>
	<path class="st0" d="M79.2,25.6c0.6,0,1.1,0.4,1.1,1V30h-0.8v-3.3c0-0.3-0.2-0.5-0.5-0.5h-1.7v-0.6H79.2L79.2,25.6z M76.6,27.6h2.3
		v0.6h-2.3V30h-0.8v-4.4h0.8V27.6L76.6,27.6z M86.7,28.9c0,0.3,0.2,0.5,0.5,0.5h2.6V30H87c-0.6,0-1.1-0.4-1.1-1v-2.5
		c0-0.5,0.5-1,1.1-1h2.9v0.6h-2.6c-0.3,0-0.5,0.2-0.5,0.5V28.9L86.7,28.9z M91.8,26.2c-0.1,0-0.2,0.1-0.2,0.2v1.1h2.7v0.6h-2.7v1.1
		c0,0.1,0.1,0.2,0.2,0.2h2.9V30h-3.6c-0.2,0-0.3-0.1-0.3-0.3v-3.8c0-0.2,0.1-0.3,0.3-0.3h3.6v0.6H91.8L91.8,26.2z M82.2,29.2
		c0,0.1,0.1,0.2,0.2,0.2h2.9V30h-3.5c-0.2,0-0.3-0.1-0.3-0.3l0-4.1h0.8V29.2L82.2,29.2z M99.3,28.7C99.4,28.7,99.4,28.6,99.3,28.7
		l0.1-3.1h0.8V30h-0.4c-0.1,0-0.3-0.1-0.3-0.1l-2.7-3c-0.1,0-0.1,0-0.1,0l0,3.1h-0.8v-4.1v-0.3h0.4c0.1,0,0.3,0.1,0.3,0.1L99.3,28.7
		L99.3,28.7z"/>
	<path class="st1" d="M128.2,28h-25.7v-1h25.7V28z M73.6,28H0v-1h73.6V28z M128.2,1H0V0h128.2V1z"/>
	<path class="st2" d="M78.1,9.8c-0.3,0-0.5,0.2-0.5,0.5v3.2h7.7v1.8h-7.7v3.2c0,0.3,0.2,0.5,0.5,0.5h8.4v1.8H76.2
		c-0.5,0-1-0.4-1-0.9V8.9c0-0.5,0.4-0.9,1-0.9h10.3v1.8H78.1L78.1,9.8z"/>
	<path class="st2" d="M50.6,9.8c-0.3,0-0.5,0.2-0.5,0.5v3.2h7.7v1.8h-7.7v3.2c0,0.3,0.2,0.5,0.5,0.5h8.4v1.8H48.7
		c-0.5,0-1-0.4-1-0.9V8.9c0-0.5,0.4-0.9,1-0.9h10.3v1.8H50.6L50.6,9.8z"/>
	<path class="st2" d="M64.3,8v10.5c0,0.3,0.2,0.5,0.5,0.5h8.4v1.8H62.9c-0.5,0-1-0.4-1-0.9V8H64.3L64.3,8z"/>
	<path class="st3" d="M41.1,9.8c0.9,0,1.6,0.6,1.6,1.4V12c0,0.8-0.7,1.4-1.6,1.4h-5.2v-3.2c0-0.3,0.2-0.5,0.5-0.5H41.1L41.1,9.8z
		 M41.8,15.2l3.2,5.5h-2.3L39.9,16c-0.3-0.4-0.8-0.8-1.4-0.8h-2.7v5.5h-2.3V8.9c0-0.5,0.4-0.9,1-0.9H42c1.7,0,3,1.2,3,2.7v1.8
		c0,1.5-1.3,2.7-3,2.7H41.8L41.8,15.2z"/>
	<path class="st2" d="M91.3,17.5c0,0.8,0.7,1.4,1.6,1.4h7.4v1.8H92c-1.7,0-3-1.2-3-2.7v-7.2C89,9.2,90.3,8,92,8h8.3v1.8h-7.4
		c-0.9,0-1.6,0.6-1.6,1.4V17.5L91.3,17.5z"/>
	<polygon class="st2" points="30.3,20.7 27.9,20.7 27.9,8 30.3,8 30.3,20.7 	"/>
</g>
</svg>
