<?xml version="1.0" encoding="utf-8"?>
<!-- Generator: Adobe Illustrator 21.1.0, SVG Export Plug-In . SVG Version: 6.00 Build 0)  -->
<svg version="1.1" id="Calque_1" xmlns="http://www.w3.org/2000/svg" xmlns:xlink="http://www.w3.org/1999/xlink" x="0px" y="0px"
	 viewBox="0 0 155.743 30.794" enable-background="new 0 0 155.743 30.794" xml:space="preserve">
<g>
	<path fill-rule="evenodd" clip-rule="evenodd" fill="#EE7203" d="M106.468,26.325c0.586,0,1.061,0.431,1.061,0.961l0,3.507h-0.826
		v-3.351c0-0.272-0.245-0.492-0.547-0.492h-1.749v-0.626H106.468L106.468,26.325z M103.888,28.403h2.296v0.625h-2.296v1.765h-0.827
		v-4.468h0.827V28.403L103.888,28.403z M114.053,29.677c0,0.271,0.245,0.492,0.547,0.492h2.603v0.625h-2.915
		c-0.586,0-1.061-0.43-1.061-0.961v-2.547c0-0.53,0.475-0.961,1.061-0.961h2.915v0.626H114.6c-0.302,0-0.547,0.22-0.547,0.492
		V29.677L114.053,29.677z M119.191,26.951c-0.099,0-0.179,0.073-0.179,0.162v1.134h2.703v0.626h-2.703v1.134
		c0,0.089,0.08,0.162,0.179,0.162h2.96v0.625h-3.631c-0.185,0-0.335-0.14-0.335-0.313v-3.843c0-0.173,0.15-0.313,0.335-0.313h3.631
		v0.626H119.191L119.191,26.951z M109.495,30.006c0,0.089,0.08,0.162,0.179,0.162h2.904v0.625h-3.568
		c-0.185,0-0.335-0.14-0.335-0.313l-0.007-4.156h0.826V30.006L109.495,30.006z M126.738,29.44c0.051,0.014,0.071-0.011,0.071-0.04
		v-3.075h0.827v4.468h-0.413c-0.142,0-0.268-0.054-0.342-0.137l-2.681-2.978c-0.051-0.014-0.07,0.011-0.07,0.04v3.075h-0.827v-4.163
		v-0.305h0.413c0.142,0,0.267,0.055,0.342,0.137L126.738,29.44L126.738,29.44z"/>
	<path fill="#949494" d="M155.743,29h-25.852v-1h25.852V29z M100.827,29H0v-1h100.827V29z M155.743,1H0V0h155.743V1z"/>
	<g>
		<path fill="#4565AD" d="M46.49,8.644V19.16c0,0.256,0.228,0.463,0.511,0.463h8.489v1.787H45.086c-0.529,0-0.957-0.4-0.957-0.894
			V8.644H46.49L46.49,8.644z"/>
		<path fill="#4565AD" d="M78.966,15.958c-0.112,0.16-0.178,0.358-0.178,0.573v4.879h-2.362v-4.879c0-0.215-0.066-0.414-0.178-0.574
			l-5.12-7.313h2.727l3.751,5.358l3.752-5.358h2.727L78.966,15.958L78.966,15.958z"/>
		<path fill="#4565AD" d="M88.909,12.373c-0.023-0.027-0.058-0.043-0.096-0.043c-0.071,0-0.128,0.057-0.128,0.128v8.952
			c-0.077,0.012-2.362,0-2.362,0V8.644h1.181c0.405,0,0.764,0.154,0.976,0.39l4.513,5.014l4.524-5.018
			c0.214-0.235,0.566-0.385,0.966-0.385h1.181V21.41c0,0-2.285,0.012-2.362,0v-8.952c0-0.071-0.057-0.128-0.128-0.128
			c-0.037,0-0.071,0.016-0.094,0.041l-3.427,3.805h-1.32L88.909,12.373L88.909,12.373z"/>
		<path fill="#4565AD" d="M59.83,18.218c0,0.775,0.7,1.404,1.564,1.404h4.277c0.864,0,1.564-0.629,1.564-1.404v-0.894
			c0-0.775-0.7-1.404-1.564-1.404H60.5c-1.674,0-3.032-1.229-3.032-2.744v-1.787c0-1.516,1.357-2.745,3.032-2.745h6.064
			c1.674,0,3.032,1.229,3.032,2.745v0.447h-2.362c0-0.776-0.7-1.404-1.564-1.404h-4.277c-0.864,0-1.564,0.629-1.564,1.404v0.894
			c0,0.776,0.7,1.404,1.564,1.404h5.171c1.674,0,3.032,1.229,3.032,2.745v1.787c0,1.516-1.357,2.745-3.032,2.745H60.5
			c-1.674,0-3.032-1.229-3.032-2.745v-0.447H59.83L59.83,18.218z"/>
		<path fill-rule="evenodd" clip-rule="evenodd" fill="#4565AD" d="M38.511,14.581h-8.043v-3.67c0-0.265,0.229-0.479,0.511-0.479
			h5.968c0.864,0,1.564,0.629,1.564,1.404V14.581L38.511,14.581z M37.841,8.644c1.675,0,3.032,1.229,3.032,2.745l0,10.022h-2.362
			l0-5.043h-8.043v5.043h-2.362V9.538c0-0.494,0.429-0.894,0.957-0.894H37.841L37.841,8.644z"/>
		<path fill="#4565AD" d="M105.766,10.434c-0.282,0-0.511,0.207-0.511,0.463v3.239h7.723v1.787h-7.723v3.239
			c0,0.256,0.229,0.463,0.511,0.463h8.489v1.788h-10.404c-0.529,0-0.957-0.4-0.957-0.894V9.54c0-0.493,0.429-0.893,0.957-0.893
			h10.404v1.787H105.766L105.766,10.434z"/>
		<path fill="#4565AD" d="M123.461,14.61c-0.083,0.119-0.132,0.264-0.132,0.42c0,0.156,0.049,0.301,0.132,0.42l4.175,5.963h-2.615
			l-3.162-4.516l-3.162,4.516h-2.615l4.173-5.961c0.084-0.119,0.134-0.265,0.134-0.423c0-0.156-0.049-0.302-0.133-0.421
			l-4.174-5.962h2.615l3.162,4.516l3.162-4.516h2.615L123.461,14.61L123.461,14.61z"/>
		<path fill="#4565AD" d="M79.029,15.96c-0.112,0.16-0.178,0.358-0.178,0.573l0,4.879H76.49l0-4.879
			c0-0.215-0.066-0.414-0.178-0.574l-5.12-7.313h2.727l3.751,5.357l3.752-5.357h2.727L79.029,15.96L79.029,15.96z"/>
	</g>
</g>
</svg>
