<?xml version="1.0" encoding="utf-8"?>
<!-- Generator: Adobe Illustrator 21.1.0, SVG Export Plug-In . SVG Version: 6.00 Build 0)  -->
<svg version="1.1" id="Calque_1" xmlns="http://www.w3.org/2000/svg" xmlns:xlink="http://www.w3.org/1999/xlink" x="0px" y="0px"
	 viewBox="0 0 86.9 30" style="enable-background:new 0 0 86.9 30;" xml:space="preserve">
<style type="text/css">
	.st0{fill-rule:evenodd;clip-rule:evenodd;fill:#ED7203;}
	.st1{fill:#939393;}
	.st2{fill:#4565AC;}
	.st3{fill-rule:evenodd;clip-rule:evenodd;fill:#4565AC;}
</style>
<g>
	<path class="st0" d="M37.9,25.6c0.6,0,1.1,0.4,1.1,1l0,3.5h-0.8l0-3.3c0-0.3-0.2-0.5-0.5-0.5h-1.7v-0.6H37.9L37.9,25.6z M35.4,27.6
		h2.3v0.6h-2.3V30h-0.8v-4.4h0.8V27.6L35.4,27.6z M45.5,28.9c0,0.3,0.2,0.5,0.5,0.5h2.6V30h-2.9c-0.6,0-1.1-0.4-1.1-1v-2.5
		c0-0.5,0.5-1,1.1-1h2.9v0.6H46c-0.3,0-0.5,0.2-0.5,0.5V28.9L45.5,28.9z M50.6,26.2c-0.1,0-0.2,0.1-0.2,0.2v1.1h2.7v0.6h-2.7v1.1
		c0,0.1,0.1,0.2,0.2,0.2h2.9V30h-3.6c-0.2,0-0.3-0.1-0.3-0.3v-3.8c0-0.2,0.1-0.3,0.3-0.3h3.6v0.6H50.6L50.6,26.2z M41,29.2
		c0,0.1,0.1,0.2,0.2,0.2H44V30h-3.5c-0.2,0-0.3-0.1-0.3-0.3l0-4.1H41V29.2L41,29.2z M58.1,28.7C58.1,28.7,58.2,28.6,58.1,28.7
		l0.1-3.1H59V30h-0.4c-0.1,0-0.3-0.1-0.3-0.1l-2.7-3c-0.1,0-0.1,0-0.1,0l0,3.1h-0.8v-4.1v-0.3h0.4c0.1,0,0.3,0.1,0.3,0.1L58.1,28.7
		L58.1,28.7z"/>
	<path class="st1" d="M86.9,28H61.2v-1h25.7V28z M32.3,28H0v-1h32.3V28z M86.9,1H0V0h86.9V1z"/>
	<polygon class="st2" points="40,20.7 37.7,20.7 37.7,9.8 32.9,9.8 32.9,8 44.8,8 44.8,9.8 40,9.8 40,20.7 	"/>
	<path class="st3" d="M55.1,9.8c0.9,0,1.6,0.6,1.6,1.4V12c0,0.8-0.7,1.4-1.6,1.4h-5.2v-3.2c0-0.3,0.2-0.5,0.5-0.5H55.1L55.1,9.8z
		 M56,8c1.7,0,3,1.2,3,2.7v1.8c0,1.5-1.3,2.7-3,2.7h-6.1v5.5h-2.3V8.9c0-0.5,0.4-0.9,1-0.9H56L56,8z"/>
	<polygon class="st2" points="30.3,20.7 27.9,20.7 27.9,8 30.3,8 30.3,20.7 	"/>
</g>
</svg>
