<?xml version="1.0" encoding="utf-8"?>
<!-- Generator: Adobe Illustrator 21.1.0, SVG Export Plug-In . SVG Version: 6.00 Build 0)  -->
<svg version="1.1" id="Calque_1" xmlns="http://www.w3.org/2000/svg" xmlns:xlink="http://www.w3.org/1999/xlink" x="0px" y="0px"
	 viewBox="0 0 185.107 30.794" enable-background="new 0 0 185.107 30.794" xml:space="preserve">
<g>
	<path fill-rule="evenodd" clip-rule="evenodd" fill="#EE7203" d="M135.832,26.325c0.586,0,1.061,0.431,1.061,0.961v3.507h-0.826
		v-3.351c0-0.272-0.245-0.492-0.548-0.492h-1.749v-0.626H135.832L135.832,26.325z M133.252,28.403h2.296v0.625h-2.296v1.765h-0.827
		v-4.468h0.827V28.403L133.252,28.403z M143.416,29.677c0,0.271,0.245,0.492,0.548,0.492h2.603v0.625h-2.915
		c-0.586,0-1.061-0.43-1.061-0.961v-2.547c0-0.53,0.475-0.961,1.061-0.961h2.915v0.626h-2.603c-0.302,0-0.548,0.22-0.548,0.492
		V29.677L143.416,29.677z M148.555,26.951c-0.099,0-0.179,0.073-0.179,0.162v1.134h2.703v0.626h-2.703l0,1.134
		c0,0.089,0.08,0.162,0.179,0.162h2.96v0.625h-3.631c-0.185,0-0.335-0.14-0.335-0.313v-3.843c0-0.173,0.15-0.313,0.335-0.313h3.631
		v0.626H148.555L148.555,26.951z M138.859,30.006c0,0.089,0.08,0.162,0.179,0.162h2.904v0.625h-3.568
		c-0.185,0-0.335-0.14-0.335-0.313l-0.007-4.156h0.827V30.006L138.859,30.006z M156.102,29.44c0.051,0.014,0.07-0.011,0.07-0.04
		l0-3.075H157v4.468h-0.413c-0.143,0-0.268-0.054-0.342-0.137l-2.681-2.978c-0.051-0.014-0.07,0.011-0.07,0.04l0,3.075h-0.826
		v-4.163v-0.305h0.413c0.142,0,0.267,0.055,0.342,0.137L156.102,29.44L156.102,29.44z"/>
	<path fill="#949494" d="M185.107,29h-25.852v-1h25.852V29z M130.19,29H0v-1h130.19V29z M185.107,1H0V0h185.107V1z"/>
	<path fill="#4565AD" d="M121.404,8.649l0,10.516c0,0.256,0.228,0.463,0.511,0.463h8.489v1.787H120c-0.529,0-0.957-0.4-0.957-0.894
		V8.649H121.404L121.404,8.649z"/>
	<path fill="#4565AD" d="M135.013,8.649v10.516c0,0.256,0.229,0.463,0.511,0.463h8.489v1.787h-10.404
		c-0.529,0-0.957-0.4-0.957-0.894V8.649H135.013L135.013,8.649z"/>
	<path fill="#4565AD" d="M149.17,10.437c-0.282,0-0.511,0.207-0.511,0.463v3.239h7.724v1.787h-7.724v3.24
		c0,0.256,0.229,0.463,0.511,0.463h8.489v1.787h-10.404c-0.529,0-0.957-0.4-0.957-0.894V9.543c0-0.494,0.429-0.894,0.957-0.894
		h10.404v1.787H149.17L149.17,10.437z"/>
	<path fill-rule="evenodd" clip-rule="evenodd" fill="#4565AD" d="M97.054,10.437c0.864,0,1.564,0.629,1.564,1.404v0.892
		c0,0.776-0.7,1.404-1.564,1.404h-5.266v-3.222c0-0.264,0.228-0.479,0.511-0.479H97.054L97.054,10.437z M97.948,8.649
		c1.674,0,3.032,1.229,3.032,2.745v1.786c0,1.516-1.358,2.744-3.032,2.744h-6.16v5.491h-2.362V9.543
		c0-0.494,0.429-0.894,0.957-0.894H97.948L97.948,8.649z"/>
	<path fill="#4565AD" d="M75.288,12.373c-0.023-0.026-0.058-0.043-0.096-0.043c-0.07,0-0.128,0.057-0.128,0.128v8.953
		c-0.077,0.011-2.362,0-2.362,0l0-12.766h1.181c0.406,0,0.764,0.154,0.977,0.39l4.513,5.014l4.524-5.018
		c0.214-0.235,0.567-0.385,0.966-0.385h1.181V21.41c0,0-2.285,0.011-2.362,0v-8.953c0-0.07-0.057-0.128-0.128-0.128
		c-0.037,0-0.071,0.016-0.094,0.041l-3.427,3.804h-1.32L75.288,12.373L75.288,12.373z"/>
	<polygon fill="#4565AD" points="53.618,8.649 53.618,21.415 51.256,21.415 51.256,15.926 44.043,15.926 44.043,21.415 
		41.681,21.415 41.681,8.649 44.043,8.649 44.043,14.139 51.256,14.139 51.256,8.649 53.618,8.649 	"/>
	<path fill="#4565AD" d="M29.809,18.224c0,0.775,0.7,1.404,1.564,1.404h7.436v1.787h-8.33c-1.675,0-3.032-1.229-3.032-2.745v-7.277
		c0-1.516,1.357-2.745,3.032-2.745h8.33v1.787h-7.436c-0.864,0-1.564,0.629-1.564,1.404V18.224L29.809,18.224z"/>
	<path fill-rule="evenodd" clip-rule="evenodd" fill="#4565AD" d="M67.277,14.586h-8.043v-3.67c0-0.264,0.229-0.479,0.511-0.479
		h5.968c0.864,0,1.564,0.629,1.564,1.404L67.277,14.586L67.277,14.586z M66.607,8.649c1.674,0,3.032,1.229,3.032,2.745l0,10.021
		h-2.362l0-5.043h-8.043v5.043h-2.362V9.543c0-0.494,0.429-0.894,0.957-0.894H66.607L66.607,8.649z"/>
	<path fill-rule="evenodd" clip-rule="evenodd" fill="#4565AD" d="M113.681,14.586h-8.042v-3.67c0-0.264,0.228-0.479,0.511-0.479
		h5.968c0.864,0,1.564,0.629,1.564,1.404L113.681,14.586L113.681,14.586z M113.011,8.649c1.674,0,3.032,1.229,3.032,2.745l0,10.021
		h-2.362v-5.043h-8.042v5.043h-2.362V9.543c0-0.494,0.428-0.894,0.957-0.894H113.011L113.011,8.649z"/>
</g>
</svg>
