<?xml version="1.0" encoding="utf-8"?>
<!-- Generator: Adobe Illustrator 21.1.0, SVG Export Plug-In . SVG Version: 6.00 Build 0)  -->
<svg version="1.1" id="Calque_1" xmlns="http://www.w3.org/2000/svg" xmlns:xlink="http://www.w3.org/1999/xlink" x="0px" y="0px"
	 viewBox="0 0 199.4 30" style="enable-background:new 0 0 199.4 30;" xml:space="preserve">
<style type="text/css">
	.st0{fill-rule:evenodd;clip-rule:evenodd;fill:#ED7203;}
	.st1{fill:#939393;}
	.st2{fill:#4565AC;}
	.st3{fill-rule:evenodd;clip-rule:evenodd;fill:#4565AC;}
</style>
<g>
	<path class="st0" d="M150.4,25.6c0.6,0,1.1,0.4,1.1,1l0,3.5h-0.8v-3.3c0-0.3-0.2-0.5-0.5-0.5h-1.7v-0.6H150.4z M147.9,27.6h2.3v0.6
		h-2.3V30H147v-4.4h0.8V27.6z M158,28.9c0,0.3,0.2,0.5,0.5,0.5h2.6V30h-2.9c-0.6,0-1.1-0.4-1.1-1v-2.5c0-0.5,0.5-1,1.1-1h2.9v0.6
		h-2.6c-0.3,0-0.5,0.2-0.5,0.5V28.9z M163.1,26.2c-0.1,0-0.2,0.1-0.2,0.2v1.1h2.7v0.6h-2.7v1.1c0,0.1,0.1,0.2,0.2,0.2h2.9V30h-3.6
		c-0.2,0-0.3-0.1-0.3-0.3v-3.8c0-0.2,0.1-0.3,0.3-0.3h3.6v0.6H163.1z M153.4,29.2c0,0.1,0.1,0.2,0.2,0.2h2.9V30h-3.5
		c-0.2,0-0.3-0.1-0.3-0.3l0-4.1h0.8V29.2z M170.6,28.7C170.6,28.7,170.6,28.6,170.6,28.7l0.1-3.1h0.8V30h-0.4
		c-0.1,0-0.3-0.1-0.3-0.1l-2.7-3c-0.1,0-0.1,0-0.1,0l0,3.1h-0.8v-4.1v-0.3h0.4c0.1,0,0.3,0.1,0.3,0.1L170.6,28.7z"/>
	<rect y="27.8" class="st1" width="144.8" height="1"/>
	<rect x="173.7" y="27.8" class="st1" width="25.7" height="1"/>
	<rect class="st1" width="199.4" height="1"/>
	<g>
		<path class="st2" d="M93.6,17.5c0,0.8,0.7,1.4,1.6,1.4h7.4v1.8h-8.3c-1.7,0-3-1.2-3-2.7v-7.2c0-1.5,1.3-2.7,3-2.7h8.3v1.8h-7.4
			c-0.9,0-1.6,0.6-1.6,1.4V17.5L93.6,17.5z"/>
		<path class="st3" d="M65.5,9.8c0.9,0,1.6,0.6,1.6,1.4V12c0,0.8-0.7,1.4-1.6,1.4h-5.2l0-3.2c0-0.3,0.2-0.5,0.5-0.5H65.5L65.5,9.8z
			 M66.2,15.2l3.2,5.5H67L64.3,16c-0.3-0.4-0.8-0.8-1.4-0.8h-2.7v5.5h-2.3V8.9c0-0.5,0.4-0.9,1-0.9h7.5c1.7,0,3,1.2,3,2.7v1.8
			c0,1.5-1.3,2.7-3,2.7H66.2L66.2,15.2z"/>
		<path class="st3" d="M52.3,13.9h-8v-3.6c0-0.3,0.2-0.5,0.5-0.5h5.9c0.9,0,1.6,0.6,1.6,1.4V13.9L52.3,13.9z M51.6,8
			c1.7,0,3,1.2,3,2.7v10h-2.3v-5h-8v5h-2.3V8.9c0-0.5,0.4-0.9,1-0.9H51.6L51.6,8z"/>
		<path class="st3" d="M35.5,9.8c0.9,0,1.6,0.6,1.6,1.4V12c0,0.8-0.7,1.4-1.6,1.4h-5.2v-3.2c0-0.3,0.2-0.5,0.5-0.5H35.5L35.5,9.8z
			 M36.4,8c1.7,0,3,1.2,3,2.7v1.8c0,1.5-1.3,2.7-3,2.7h-6.1v5.5h-2.3V8.9c0-0.5,0.4-0.9,1-0.9H36.4L36.4,8z"/>
		<polygon class="st2" points="78.7,20.7 76.3,20.7 76.3,9.8 71.6,9.8 71.6,8 83.5,8 83.5,9.8 78.7,9.8 78.7,20.7 		"/>
		<g>
			<polygon class="st2" points="85.8,20.7 88.2,20.7 88.2,8 85.8,8 85.8,20.7 			"/>
		</g>
		<path class="st2" d="M121.5,9.8c-0.3,0-0.5,0.2-0.5,0.5v3.2h7.7v1.8H121v3.2c0,0.3,0.2,0.5,0.5,0.5h8.4v1.8h-10.3
			c-0.5,0-1-0.4-1-0.9V8.9c0-0.5,0.4-0.9,1-0.9H130v1.8H121.5L121.5,9.8z"/>
		<path class="st2" d="M148.7,9.8c-0.3,0-0.5,0.2-0.5,0.5v3.2h7.7v1.8h-7.7v3.2c0,0.3,0.2,0.5,0.5,0.5h8.4v1.8h-10.3
			c-0.5,0-1-0.4-1-0.9V8.9c0-0.5,0.4-0.9,1-0.9h10.3v1.8H148.7L148.7,9.8z"/>
		<path class="st2" d="M107.7,8v10.5c0,0.3,0.2,0.5,0.5,0.5h8.4v1.8h-10.3c-0.5,0-1-0.4-1-0.9V8H107.7L107.7,8z"/>
		<path class="st2" d="M131.3,8h2.5l3.9,9.2c0,0.1,0.1,0.2,0.2,0.2c0.1,0,0.2-0.1,0.2-0.2L142,8h2.5l-5.2,12.3
			c-0.1,0.2-0.3,0.4-0.6,0.4h-1.6c-0.3,0-0.5-0.2-0.6-0.4L131.3,8L131.3,8z"/>
		<path class="st3" d="M167.6,9.8c0.9,0,1.6,0.6,1.6,1.4V12c0,0.8-0.7,1.4-1.6,1.4h-5.2v-3.2c0-0.3,0.2-0.5,0.5-0.5H167.6L167.6,9.8
			z M168.3,15.2l3.2,5.5h-2.3l-2.7-4.7c-0.3-0.4-0.8-0.8-1.4-0.8h-2.7v5.5H160V8.9c0-0.5,0.4-0.9,1-0.9h7.5c1.7,0,3,1.2,3,2.7v1.8
			c0,1.5-1.3,2.7-3,2.7H168.3L168.3,15.2z"/>
	</g>
</g>
</svg>
