<?xml version="1.0" encoding="utf-8"?>
<!-- Generator: Adobe Illustrator 15.0.2, SVG Export Plug-In . SVG Version: 6.00 Build 0)  -->
<!DOCTYPE svg PUBLIC "-//W3C//DTD SVG 1.1//EN" "http://www.w3.org/Graphics/SVG/1.1/DTD/svg11.dtd">
<svg version="1.1" id="ALSOLEN" xmlns="http://www.w3.org/2000/svg" xmlns:xlink="http://www.w3.org/1999/xlink" x="0px" y="0px"
	 width="438.422px" height="231.19px" viewBox="0 0 438.422 231.19" enable-background="new 0 0 438.422 231.19"
	 xml:space="preserve">
<g>
	<path fill="#FAB700" d="M148.92,74.46c0,41.127-33.338,74.459-74.46,74.459C33.337,148.919,0,115.587,0,74.46
		C0,33.337,33.337,0,74.46,0C115.582,0,148.92,33.337,148.92,74.46z"/>
	<g>
		<path fill="#055FA0" d="M95.923,230.518v-6.05l-0.26-0.225c-3.91,6.723-13.943,6.947-22.543,6.947
			c-15.374,0-26.059-2.466-26.059-17.818c0-16.248,9.774-18.488,26.71-18.488c6.775,0,20.067,0.562,21.5,5.936h0.652v-10.867
			c0-10.76-6.646-11.767-18.245-11.767c-8.073,0-17.977,0-17.845,8.068v2.016H49.146v-1.231c0-15.127,12.118-16.137,27.362-16.025
			c17.201-0.111,29.838,1.46,29.711,19.39v40.115H95.923z M95.664,213.033c0-11.091-7.689-10.979-20.719-10.979
			c-12.248,0-17.199,0.676-17.199,10.198c0,11.207,5.34,11.769,17.199,11.769C85.238,224.021,95.664,223.792,95.664,213.033z"/>
		<path fill="#055FA0" d="M130.808,230.518h-10.296V27.507h10.296V230.518z"/>
		<path fill="#055FA0" d="M199.851,187.038h-10.686v-2.241c0-5.938-5.21-5.938-16.025-5.938c-12.902,0-19.153-0.113-19.153,7.17
			c0,10.535,3.388,9.751,14.07,10.198c17.59,0.897,33.616-1.459,33.616,17.707c0,16.584-13.289,17.257-28.533,17.257
			c-14.854,0-30.36-0.673-30.36-13.784v-5.491h10.683v4.594c0,5.607,4.039,6.833,19.678,6.833c7.035,0,17.85,1.349,17.85-9.074
			c0-10.979-5.343-8.964-17.85-9.637c-14.854-0.895-29.839,0.45-29.839-16.247c0-17.034,11.334-17.371,29.839-17.371
			c11.988,0,26.71,0.45,26.71,13.784V187.038z"/>
		<path fill="#055FA0" d="M242.053,171.013c25.41,0,30.36,5.266,30.36,30.144c0,24.766-4.95,30.034-30.36,30.034
			c-25.409,0-30.357-5.269-30.357-30.034C211.696,176.278,216.644,171.013,242.053,171.013z M242.053,224.021
			c18.375,0,19.676-2.466,19.676-22.864c0-20.507-1.301-22.971-19.676-22.971c-18.371,0-19.675,2.464-19.675,22.971
			C222.378,221.555,223.682,224.021,242.053,224.021z"/>
		<path fill="#055FA0" d="M295.53,230.518h-10.293V27.507h10.293V230.518z"/>
		<path fill="#055FA0" d="M367.948,212.699v2.127c0,15.578-13.94,16.364-29.185,16.364c-26.71,0-30.75-7.62-30.75-30.034
			c0-24.43,6.254-30.144,30.75-30.144c22.149,0,29.185,4.371,29.185,26.111v5.939h-49.252c0,18.6,1.565,20.957,20.067,20.957
			c14.07,0,18.634-0.787,18.634-9.08v-2.241H367.948z M357.265,195.891c-0.522-16.698-2.869-17.705-18.502-17.705
			c-18.632,0-19.283,4.143-20.067,17.705H357.265z"/>
		<path fill="#055FA0" d="M391.247,178.858h0.262c3.258-7.062,13.292-7.846,21.108-7.846c17.591,0,26.062,4.034,25.8,20.396v39.109
			h-10.294v-39.782c0-10.756-4.821-12.55-16.417-12.55c-16.807,0-20.459,4.481-20.459,18.041v34.291h-10.291v-58.832h10.291V178.858
			z"/>
	</g>
</g>
<g display="none">
	<path display="inline" fill="#FAB700" d="M360.196,252.938c-2.998,0-6.03-0.04-9.116-0.113l0.045-1.873
		c40.017,0.961,72.123-3.71,108.441-29.841l1.094,1.52C426.722,247.049,396.46,252.938,360.196,252.938z"/>
	<path display="inline" fill="#FAB700" d="M381.641,248.112l-0.492-1.807c38.622-10.528,68.05-24.171,95.387-59.595l1.482,1.145
		C450.362,223.693,420.637,237.481,381.641,248.112z"/>
	<path display="inline" fill="#FAB700" d="M412.268,233.013l-1.037-1.561c33.342-22.156,56.977-44.372,71.765-86.603l1.768,0.619
		C469.802,188.192,445.932,210.641,412.268,233.013z"/>
</g>
</svg>
