<?xml version="1.0" encoding="utf-8"?>
<!-- Generator: Adobe Illustrator 21.1.0, SVG Export Plug-In . SVG Version: 6.00 Build 0)  -->
<svg version="1.1" id="Calque_1" xmlns="http://www.w3.org/2000/svg" xmlns:xlink="http://www.w3.org/1999/xlink" x="0px" y="0px"
	 viewBox="0 0 145.3 30" style="enable-background:new 0 0 145.3 30;" xml:space="preserve">
<style type="text/css">
	.st0{fill-rule:evenodd;clip-rule:evenodd;fill:#ED7203;}
	.st1{fill:#939393;}
	.st2{fill-rule:evenodd;clip-rule:evenodd;fill:#4565AC;}
	.st3{fill:#4565AC;}
</style>
<g>
	<path class="st0" d="M96.3,25.6c0.6,0,1.1,0.4,1.1,1V30h-0.8v-3.3c0-0.3-0.2-0.5-0.5-0.5h-1.7v-0.6H96.3L96.3,25.6z M93.8,27.6H96
		v0.6h-2.3V30h-0.8v-4.4h0.8V27.6L93.8,27.6z M103.9,28.9c0,0.3,0.2,0.5,0.5,0.5h2.6V30h-2.9c-0.6,0-1.1-0.4-1.1-1v-2.5
		c0-0.5,0.5-1,1.1-1h2.9v0.6h-2.6c-0.3,0-0.5,0.2-0.5,0.5V28.9L103.9,28.9z M109,26.2c-0.1,0-0.2,0.1-0.2,0.2v1.1h2.7v0.6h-2.7v1.1
		c0,0.1,0.1,0.2,0.2,0.2h2.9V30h-3.6c-0.2,0-0.3-0.1-0.3-0.3v-3.8c0-0.2,0.1-0.3,0.3-0.3h3.6v0.6H109L109,26.2z M99.3,29.2
		c0,0.1,0.1,0.2,0.2,0.2h2.9V30h-3.5c-0.2,0-0.3-0.1-0.3-0.3l0-4.1h0.8V29.2L99.3,29.2z M116.5,28.7
		C116.5,28.7,116.5,28.6,116.5,28.7l0.1-3.1h0.8V30H117c-0.1,0-0.3-0.1-0.3-0.1l-2.7-3c-0.1,0-0.1,0-0.1,0l0,3.1h-0.8v-4.1v-0.3h0.4
		c0.1,0,0.3,0.1,0.3,0.1L116.5,28.7L116.5,28.7z"/>
	<path class="st1" d="M145.3,28.1h-25.7v-1h25.7V28.1z M90.7,28.1H0v-1h90.7V28.1z M145.3,1H0V0h145.3V1z"/>
	<path class="st2" d="M49.6,9.8c0.9,0,1.6,0.6,1.6,1.4V12c0,0.8-0.7,1.4-1.6,1.4h-5.2v-3.2c0-0.3,0.2-0.5,0.5-0.5H49.6L49.6,9.8z
		 M50.3,15.2l3.2,5.5h-2.3L48.4,16c-0.3-0.4-0.8-0.8-1.4-0.8h-2.7v5.5H42V8.9C42,8.4,42.4,8,43,8h7.5c1.7,0,3,1.2,3,2.7v1.8
		c0,1.5-1.3,2.7-3,2.7H50.3L50.3,15.2z"/>
	<path class="st3" d="M80.9,16.7c0-0.1,0-8.7,0-8.7h2.3v12.7c0,0-0.5,0-1.2,0c-0.4,0-0.8-0.2-1-0.4l-7.6-8.4c0,0-0.1,0-0.1,0
		c-0.1,0-0.1,0.1-0.1,0.1c0,0.1,0,8.7,0,8.7h-2.3V8c0,0,0.5,0,1.2,0c0.4,0,0.8,0.2,1,0.4l7.6,8.4c0,0,0.1,0,0.1,0
		C80.8,16.8,80.9,16.8,80.9,16.7L80.9,16.7z"/>
	<path class="st3" d="M94.2,17.5c0,0.8,0.7,1.4,1.6,1.4h7.4v1.8h-8.3c-1.7,0-3-1.2-3-2.7v-7.2c0-1.5,1.3-2.7,3-2.7h8.3v1.8h-7.4
		c-0.9,0-1.6,0.6-1.6,1.4V17.5L94.2,17.5z"/>
	<path class="st2" d="M58.2,17.5c0,0.8,0.7,1.4,1.6,1.4H64c0.9,0,1.6-0.6,1.6-1.4v-6.3c0-0.8-0.7-1.4-1.6-1.4h-4.3
		c-0.9,0-1.6,0.6-1.6,1.4V17.5L58.2,17.5z M58.9,20.7c-1.7,0-3-1.2-3-2.7v-7.2c0-1.5,1.3-2.7,3-2.7h6c1.7,0,3,1.2,3,2.7v7.2
		c0,1.5-1.3,2.7-3,2.7H58.9L58.9,20.7z"/>
	<polygon class="st3" points="35,20.7 32.7,20.7 32.7,9.8 27.9,9.8 27.9,8 39.8,8 39.8,9.8 35,9.8 35,20.7 	"/>
	<path class="st2" d="M107.7,17.5c0,0.8,0.7,1.4,1.6,1.4h4.3c0.9,0,1.6-0.6,1.6-1.4v-6.3c0-0.8-0.7-1.4-1.6-1.4h-4.3
		c-0.9,0-1.6,0.6-1.6,1.4V17.5L107.7,17.5z M108.3,20.7c-1.7,0-3-1.2-3-2.7v-7.2c0-1.5,1.3-2.7,3-2.7h6c1.7,0,3,1.2,3,2.7v7.2
		c0,1.5-1.3,2.7-3,2.7H108.3L108.3,20.7z"/>
	<polygon class="st3" points="88.8,20.7 86.5,20.7 86.5,8 88.8,8 88.8,20.7 	"/>
</g>
</svg>
