<?xml version="1.0" encoding="utf-8"?>
<!-- Generator: Adobe Illustrator 21.1.0, SVG Export Plug-In . SVG Version: 6.00 Build 0)  -->
<svg version="1.1" id="Calque_1" xmlns="http://www.w3.org/2000/svg" xmlns:xlink="http://www.w3.org/1999/xlink" x="0px" y="0px"
	 viewBox="0 0 129.3 30" style="enable-background:new 0 0 129.3 30;" xml:space="preserve">
<style type="text/css">
	.st0{fill-rule:evenodd;clip-rule:evenodd;fill:#ED7203;}
	.st1{fill:#939393;}
	.st2{fill:#4565AC;}
	.st3{fill-rule:evenodd;clip-rule:evenodd;fill:#4565AC;}
</style>
<g>
	<g>
		<path class="st0" d="M80.3,25.6c0.6,0,1.1,0.4,1.1,1V30h-0.8v-3.3c0-0.3-0.2-0.5-0.5-0.5h-1.7v-0.6H80.3L80.3,25.6z M77.7,27.6H80
			v0.6h-2.3V30h-0.8v-4.4h0.8V27.6L77.7,27.6z M87.8,28.9c0,0.3,0.2,0.5,0.5,0.5H91V30h-2.9c-0.6,0-1.1-0.4-1.1-1v-2.5
			c0-0.5,0.5-1,1.1-1H91v0.6h-2.6c-0.3,0-0.5,0.2-0.5,0.5V28.9L87.8,28.9z M93,26.2c-0.1,0-0.2,0.1-0.2,0.2v1.1h2.7v0.6h-2.7v1.1
			c0,0.1,0.1,0.2,0.2,0.2h2.9V30h-3.6c-0.2,0-0.3-0.1-0.3-0.3v-3.8c0-0.2,0.1-0.3,0.3-0.3h3.6v0.6H93L93,26.2z M83.3,29.2
			c0,0.1,0.1,0.2,0.2,0.2h2.9V30h-3.5c-0.2,0-0.3-0.1-0.3-0.3l0-4.1h0.8V29.2L83.3,29.2z M100.5,28.7
			C100.5,28.7,100.5,28.6,100.5,28.7l0.1-3.1h0.8V30h-0.4c-0.1,0-0.3-0.1-0.3-0.1l-2.7-3c-0.1,0-0.1,0-0.1,0l0,3.1H97v-4.1v-0.3h0.4
			c0.1,0,0.3,0.1,0.3,0.1L100.5,28.7L100.5,28.7z"/>
		<path class="st1" d="M129.3,28.5h-25.7v-1h25.7V28.5z M74.7,28.5H0v-1h74.7V28.5z M129.3,1H0V0h129.3V1z"/>
	</g>
	<polygon class="st2" points="35,20.7 32.7,20.7 32.7,9.8 27.9,9.8 27.9,8 39.8,8 39.8,9.8 35,9.8 35,20.7 	"/>
	<polygon class="st2" points="54,8 54,20.7 51.7,20.7 51.7,15.2 44.5,15.2 44.5,20.7 42.1,20.7 42.1,8 44.5,8 44.5,13.4 51.7,13.4 
		51.7,8 54,8 	"/>
	<path class="st2" d="M59.8,9.8c-0.3,0-0.5,0.2-0.5,0.5v3.2H67v1.8h-7.7l0,3.2c0,0.3,0.2,0.5,0.5,0.5h8.4v1.8H57.9
		c-0.5,0-1-0.4-1-0.9V8.9c0-0.5,0.4-0.9,1-0.9h10.3v1.8H59.8L59.8,9.8z"/>
	<path class="st3" d="M78.4,9.8c0.9,0,1.6,0.6,1.6,1.4V12c0,0.8-0.7,1.4-1.6,1.4h-5.2v-3.2c0-0.3,0.2-0.5,0.5-0.5H78.4L78.4,9.8z
		 M79.1,15.2l3.2,5.5H80L77.2,16c-0.3-0.4-0.8-0.8-1.4-0.8h-2.7v5.5h-2.3V8.9c0-0.5,0.4-0.9,1-0.9h7.5c1.7,0,3,1.2,3,2.7v1.8
		c0,1.5-1.3,2.7-3,2.7H79.1L79.1,15.2z"/>
	<polygon class="st2" points="87.1,20.7 84.7,20.7 84.7,8 87.1,8 87.1,20.7 	"/>
	<path class="st2" d="M92.5,17.5c0,0.8,0.7,1.4,1.6,1.4h7.4v1.8h-8.3c-1.7,0-3-1.2-3-2.7v-7.2c0-1.5,1.3-2.7,3-2.7h8.3v1.8H94
		c-0.9,0-1.6,0.6-1.6,1.4V17.5L92.5,17.5z"/>
</g>
</svg>
