<?xml version="1.0" encoding="utf-8"?>
<!-- Generator: Adobe Illustrator 15.0.2, SVG Export Plug-In . SVG Version: 6.00 Build 0)  -->
<!DOCTYPE svg PUBLIC "-//W3C//DTD SVG 1.1//EN" "http://www.w3.org/Graphics/SVG/1.1/DTD/svg11.dtd">
<svg version="1.1" id="Calque_1" xmlns="http://www.w3.org/2000/svg" xmlns:xlink="http://www.w3.org/1999/xlink" x="0px" y="0px"
	 width="470.061px" height="54.24px" viewBox="0 0 470.061 54.24" enable-background="new 0 0 470.061 54.24" xml:space="preserve">
<g id="Logo_5_">
	<path fill="#8C8C8C" d="M195.345,12.756c-0.175-0.538-0.453-0.976-0.833-1.315c-0.38-0.34-0.869-0.509-1.465-0.509
		c-0.808,0-1.443,0.37-1.904,1.115c-0.463,0.742-0.693,1.862-0.693,3.36c-0.036,2.983,0.853,4.474,2.668,4.474
		c0.267,0,0.516-0.027,0.744-0.087c0.228-0.058,0.44-0.157,0.632-0.298c0.193-0.14,0.381-0.331,0.561-0.57
		c0.182-0.24,0.361-0.548,0.536-0.921l2.247,0.596c-0.374,1.099-0.963,1.927-1.764,2.483c-0.801,0.555-1.788,0.833-2.956,0.833
		c-1.627,0-2.884-0.563-3.766-1.693c-0.883-1.129-1.325-2.736-1.325-4.817c0-2.082,0.442-3.689,1.325-4.818
		c0.882-1.129,2.139-1.693,3.766-1.693c1.216,0,2.181,0.271,2.894,0.816c0.714,0.544,1.223,1.382,1.528,2.518L195.345,12.756z"/>
	<path fill="#8C8C8C" d="M220.77,15.407c0-1.498-0.235-2.618-0.703-3.36c-0.468-0.744-1.199-1.115-2.193-1.115
		c-0.995,0-1.726,0.371-2.195,1.115c-0.468,0.742-0.701,1.862-0.701,3.36c-0.024,1.498,0.201,2.618,0.676,3.361
		c0.473,0.743,1.213,1.113,2.22,1.113c0.994,0,1.725-0.37,2.193-1.113C220.535,18.025,220.77,16.905,220.77,15.407 M223.19,15.407
		c0,2.082-0.45,3.688-1.35,4.817c-0.901,1.13-2.223,1.693-3.966,1.693c-1.744,0-3.066-0.563-3.967-1.693
		c-0.901-1.129-1.35-2.735-1.35-4.817s0.449-3.689,1.35-4.818c0.901-1.129,2.223-1.693,3.967-1.693c1.743,0,3.065,0.564,3.966,1.693
		C222.74,11.718,223.19,13.325,223.19,15.407"/>
	<polygon fill="#8C8C8C" points="238.962,21.743 238.962,9.072 241.489,9.072 246.473,17.707 246.508,17.707 246.508,9.072 
		248.79,9.072 248.79,21.743 246.456,21.743 241.278,12.722 241.243,12.722 241.243,21.743 	"/>
	<polygon fill="#8C8C8C" points="265.439,21.743 265.439,9.072 267.965,9.072 272.95,17.707 272.984,17.707 272.984,9.072 
		275.266,9.072 275.266,21.743 272.93,21.743 267.754,12.722 267.719,12.722 267.719,21.743 	"/>
	<path fill="#8C8C8C" d="M294.405,17.006h2.951l-1.424-5.512h-0.035L294.405,17.006z M294.371,9.054h3.021l3.598,12.689h-2.404
		l-0.703-2.738h-4.001l-0.756,2.738h-2.403L294.371,9.054z"/>
	<rect x="316.725" y="9.071" fill="#8C8C8C" width="2.422" height="12.671"/>
	<path fill="#8C8C8C" d="M342.026,12.441c-0.188-0.491-0.47-0.89-0.845-1.193c-0.372-0.305-0.848-0.457-1.419-0.457
		c-0.527,0-0.961,0.112-1.299,0.333c-0.34,0.222-0.51,0.579-0.51,1.072c0,0.362,0.16,0.663,0.482,0.903
		c0.323,0.24,0.726,0.462,1.211,0.667c0.485,0.204,1.01,0.412,1.571,0.623c0.562,0.21,1.085,0.47,1.571,0.781
		c0.484,0.31,0.887,0.693,1.211,1.149c0.318,0.457,0.482,1.025,0.482,1.702c0,1.311-0.386,2.288-1.158,2.932
		c-0.774,0.643-1.866,0.964-3.281,0.964c-0.516,0-1.02-0.07-1.51-0.21c-0.492-0.14-0.948-0.34-1.369-0.597
		c-0.422-0.256-0.793-0.573-1.114-0.947c-0.321-0.375-0.571-0.789-0.747-1.247l2.002-0.877c0.29,0.598,0.647,1.077,1.061,1.439
		c0.414,0.363,0.981,0.545,1.693,0.545c0.303,0,0.586-0.03,0.844-0.088c0.256-0.058,0.483-0.155,0.674-0.289
		c0.193-0.136,0.346-0.311,0.457-0.528c0.111-0.217,0.166-0.476,0.166-0.781c0-0.409-0.16-0.751-0.481-1.026
		c-0.323-0.275-0.726-0.524-1.212-0.746c-0.484-0.222-1.009-0.438-1.568-0.648c-0.563-0.211-1.086-0.467-1.572-0.766
		c-0.485-0.297-0.889-0.659-1.211-1.087c-0.32-0.427-0.483-0.967-0.483-1.623c0-0.562,0.11-1.064,0.333-1.509
		c0.225-0.445,0.521-0.817,0.896-1.116c0.375-0.297,0.807-0.525,1.299-0.684c0.492-0.158,1.012-0.236,1.562-0.236
		c1.018,0,1.924,0.246,2.719,0.737c0.797,0.491,1.381,1.199,1.756,2.122L342.026,12.441z"/>
	<path fill="#8C8C8C" d="M366.555,12.441c-0.188-0.491-0.469-0.89-0.844-1.193c-0.373-0.305-0.849-0.457-1.422-0.457
		c-0.525,0-0.959,0.112-1.298,0.333c-0.34,0.222-0.509,0.579-0.509,1.072c0,0.362,0.162,0.663,0.482,0.903
		c0.322,0.24,0.725,0.462,1.209,0.667c0.486,0.204,1.01,0.412,1.572,0.623c0.561,0.21,1.085,0.47,1.57,0.781
		c0.486,0.31,0.889,0.693,1.212,1.149c0.321,0.457,0.483,1.025,0.483,1.702c0,1.311-0.387,2.288-1.158,2.932
		c-0.773,0.643-1.867,0.964-3.282,0.964c-0.517,0-1.019-0.07-1.511-0.21c-0.49-0.14-0.945-0.34-1.368-0.597
		c-0.421-0.256-0.793-0.573-1.114-0.947c-0.322-0.375-0.57-0.789-0.746-1.247l2-0.877c0.292,0.598,0.646,1.077,1.062,1.439
		c0.416,0.363,0.979,0.545,1.693,0.545c0.305,0,0.584-0.03,0.842-0.088s0.482-0.155,0.677-0.289
		c0.192-0.136,0.345-0.311,0.456-0.528c0.111-0.217,0.166-0.476,0.166-0.781c0-0.409-0.16-0.751-0.482-1.026
		s-0.725-0.524-1.211-0.746c-0.484-0.222-1.01-0.438-1.57-0.648c-0.561-0.211-1.084-0.467-1.57-0.766
		c-0.485-0.297-0.889-0.659-1.211-1.087c-0.323-0.427-0.483-0.967-0.483-1.623c0-0.562,0.112-1.064,0.333-1.509
		c0.225-0.445,0.521-0.817,0.895-1.116c0.375-0.297,0.811-0.525,1.299-0.684c0.492-0.158,1.014-0.236,1.562-0.236
		c1.02,0,1.924,0.246,2.721,0.737c0.795,0.491,1.381,1.199,1.754,2.122L366.555,12.441z"/>
	<path fill="#8C8C8C" d="M387.643,17.006h2.949l-1.422-5.512h-0.036L387.643,17.006z M387.608,9.054h3.02l3.6,12.689h-2.406
		l-0.701-2.738h-4.002l-0.756,2.738h-2.403L387.608,9.054z"/>
	<polygon fill="#8C8C8C" points="409.68,21.743 409.68,9.072 412.209,9.072 417.19,17.707 417.226,17.707 417.226,9.072 
		419.508,9.072 419.508,21.743 417.174,21.743 411.997,12.722 411.962,12.722 411.962,21.743 	"/>
	<path fill="#8C8C8C" d="M442.581,12.756c-0.176-0.538-0.455-0.976-0.834-1.315c-0.381-0.34-0.867-0.509-1.465-0.509
		c-0.808,0-1.443,0.37-1.906,1.115c-0.461,0.742-0.69,1.862-0.69,3.36c-0.038,2.983,0.853,4.474,2.666,4.474
		c0.269,0,0.519-0.027,0.746-0.087c0.228-0.058,0.438-0.157,0.632-0.298c0.191-0.14,0.379-0.331,0.561-0.57
		c0.182-0.24,0.36-0.548,0.535-0.921l2.246,0.596c-0.373,1.099-0.963,1.927-1.762,2.483c-0.801,0.555-1.79,0.833-2.958,0.833
		c-1.626,0-2.882-0.563-3.765-1.693c-0.885-1.129-1.324-2.736-1.324-4.817c0-2.082,0.439-3.689,1.324-4.818
		c0.883-1.129,2.139-1.693,3.765-1.693c1.215,0,2.183,0.271,2.896,0.816c0.713,0.544,1.224,1.382,1.526,2.518L442.581,12.756z"/>
	<polygon fill="#8C8C8C" points="460.41,21.743 460.41,9.072 468.797,9.072 468.797,11.107 462.832,11.107 462.832,14.125 
		467.167,14.125 467.167,16.161 462.832,16.161 462.832,19.707 468.99,19.707 468.99,21.743 	"/>
	<path fill="#E3690E" d="M193.42,39.222c-0.289-0.319-0.608-0.578-0.957-0.777c-0.348-0.199-0.682-0.297-1.001-0.297
		c-0.319,0-0.61,0.053-0.875,0.162c-0.264,0.11-0.496,0.289-0.694,0.539c-0.201,0.248-0.355,0.576-0.464,0.979
		c-0.109,0.405-0.163,0.9-0.163,1.488c0,0.997,0.194,1.755,0.589,2.273c0.393,0.519,0.929,0.776,1.607,0.776
		c0.349,0,0.667-0.08,0.957-0.24c0.289-0.159,0.623-0.427,1.001-0.807V39.222z M194.496,34.349v9.089
		c0,0.29-0.002,0.573-0.006,0.853c-0.005,0.279,0.016,0.564,0.067,0.852h-0.987l-0.15-0.762c-0.178,0.249-0.448,0.465-0.806,0.643
		c-0.36,0.18-0.774,0.27-1.242,0.27c-0.349,0-0.709-0.066-1.084-0.195c-0.374-0.129-0.716-0.349-1.022-0.656
		c-0.312-0.311-0.567-0.723-0.772-1.242c-0.204-0.518-0.305-1.165-0.305-1.941c0-0.76,0.101-1.396,0.305-1.908
		c0.205-0.513,0.458-0.926,0.764-1.24c0.303-0.314,0.64-0.541,1.009-0.68c0.368-0.141,0.717-0.209,1.044-0.209
		c0.37,0,0.729,0.082,1.077,0.246c0.349,0.164,0.674,0.371,0.972,0.62l0.06,0.03v-3.768H194.496z"/>
	<path fill="#E3690E" d="M216.929,40.537c0-0.717-0.162-1.294-0.484-1.732c-0.325-0.44-0.781-0.656-1.369-0.656
		c-0.659,0-1.159,0.216-1.502,0.656c-0.345,0.438-0.54,1.016-0.59,1.732H216.929z M218.246,43.484
		c-0.131,0.219-0.274,0.436-0.434,0.65c-0.16,0.213-0.357,0.408-0.59,0.582c-0.235,0.175-0.513,0.315-0.83,0.42
		c-0.319,0.104-0.698,0.156-1.136,0.156c-0.439,0-0.86-0.078-1.264-0.231c-0.403-0.154-0.763-0.396-1.077-0.726
		s-0.565-0.748-0.754-1.256c-0.19-0.509-0.284-1.115-0.284-1.822c0-0.629,0.075-1.192,0.224-1.691
		c0.149-0.498,0.364-0.921,0.643-1.27c0.279-0.35,0.612-0.616,1.002-0.799c0.389-0.186,0.821-0.277,1.299-0.277
		c0.4,0,0.779,0.065,1.137,0.201c0.359,0.135,0.672,0.344,0.942,0.627c0.269,0.285,0.483,0.651,0.643,1.1s0.239,0.982,0.239,1.6
		v0.717h-5.053c0,0.43,0.06,0.819,0.179,1.174c0.12,0.354,0.284,0.658,0.495,0.912c0.208,0.254,0.452,0.453,0.731,0.599
		c0.279,0.144,0.578,0.217,0.898,0.217c0.478,0,0.899-0.116,1.263-0.352c0.363-0.234,0.66-0.556,0.891-0.964L218.246,43.484z"/>
	<path fill="#E3690E" d="M235.432,43.169c0.259,0.369,0.572,0.66,0.941,0.875c0.369,0.213,0.798,0.321,1.287,0.321
		c0.577,0,1.001-0.133,1.271-0.396c0.27-0.263,0.403-0.561,0.403-0.89c0-0.33-0.114-0.584-0.344-0.77s-0.513-0.337-0.853-0.456
		s-0.705-0.231-1.1-0.336c-0.394-0.104-0.757-0.242-1.091-0.411c-0.334-0.17-0.611-0.391-0.83-0.666
		c-0.219-0.273-0.318-0.65-0.299-1.128c0.02-0.679,0.267-1.2,0.74-1.563c0.474-0.363,1.085-0.539,1.832-0.529
		c0.248,0,0.506,0.033,0.771,0.104c0.264,0.069,0.513,0.164,0.748,0.283c0.231,0.121,0.45,0.262,0.649,0.43
		c0.199,0.161,0.363,0.344,0.494,0.543l-0.748,0.658c-0.299-0.369-0.603-0.643-0.912-0.822c-0.309-0.18-0.672-0.268-1.09-0.268
		c-0.46,0-0.809,0.104-1.048,0.312c-0.239,0.209-0.36,0.487-0.36,0.836c0,0.279,0.112,0.5,0.338,0.658
		c0.223,0.159,0.503,0.297,0.837,0.412c0.334,0.114,0.693,0.227,1.082,0.336c0.389,0.111,0.752,0.256,1.086,0.44
		c0.334,0.187,0.611,0.424,0.837,0.718c0.224,0.294,0.336,0.68,0.336,1.16c0,0.378-0.075,0.709-0.224,0.993
		c-0.15,0.284-0.353,0.521-0.606,0.71s-0.545,0.331-0.875,0.426c-0.328,0.096-0.668,0.143-1.017,0.143
		c-0.608,0-1.188-0.127-1.741-0.381c-0.553-0.256-1.009-0.621-1.367-1.101L235.432,43.169z"/>
	<polygon fill="#8C8C8C" points="260.788,45.142 260.788,32.472 269.176,32.472 269.176,34.507 263.208,34.507 263.208,37.526 
		267.545,37.526 267.545,39.562 263.208,39.562 263.208,43.109 269.371,43.109 269.371,45.142 	"/>
	<polygon fill="#8C8C8C" points="289.678,45.142 289.678,32.472 292.205,32.472 297.189,41.107 297.223,41.107 297.223,32.472 
		299.506,32.472 299.506,45.142 297.172,45.142 291.995,36.122 291.959,36.122 291.959,45.142 	"/>
	<polygon fill="#8C8C8C" points="320.619,45.142 320.619,32.472 329.008,32.472 329.008,34.507 323.042,34.507 323.042,37.526 
		327.375,37.526 327.375,39.562 323.042,39.562 323.042,43.109 329.202,43.109 329.202,45.142 	"/>
	<path fill="#8C8C8C" d="M351.877,38.017h1.79c0.948,0,1.599-0.148,1.948-0.447s0.529-0.745,0.529-1.344
		c0-0.596-0.18-1.043-0.529-1.342s-0.861-0.447-1.527-0.447h-2.211V38.017z M349.458,45.142v-12.67h5.052
		c0.714,0,1.328,0.097,1.843,0.289c0.517,0.192,0.936,0.459,1.254,0.797c0.324,0.342,0.563,0.738,0.723,1.194
		c0.156,0.456,0.236,0.948,0.236,1.474c0.011,0.787-0.178,1.47-0.569,2.054c-0.394,0.586-0.978,0.989-1.749,1.211l2.793,5.651
		h-2.688l-2.386-5.159h-2.089v5.159H349.458z"/>
	<path fill="#8C8C8C" d="M386.172,36.123c-0.293-0.631-0.631-1.088-1.02-1.369c-0.383-0.282-0.895-0.422-1.525-0.422
		c-0.443,0-0.832,0.108-1.168,0.326c-0.332,0.215-0.611,0.521-0.832,0.92c-0.223,0.398-0.392,0.881-0.502,1.448
		s-0.164,1.201-0.164,1.904c0,1.334,0.233,2.394,0.709,3.176c0.474,0.784,1.131,1.177,1.973,1.177c0.798,0,1.433-0.234,1.906-0.703
		c0.474-0.467,0.722-1.069,0.746-1.806h-2.403v-2.038h4.737v6.407h-1.756v-1.299c-0.514,0.562-1.025,0.948-1.535,1.157
		c-0.51,0.212-1.099,0.317-1.764,0.317c-0.865,0-1.613-0.161-2.246-0.483c-0.632-0.321-1.152-0.766-1.562-1.334
		c-0.409-0.566-0.717-1.234-0.92-2.002c-0.206-0.765-0.309-1.599-0.309-2.5c0-0.807,0.086-1.611,0.254-2.412
		c0.17-0.803,0.461-1.519,0.869-2.15c0.41-0.631,0.95-1.148,1.624-1.544c0.673-0.397,1.517-0.597,2.534-0.597
		c0.632,0,1.201,0.08,1.705,0.244c0.502,0.166,0.943,0.391,1.323,0.677c0.379,0.286,0.7,0.627,0.956,1.021
		c0.259,0.389,0.463,0.819,0.615,1.286L386.172,36.123z"/>
	<rect x="409.637" y="32.471" fill="#8C8C8C" width="2.422" height="12.671"/>
	<polygon fill="#8C8C8C" points="433.472,45.142 433.472,32.472 441.862,32.472 441.862,34.507 435.893,34.507 435.893,37.526 
		440.231,37.526 440.231,39.562 435.893,39.562 435.893,43.109 442.056,43.109 442.056,45.142 	"/>
	<path fill="#8C8C8C" d="M467.603,35.841c-0.187-0.491-0.467-0.89-0.842-1.192c-0.374-0.306-0.849-0.457-1.421-0.457
		c-0.527,0-0.959,0.11-1.301,0.333c-0.34,0.223-0.508,0.579-0.508,1.07c0,0.363,0.159,0.664,0.484,0.904
		c0.318,0.239,0.723,0.463,1.209,0.666c0.486,0.205,1.01,0.413,1.57,0.623c0.562,0.211,1.086,0.471,1.57,0.781
		c0.486,0.311,0.889,0.694,1.213,1.15c0.321,0.457,0.482,1.023,0.482,1.703c0,1.31-0.387,2.285-1.158,2.93
		c-0.773,0.643-1.867,0.966-3.283,0.966c-0.514,0-1.017-0.071-1.509-0.211c-0.491-0.142-0.946-0.339-1.368-0.599
		c-0.422-0.254-0.793-0.571-1.117-0.945c-0.319-0.375-0.567-0.789-0.744-1.246l2.002-0.878c0.291,0.597,0.645,1.077,1.06,1.438
		c0.418,0.362,0.981,0.545,1.695,0.545c0.305,0,0.585-0.03,0.842-0.088c0.256-0.059,0.481-0.154,0.676-0.289
		c0.195-0.136,0.345-0.311,0.458-0.527c0.11-0.217,0.165-0.477,0.165-0.781c0-0.408-0.159-0.751-0.483-1.025
		c-0.32-0.275-0.725-0.523-1.209-0.748c-0.485-0.222-1.01-0.438-1.572-0.648c-0.559-0.209-1.084-0.465-1.57-0.764
		c-0.486-0.297-0.889-0.66-1.211-1.086c-0.324-0.429-0.482-0.97-0.482-1.625c0-0.562,0.111-1.063,0.334-1.51
		c0.223-0.445,0.519-0.815,0.894-1.115c0.375-0.297,0.81-0.525,1.299-0.684c0.493-0.158,1.013-0.236,1.563-0.236
		c1.017,0,1.924,0.246,2.719,0.737c0.796,0.49,1.38,1.199,1.755,2.123L467.603,35.841z"/>
	<polygon fill-rule="evenodd" clip-rule="evenodd" fill="#8C8C8C" points="44.656,9.039 80.815,9.039 80.815,45.199 44.656,45.199 
		44.656,40.035 76.094,40.035 76.094,14.208 44.656,14.208 	"/>
	<rect x="90.398" y="9.04" fill-rule="evenodd" clip-rule="evenodd" fill="#E3690E" width="36.158" height="5.166"/>
	<rect x="90.398" y="24.535" fill-rule="evenodd" clip-rule="evenodd" fill="#E3690E" width="36.158" height="5.166"/>
	<rect x="90.398" y="40.033" fill-rule="evenodd" clip-rule="evenodd" fill="#E3690E" width="36.158" height="5.166"/>
	<polygon fill-rule="evenodd" clip-rule="evenodd" fill="#E3690E" points="36.159,45.199 0,45.199 0,9.04 36.159,9.04 
		36.159,14.202 4.721,14.202 4.721,40.031 36.159,40.031 	"/>
	<line fill="none" stroke="#E3690E" stroke-width="1.537" stroke-miterlimit="3.864" x1="157.317" y1="0" x2="157.317" y2="54.24"/>
</g>
</svg>
