<?xml version="1.0" encoding="utf-8"?>
<!-- Generator: Adobe Illustrator 21.1.0, SVG Export Plug-In . SVG Version: 6.00 Build 0)  -->
<svg version="1.1" id="Calque_1" xmlns="http://www.w3.org/2000/svg" xmlns:xlink="http://www.w3.org/1999/xlink" x="0px" y="0px"
	 viewBox="0 0 171.269 30" enable-background="new 0 0 171.269 30" xml:space="preserve">
<g>
	<path fill-rule="evenodd" clip-rule="evenodd" fill="#EC7404" d="M122.213,25.522c0.587,0,1.063,0.432,1.063,0.963l0,3.515h-0.829
		v-3.358c0-0.272-0.245-0.493-0.548-0.493h-1.753v-0.627H122.213L122.213,25.522z M119.627,27.605h2.301v0.627h-2.301V30h-0.828
		v-4.478h0.828V27.605L119.627,27.605z M129.813,28.881c0,0.272,0.245,0.493,0.548,0.493h2.609V30h-2.921
		c-0.588,0-1.064-0.431-1.064-0.962v-2.553c0-0.531,0.476-0.962,1.064-0.962h2.921v0.627h-2.609c-0.303,0-0.548,0.221-0.548,0.493
		V28.881L129.813,28.881z M134.962,26.149c-0.099,0-0.179,0.073-0.179,0.162v1.136h2.709v0.627h-2.709v1.136
		c0,0.089,0.08,0.162,0.179,0.162h2.966V30h-3.638c-0.186,0-0.336-0.14-0.336-0.314v-3.85c0-0.173,0.15-0.314,0.336-0.314h3.638
		v0.627H134.962L134.962,26.149z M125.246,29.211c0,0.089,0.08,0.162,0.179,0.162h2.911V30h-3.576c-0.185,0-0.335-0.14-0.335-0.314
		l-0.007-4.164h0.828V29.211L125.246,29.211z M142.525,28.644c0.052,0.014,0.071-0.011,0.071-0.04l0-3.082h0.828V30h-0.414
		c-0.143,0-0.268-0.054-0.343-0.137l-2.687-2.985c-0.052-0.014-0.071,0.011-0.071,0.04l0,3.082h-0.828v-4.172v-0.306h0.413
		c0.143,0,0.268,0.055,0.343,0.137L142.525,28.644L142.525,28.644z"/>
	<path fill="#939392" d="M171.269,28h-25.746v-1h25.746V28z M116.866,28H0v-1h116.866V28z M171.269,1H0V0h171.269V1z"/>
	<polygon fill="#5165AA" points="109.851,20.681 107.503,20.681 107.503,9.765 102.745,9.765 102.745,7.988 114.613,7.988 
		114.613,9.765 109.851,9.765 109.851,20.681 	"/>
	<polygon fill="#5165AA" points="49.879,20.681 47.531,20.681 47.531,9.765 42.773,9.765 42.773,7.988 54.641,7.988 54.641,9.765 
		49.879,9.765 49.879,20.681 	"/>
	<path fill="#5165AA" d="M59.782,11.69c-0.023-0.026-0.057-0.043-0.095-0.043c-0.07,0-0.127,0.057-0.127,0.127v8.901
		c-0.076,0.011-2.348,0-2.348,0V7.983h1.174c0.403,0,0.76,0.153,0.971,0.387l4.487,4.985l4.498-4.989
		c0.212-0.234,0.563-0.383,0.96-0.383h1.174v12.693c0,0-2.272,0.011-2.348,0v-8.901c0-0.07-0.057-0.127-0.127-0.127
		c-0.037,0-0.07,0.016-0.094,0.041L64.5,15.471h-1.312L59.782,11.69L59.782,11.69z"/>
	<path fill-rule="evenodd" clip-rule="evenodd" fill="#5165AA" d="M75.837,17.507c0,0.771,0.696,1.396,1.555,1.396h4.252
		c0.859,0,1.555-0.625,1.555-1.396v-6.346c0-0.771-0.696-1.396-1.555-1.396h-4.252c-0.859,0-1.555,0.625-1.555,1.396V17.507
		L75.837,17.507z M76.503,20.681c-1.665,0-3.014-1.222-3.014-2.729v-7.235c0-1.507,1.35-2.729,3.014-2.729h6.029
		c1.665,0,3.014,1.222,3.014,2.729v7.235c0,1.507-1.35,2.729-3.014,2.729H76.503L76.503,20.681z"/>
	<path fill="#5165AA" d="M90.941,17.507c0,0.771,0.696,1.396,1.555,1.396h4.252c0.859,0,1.555-0.625,1.555-1.396v-0.889
		c0-0.771-0.696-1.396-1.555-1.396h-5.141c-1.665,0-3.014-1.222-3.014-2.729v-1.777c0-1.507,1.35-2.729,3.014-2.729h6.029
		c1.665,0,3.014,1.222,3.014,2.729v0.444h-2.348c0-0.771-0.696-1.396-1.555-1.396h-4.252c-0.859,0-1.555,0.625-1.555,1.396v0.888
		c0,0.771,0.696,1.396,1.555,1.396h5.141c1.665,0,3.014,1.222,3.014,2.729v1.777c0,1.507-1.349,2.729-3.014,2.729h-6.029
		c-1.665,0-3.014-1.222-3.014-2.729v-0.444H90.941L90.941,17.507z"/>
	<path fill-rule="evenodd" clip-rule="evenodd" fill="#5165AA" d="M127.115,13.89h-7.996v-3.649c0-0.263,0.227-0.476,0.508-0.476
		h5.934c0.859,0,1.555,0.625,1.555,1.396L127.115,13.89L127.115,13.89z M126.448,7.988c1.665,0,3.015,1.222,3.015,2.729l0,9.964
		h-2.348v-5.014h-7.996v5.014h-2.348V8.877c0-0.491,0.426-0.889,0.952-0.889H126.448L126.448,7.988z"/>
	<polygon fill="#5165AA" points="138.663,20.681 136.315,20.681 136.315,9.765 131.557,9.765 131.557,7.988 143.425,7.988 
		143.425,9.765 138.663,9.765 138.663,20.681 	"/>
	<path fill-rule="evenodd" clip-rule="evenodd" fill="#5165AA" d="M38.267,13.89h-7.996v-3.649c0-0.263,0.227-0.476,0.508-0.476
		h5.934c0.859,0,1.555,0.625,1.555,1.396L38.267,13.89L38.267,13.89z M37.601,7.988c1.665,0,3.014,1.222,3.014,2.729l0,9.964h-2.348
		l0-5.014h-7.996v5.014h-2.348V8.877c0-0.491,0.426-0.889,0.952-0.889H37.601L37.601,7.988z"/>
</g>
</svg>
