<?xml version="1.0" encoding="utf-8"?>
<!-- Generator: Adobe Illustrator 21.1.0, SVG Export Plug-In . SVG Version: 6.00 Build 0)  -->
<svg version="1.1" id="Calque_1" xmlns="http://www.w3.org/2000/svg" xmlns:xlink="http://www.w3.org/1999/xlink" x="0px" y="0px"
	 viewBox="0 0 175 30" style="enable-background:new 0 0 175 30;" xml:space="preserve">
<style type="text/css">
	.st0{fill-rule:evenodd;clip-rule:evenodd;fill:#ED7203;}
	.st1{fill:#939393;}
	.st2{fill:#4565AC;}
</style>
<g>
	<g>
		<path class="st0" d="M126.1,25.6c0.6,0,1.1,0.4,1.1,1V30h-0.8v-3.3c0-0.3-0.2-0.5-0.5-0.5H124v-0.6H126.1L126.1,25.6z M123.5,27.6
			h2.3v0.6h-2.3V30h-0.8v-4.4h0.8V27.6L123.5,27.6z M133.6,28.9c0,0.3,0.2,0.5,0.5,0.5h2.6V30h-2.9c-0.6,0-1.1-0.4-1.1-1v-2.5
			c0-0.5,0.5-1,1.1-1h2.9v0.6h-2.6c-0.3,0-0.5,0.2-0.5,0.5V28.9L133.6,28.9z M138.7,26.2c-0.1,0-0.2,0.1-0.2,0.2v1.1h2.7v0.6h-2.7
			v1.1c0,0.1,0.1,0.2,0.2,0.2h2.9V30H138c-0.2,0-0.3-0.1-0.3-0.3v-3.8c0-0.2,0.1-0.3,0.3-0.3h3.6v0.6H138.7L138.7,26.2z M129.1,29.2
			c0,0.1,0.1,0.2,0.2,0.2h2.9V30h-3.5c-0.2,0-0.3-0.1-0.3-0.3l0-4.1h0.8V29.2L129.1,29.2z M146.2,28.7
			C146.3,28.7,146.3,28.6,146.2,28.7l0.1-3.1h0.8V30h-0.4c-0.1,0-0.3-0.1-0.3-0.1l-2.7-3c-0.1,0-0.1,0-0.1,0l0,3.1h-0.8v-4.1v-0.3
			h0.4c0.1,0,0.3,0.1,0.3,0.1L146.2,28.7L146.2,28.7z"/>
		<path class="st1" d="M175,28.5h-25.7v-1H175V28.5z M120.5,28.5H0v-1h120.5V28.5z M175,1H0V0h175V1z"/>
		<g>
			<path class="st2" d="M96.1,17.5c0,0.8,0.7,1.4,1.6,1.4h7.4v1.8h-8.3c-1.7,0-3-1.2-3-2.7v-7.2c0-1.5,1.3-2.7,3-2.7h8.3v1.8h-7.4
				c-0.9,0-1.6,0.6-1.6,1.4V17.5L96.1,17.5z"/>
			<path class="st2" d="M124.6,8v10.5c0,0.3,0.2,0.5,0.5,0.5h8.4v1.8h-10.3c-0.5,0-1-0.4-1-0.9V8H124.6L124.6,8z"/>
			<path class="st2" d="M138.2,8v10.5c0,0.3,0.2,0.5,0.5,0.5h8.4v1.8h-10.3c-0.5,0-1-0.4-1-0.9V8H138.2L138.2,8z"/>
			<path class="st2" d="M110.4,9.8c-0.3,0-0.5,0.2-0.5,0.5l0,3.2h7.7v1.8h-7.7v3.2c0,0.3,0.2,0.5,0.5,0.5h8.4v1.8h-10.3
				c-0.5,0-1-0.4-1-0.9V8.9c0-0.5,0.4-0.9,1-0.9h10.3v1.8H110.4L110.4,9.8z"/>
		</g>
	</g>
	<g>
		<polygon class="st2" points="45.3,20.7 43,20.7 43,8 45.3,8 45.3,13.6 51.3,8 54.4,8 48.7,13.3 54.4,20.7 51.8,20.7 47.1,14.8 
			45.3,16.4 45.3,20.7 		"/>
		<path class="st2" d="M30.3,17.5c0,0.8,0.7,1.4,1.6,1.4h4.3c0.9,0,1.6-0.6,1.6-1.4v-0.9c0-0.8-0.7-1.4-1.6-1.4H31
			c-1.7,0-3-1.2-3-2.7v-1.8c0-1.5,1.3-2.7,3-2.7h6c1.7,0,3,1.2,3,2.7v0.4h-2.3c0-0.8-0.7-1.4-1.6-1.4h-4.3c-0.9,0-1.6,0.6-1.6,1.4
			V12c0,0.8,0.7,1.4,1.6,1.4H37c1.7,0,3,1.2,3,2.7v1.8c0,1.5-1.3,2.7-3,2.7h-6c-1.7,0-3-1.2-3-2.7v-0.4H30.3L30.3,17.5z"/>
		<polygon class="st2" points="59.6,20.7 57.3,20.7 57.3,8 59.6,8 59.6,20.7 		"/>
		<path class="st2" d="M65.1,8v10.5c0,0.3,0.2,0.5,0.5,0.5H74v1.8H63.7c-0.5,0-1-0.4-1-0.9V8H65.1L65.1,8z"/>
		<path class="st2" d="M78.6,8v10.5c0,0.3,0.2,0.5,0.5,0.5h8.4v1.8H77.2c-0.5,0-1-0.4-1-0.9V8H78.6L78.6,8z"/>
	</g>
</g>
</svg>
