<?xml version="1.0" encoding="utf-8"?>
<!-- Generator: Adobe Illustrator 21.1.0, SVG Export Plug-In . SVG Version: 6.00 Build 0)  -->
<svg version="1.1" id="Calque_1" xmlns="http://www.w3.org/2000/svg" xmlns:xlink="http://www.w3.org/1999/xlink" x="0px" y="0px"
	 viewBox="0 0 138.3 30" style="enable-background:new 0 0 138.3 30;" xml:space="preserve">
<style type="text/css">
	.st0{fill-rule:evenodd;clip-rule:evenodd;fill:#ED7203;}
	.st1{fill:#939393;}
	.st2{fill:#4565AC;}
	.st3{fill-rule:evenodd;clip-rule:evenodd;fill:#4565AC;}
</style>
<g>
	<path class="st0" d="M89.3,25.6c0.6,0,1.1,0.4,1.1,1l0,3.5h-0.8l0-3.3c0-0.3-0.2-0.5-0.5-0.5h-1.7v-0.6H89.3L89.3,25.6z M86.8,27.6
		h2.3v0.6h-2.3V30H86v-4.4h0.8V27.6L86.8,27.6z M96.9,28.9c0,0.3,0.2,0.5,0.5,0.5h2.6V30h-2.9c-0.6,0-1.1-0.4-1.1-1v-2.5
		c0-0.5,0.5-1,1.1-1h2.9v0.6h-2.6c-0.3,0-0.5,0.2-0.5,0.5V28.9L96.9,28.9z M102,26.2c-0.1,0-0.2,0.1-0.2,0.2v1.1h2.7v0.6h-2.7v1.1
		c0,0.1,0.1,0.2,0.2,0.2h2.9V30h-3.6c-0.2,0-0.3-0.1-0.3-0.3v-3.8c0-0.2,0.1-0.3,0.3-0.3h3.6v0.6H102L102,26.2z M92.4,29.2
		c0,0.1,0.1,0.2,0.2,0.2h2.9V30h-3.5c-0.2,0-0.3-0.1-0.3-0.3l0-4.1h0.8V29.2L92.4,29.2z M109.5,28.7
		C109.5,28.7,109.6,28.6,109.5,28.7l0.1-3.1h0.8V30H110c-0.1,0-0.3-0.1-0.3-0.1l-2.7-3c-0.1,0-0.1,0-0.1,0V30h-0.8v-4.1v-0.3h0.4
		c0.1,0,0.3,0.1,0.3,0.1L109.5,28.7L109.5,28.7z"/>
	<path class="st1" d="M138.3,28h-25.7v-1h25.7V28z M83.7,28H0v-1h83.7V28z M138.3,1H0V0h138.3V1z"/>
	<path class="st2" d="M46.2,8l0,10.5c0,0.3,0.2,0.5,0.5,0.5h8.4v1.8H44.8c-0.5,0-1-0.4-1-0.9V8H46.2L46.2,8z"/>
	<path class="st2" d="M79.4,16.7c0-0.1,0-8.7,0-8.7h2.3v12.7c0,0-0.5,0-1.2,0c-0.4,0-0.8-0.2-1-0.4L72,11.9c0,0-0.1,0-0.1,0
		c-0.1,0-0.1,0.1-0.1,0.1c0,0.1,0,8.7,0,8.7h-2.3V8c0,0,0.5,0,1.2,0c0.4,0,0.8,0.2,1,0.4l7.6,8.4c0,0,0.1,0,0.1,0
		C79.3,16.8,79.4,16.8,79.4,16.7L79.4,16.7z"/>
	<path class="st3" d="M87.2,17.5c0,0.8,0.7,1.4,1.6,1.4H93c0.9,0,1.6-0.6,1.6-1.4v-6.3c0-0.8-0.7-1.4-1.6-1.4h-4.3
		c-0.9,0-1.6,0.6-1.6,1.4V17.5L87.2,17.5z M87.9,20.7c-1.7,0-3-1.2-3-2.7v-7.2c0-1.5,1.3-2.7,3-2.7h6c1.7,0,3,1.2,3,2.7v7.2
		c0,1.5-1.3,2.7-3,2.7H87.9L87.9,20.7z"/>
	<path class="st2" d="M106.3,13.9c-0.1,0.1-0.1,0.3-0.1,0.4c0,0.2,0,0.3,0.1,0.4l4.1,5.9h-2.6l-3.1-4.5l-3.1,4.5h-2.6l4.1-5.9
		c0.1-0.1,0.1-0.3,0.1-0.4c0-0.2,0-0.3-0.1-0.4L98.9,8h2.6l3.1,4.5l3.1-4.5h2.6L106.3,13.9L106.3,13.9z"/>
	<path class="st3" d="M38.3,13.9h-8v-3.6c0-0.3,0.2-0.5,0.5-0.5h5.9c0.9,0,1.6,0.6,1.6,1.4L38.3,13.9L38.3,13.9z M37.6,8
		c1.7,0,3,1.2,3,2.7l0,10h-2.3l0-5h-8v5h-2.3V8.9c0-0.5,0.4-0.9,1-0.9H37.6L37.6,8z"/>
	<path class="st2" d="M62.2,15.3C62,15.4,62,15.6,62,15.8l0,4.9h-2.3l0-4.9c0-0.2-0.1-0.4-0.2-0.6L54.4,8h2.7l3.7,5.3L64.5,8h2.7
		L62.2,15.3L62.2,15.3z"/>
</g>
</svg>
