<?xml version="1.0" encoding="utf-8"?>
<!-- Generator: Adobe Illustrator 21.1.0, SVG Export Plug-In . SVG Version: 6.00 Build 0)  -->
<svg version="1.1" id="Calque_1" xmlns="http://www.w3.org/2000/svg" xmlns:xlink="http://www.w3.org/1999/xlink" x="0px" y="0px"
	 viewBox="0 0 532 94.4" style="enable-background:new 0 0 532 94.4;" xml:space="preserve">
<style type="text/css">
	.st0{fill:#929597;}
	.st1{fill-rule:evenodd;clip-rule:evenodd;fill:#929597;}
	.st2{fill:#EC7509;}
	.st3{fill-rule:evenodd;clip-rule:evenodd;fill:#EC7509;}
</style>
<g>
	<path class="st0" d="M350.6,16.7c-0.1-0.1-0.3-0.2-0.4-0.2c-0.3,0-0.6,0.3-0.6,0.6v39.8c-0.3,0.1-10.5,0-10.5,0l0-56.7h5.2
		c1.8,0,3.4,0.7,4.3,1.7l20,22.3l20.1-22.3c0.9-1,2.5-1.7,4.3-1.7h5.2v56.7c0,0-10.1,0.1-10.5,0V17c0-0.3-0.3-0.6-0.6-0.6
		c-0.2,0-0.3,0.1-0.4,0.2l-15.2,16.9h-5.9L350.6,16.7L350.6,16.7z"/>
	<path class="st1" d="M422.3,42.6c0,3.4,3.1,6.2,6.9,6.2h19c3.8,0,6.9-2.8,6.9-6.2V14.3c0-3.4-3.1-6.2-6.9-6.2h-19
		c-3.8,0-6.9,2.8-6.9,6.2V42.6L422.3,42.6z M425.3,56.8c-7.4,0-13.5-5.5-13.5-12.2V12.3c0-6.7,6-12.2,13.5-12.2h26.9
		c7.4,0,13.5,5.5,13.5,12.2v32.3c0,6.7-6,12.2-13.5,12.2H425.3L425.3,56.8z"/>
	<g>
		<polygon class="st2" points="480.5,94.4 476.9,94.4 476.9,77.6 469.5,77.6 469.5,74.9 487.8,74.9 487.8,77.6 480.5,77.6 
			480.5,94.4 		"/>
		<polygon class="st2" points="388.4,94.4 384.8,94.4 384.8,77.6 377.4,77.6 377.4,74.9 395.7,74.9 395.7,77.6 388.4,77.6 
			388.4,94.4 		"/>
		<path class="st2" d="M403.6,80.6c0,0-0.1-0.1-0.1-0.1c-0.1,0-0.2,0.1-0.2,0.2v13.7c-0.1,0-3.6,0-3.6,0V74.9h1.8
			c0.6,0,1.2,0.2,1.5,0.6l6.9,7.7l6.9-7.7c0.3-0.4,0.9-0.6,1.5-0.6h1.8v19.5c0,0-3.5,0-3.6,0V80.7c0-0.1-0.1-0.2-0.2-0.2
			c-0.1,0-0.1,0-0.1,0.1l-5.2,5.8h-2L403.6,80.6L403.6,80.6z"/>
		<path class="st3" d="M428.2,89.5c0,1.2,1.1,2.1,2.4,2.1h6.5c1.3,0,2.4-1,2.4-2.1v-9.7c0-1.2-1.1-2.1-2.4-2.1h-6.5
			c-1.3,0-2.4,1-2.4,2.1V89.5L428.2,89.5z M429.2,94.4c-2.6,0-4.6-1.9-4.6-4.2V79.1c0-2.3,2.1-4.2,4.6-4.2h9.3
			c2.6,0,4.6,1.9,4.6,4.2v11.1c0,2.3-2.1,4.2-4.6,4.2H429.2L429.2,94.4z"/>
		<path class="st2" d="M451.4,89.5c0,1.2,1.1,2.1,2.4,2.1h6.5c1.3,0,2.4-1,2.4-2.1v-1.4c0-1.2-1.1-2.1-2.4-2.1h-7.9
			c-2.6,0-4.6-1.9-4.6-4.2v-2.7c0-2.3,2.1-4.2,4.6-4.2h9.3c2.6,0,4.6,1.9,4.6,4.2v0.7h-3.6c0-1.2-1.1-2.1-2.4-2.1h-6.5
			c-1.3,0-2.4,1-2.4,2.1v1.4c0,1.2,1.1,2.1,2.4,2.1h7.9c2.6,0,4.6,1.9,4.6,4.2v2.7c0,2.3-2.1,4.2-4.6,4.2h-9.3
			c-2.6,0-4.6-1.9-4.6-4.2v-0.7H451.4L451.4,89.5z"/>
		<path class="st3" d="M507,84h-12.3v-5.6c0-0.4,0.3-0.7,0.8-0.7h9.1c1.3,0,2.4,1,2.4,2.1V84L507,84z M506,74.9
			c2.6,0,4.6,1.9,4.6,4.2v15.3H507v-7.7h-12.3v7.7h-3.6V76.3c0-0.8,0.7-1.4,1.5-1.4H506L506,74.9z"/>
		<polygon class="st2" points="524.7,94.4 521.1,94.4 521.1,77.6 513.8,77.6 513.8,74.9 532,74.9 532,77.6 524.7,77.6 524.7,94.4 		
			"/>
		<path class="st3" d="M370.5,84h-12.3v-5.6c0-0.4,0.3-0.7,0.8-0.7h9.1c1.3,0,2.4,1,2.4,2.1V84L370.5,84z M369.5,74.9
			c2.6,0,4.6,1.9,4.6,4.2v15.3h-3.6v-7.7h-12.3v7.7h-3.6V76.3c0-0.8,0.7-1.4,1.5-1.4H369.5L369.5,74.9z"/>
	</g>
	<path class="st1" d="M314.4,26.5h-35.7V10.2c0-1.2,1-2.1,2.3-2.1h26.5c3.8,0,6.9,2.8,6.9,6.2V26.5L314.4,26.5z M311.4,0.1
		c7.4,0,13.5,5.5,13.5,12.2l0,44.5h-10.5l0-22.4h-35.7v22.4h-10.5V4.1c0-2.2,1.9-4,4.3-4H311.4L311.4,0.1z"/>
	<polygon class="st0" points="166.7,56.8 156.2,56.8 156.2,8.1 134.9,8.1 134.9,0.1 187.9,0.1 187.9,8.1 166.7,8.1 166.7,56.8 	"/>
	<path class="st0" d="M11.5,16.7c-0.1-0.1-0.3-0.2-0.4-0.2c-0.3,0-0.6,0.3-0.6,0.6v39.8c-0.3,0.1-10.5,0-10.5,0V0.1h5.2
		c1.8,0,3.4,0.7,4.3,1.7l20,22.3L49.7,1.8c0.9-1,2.5-1.7,4.3-1.7h5.2v56.7c0,0-10.1,0.1-10.5,0V17c0-0.3-0.3-0.6-0.6-0.6
		c-0.2,0-0.3,0.1-0.4,0.2L32.6,33.6h-5.9L11.5,16.7L11.5,16.7z"/>
	<rect y="83.6" class="st0" width="342" height="2"/>
	<path class="st0" d="M86.4,8c-1.3,0-2.3,0.9-2.3,2.1v14.4h34.4v8H84.2l0,14.4c0,1.1,1,2.1,2.3,2.1h37.8v8H77.9
		c-2.4,0-4.3-1.8-4.3-4V4c0-2.2,1.9-4,4.3-4h46.3v8H86.4L86.4,8z"/>
	<polygon class="st0" points="253.1,0.1 253.1,56.8 242.6,56.8 242.6,32.4 210.5,32.4 210.5,56.8 200,56.8 200,0.1 210.5,0.1 
		210.5,24.5 242.6,24.5 242.6,0.1 253.1,0.1 	"/>
	<path class="st1" d="M521.5,16c0-4.3-3.9-7.8-8.7-7.9h-20.5c-1.3,0-2.3,0.9-2.3,2.1l0,38.8l22.8,0c4.8-0.1,8.7-3.6,8.7-7.9V16
		L521.5,16z M515,0.1c9.4,0,17,7,17,15.6v25.5c0,8.6-7.6,15.6-17,15.6l-35.4,0V4.1c0-2.2,1.9-4,4.3-4H515L515,0.1z"/>
</g>
</svg>
