<?xml version="1.0" encoding="utf-8"?>
<!-- Generator: Adobe Illustrator 21.1.0, SVG Export Plug-In . SVG Version: 6.00 Build 0)  -->
<svg version="1.1" id="Calque_1" xmlns="http://www.w3.org/2000/svg" xmlns:xlink="http://www.w3.org/1999/xlink" x="0px" y="0px"
	 viewBox="0 0 155.745 30.794" enable-background="new 0 0 155.745 30.794" xml:space="preserve">
<g>
	<path fill-rule="evenodd" clip-rule="evenodd" fill="#EE7203" d="M106.47,26.326c0.586,0,1.061,0.43,1.061,0.961v3.507h-0.827
		v-3.351c0-0.272-0.245-0.491-0.547-0.491h-1.748v-0.626H106.47z M103.889,28.403h2.296v0.626h-2.296v1.765h-0.826v-4.468h0.826
		V28.403z M114.055,29.677c0,0.271,0.245,0.491,0.547,0.491h2.603v0.625h-2.915c-0.586,0-1.061-0.43-1.061-0.961v-2.547
		c0-0.53,0.475-0.961,1.061-0.961h2.915v0.625h-2.603c-0.302,0-0.547,0.22-0.547,0.492V29.677z M119.193,26.951
		c-0.099,0-0.179,0.073-0.179,0.162v1.134h2.703v0.626h-2.703l0,1.134c0,0.089,0.08,0.162,0.179,0.162h2.96v0.625h-3.631
		c-0.185,0-0.335-0.14-0.335-0.313v-3.843c0-0.173,0.15-0.313,0.335-0.313h3.631v0.625H119.193z M109.497,30.006
		c0,0.089,0.08,0.162,0.179,0.162h2.904v0.625h-3.568c-0.185,0-0.335-0.14-0.335-0.313l-0.007-4.155h0.827V30.006z M126.741,29.441
		c0.051,0.013,0.07-0.011,0.07-0.04l0-3.075h0.827v4.468h-0.413c-0.142,0-0.268-0.054-0.342-0.137l-2.681-2.978
		c-0.051-0.013-0.07,0.011-0.07,0.04l0,3.075h-0.827v-4.163v-0.305h0.413c0.142,0,0.268,0.054,0.342,0.137L126.741,29.441z"/>
	<rect x="0" y="27.958" fill="#949494" width="100.829" height="1"/>
	<rect x="129.893" y="27.958" fill="#949494" width="25.852" height="1"/>
	<rect x="0" y="0" fill="#949494" width="155.745" height="1"/>
	<g>
		<g>
			<path fill="#4565AD" d="M71.188,10.431c-0.282,0-0.511,0.207-0.511,0.463v3.239h7.724v1.787h-7.724v3.239
				c0,0.256,0.229,0.463,0.511,0.463h8.489v1.787H69.273c-0.529,0-0.957-0.4-0.957-0.894V9.538c0-0.494,0.429-0.894,0.957-0.894
				h10.404v1.787H71.188z"/>
			<path fill="#4565AD" d="M42.671,8.644l0,10.516c0,0.255,0.229,0.463,0.511,0.463h8.489v1.787H41.267
				c-0.529,0-0.957-0.4-0.957-0.894V8.644H42.671z"/>
			<path fill="#4565AD" d="M55.991,18.219c0,0.776,0.7,1.404,1.564,1.404h4.277c0.864,0,1.564-0.629,1.564-1.404v-0.894
				c0-0.776-0.7-1.404-1.564-1.404h-5.171c-1.674,0-3.032-1.229-3.032-2.745v-1.787c0-1.516,1.357-2.745,3.032-2.745h6.064
				c1.674,0,3.032,1.229,3.032,2.745v0.447h-2.362c0-0.776-0.7-1.404-1.564-1.404h-4.277c-0.864,0-1.564,0.629-1.564,1.404v0.894
				c0,0.776,0.7,1.404,1.564,1.404h5.171c1.674,0,3.032,1.229,3.032,2.745v1.787c0,1.516-1.357,2.745-3.032,2.745h-6.064
				c-1.674,0-3.032-1.229-3.032-2.745v-0.447H55.991z"/>
			<path fill="#4565AD" d="M92.89,17.436c0-0.07,0-8.792,0-8.792h2.362V21.41c0,0-0.529,0-1.181,0c-0.406,0-0.764-0.155-0.977-0.391
				c0,0-7.699-8.523-7.736-8.523c-0.07,0-0.128,0.057-0.128,0.128c0,0.07,0,8.786,0,8.786h-2.362V8.644c0,0,0.529,0,1.181,0
				c0.406,0,0.764,0.155,0.977,0.391l7.642,8.487c0.023,0.025,0.057,0.041,0.094,0.041C92.833,17.564,92.89,17.506,92.89,17.436z"/>
			<path fill-rule="evenodd" clip-rule="evenodd" fill="#4565AD" d="M34.692,14.581H26.65v-3.67c0-0.264,0.229-0.479,0.511-0.479
				h5.968c0.864,0,1.564,0.629,1.564,1.404L34.692,14.581z M34.022,8.644c1.674,0,3.032,1.229,3.032,2.745l0,10.021h-2.362l0-5.042
				H26.65v5.042h-2.362V9.538c0-0.494,0.429-0.894,0.957-0.894H34.022z"/>
		</g>
		<path fill="#4565AD" d="M116.883,12.37c-0.023-0.026-0.058-0.043-0.096-0.043c-0.07,0-0.128,0.057-0.128,0.128v8.953
			c-0.077,0.011-2.362,0-2.362,0l0-12.766h1.181c0.406,0,0.764,0.153,0.977,0.39l4.513,5.014l4.524-5.018
			c0.214-0.235,0.566-0.385,0.965-0.385h1.181v12.766c0,0-2.285,0.011-2.362,0v-8.953c0-0.071-0.057-0.128-0.128-0.128
			c-0.037,0-0.071,0.016-0.094,0.041l-3.427,3.805h-1.32L116.883,12.37L116.883,12.37z"/>
		<path fill-rule="evenodd" clip-rule="evenodd" fill="#4565AD" d="M108.872,14.583h-8.042v-3.671c0-0.264,0.228-0.479,0.511-0.479
			h5.968c0.864,0,1.564,0.628,1.564,1.404L108.872,14.583L108.872,14.583z M108.202,8.647c1.674,0,3.032,1.229,3.032,2.745l0,10.022
			h-2.362l0-5.043h-8.042v5.043h-2.362V9.54c0-0.494,0.429-0.894,0.957-0.894H108.202L108.202,8.647z"/>
	</g>
</g>
</svg>
