<?xml version="1.0" encoding="utf-8"?>
<!-- Generator: Adobe Illustrator 21.1.0, SVG Export Plug-In . SVG Version: 6.00 Build 0)  -->
<svg version="1.1" xmlns="http://www.w3.org/2000/svg" xmlns:xlink="http://www.w3.org/1999/xlink" x="0px" y="0px"
	 viewBox="0 0 695.35 98.234" enable-background="new 0 0 695.35 98.234" xml:space="preserve">
<g id="Power" display="none">
	<g display="inline">
		<rect x="209.167" y="88.504" fill="#949494" width="336.715" height="1.588"/>
		<path fill-rule="evenodd" clip-rule="evenodd" fill="#EE7203" d="M590.769,81.396c1.325,0,2.398,0.965,2.398,2.154v1.367
			c0,1.189-1.073,2.154-2.398,2.154h-8.075v-4.941c0-0.404,0.351-0.734,0.783-0.734H590.769L590.769,81.396z M591.928,89.814
			l4.861,8.418h-3.617l-4.192-7.26c-0.399-0.689-1.202-1.158-2.127-1.158h-4.159v8.418h-3.621V80.027
			c0-0.758,0.657-1.371,1.468-1.371h11.599c2.568,0,4.65,1.885,4.65,4.209v2.74c0,2.322-2.082,4.209-4.65,4.209H591.928
			L591.928,89.814z"/>
		<path fill="#EE7203" d="M639.078,92.139c0-0.109,0-13.483,0-13.483h3.621v19.576c0,0-0.811,0-1.811,0
			c-0.622,0-1.172-0.238-1.498-0.6l-11.718-13.004c-0.035-0.041-0.087-0.066-0.145-0.066c-0.108,0-0.195,0.088-0.195,0.195
			c0,0.111,0,13.475,0,13.475h-3.622V78.656c0,0,0.81,0,1.81,0c0.624,0,1.172,0.238,1.498,0.602l11.718,13.012
			c0.036,0.041,0.087,0.064,0.144,0.064C638.99,92.334,639.078,92.246,639.078,92.139L639.078,92.139z"/>
		<path fill="#EE7203" d="M659.625,93.338c0,1.189,1.073,2.154,2.398,2.154h11.403v2.74h-12.774c-2.567,0-4.648-1.885-4.648-4.209
			V82.865c0-2.324,2.081-4.209,4.648-4.209h12.774v2.74h-11.403c-1.325,0-2.398,0.965-2.398,2.154V93.338L659.625,93.338z"/>
		<path fill-rule="evenodd" clip-rule="evenodd" fill="#EE7203" d="M604.109,93.338c0,1.189,1.072,2.154,2.397,2.154h6.559
			c1.324,0,2.397-0.965,2.397-2.154v-9.787c0-1.189-1.073-2.154-2.397-2.154h-6.559c-1.324,0-2.397,0.965-2.397,2.154V93.338
			L604.109,93.338z M605.137,98.232c-2.568,0-4.649-1.885-4.649-4.209V82.865c0-2.324,2.081-4.209,4.649-4.209h9.298
			c2.567,0,4.649,1.885,4.649,4.209v11.158c0,2.324-2.082,4.209-4.649,4.209H605.137L605.137,98.232z"/>
		<polygon fill="#EE7203" points="568.303,98.232 564.683,98.232 564.683,81.396 557.344,81.396 557.344,78.656 575.646,78.656 
			575.646,81.396 568.303,81.396 568.303,98.232 		"/>
		<path fill-rule="evenodd" clip-rule="evenodd" fill="#EE7203" d="M680.374,93.338c0,1.189,1.073,2.154,2.398,2.154h6.559
			c1.324,0,2.397-0.965,2.397-2.154v-9.785c0-1.191-1.073-2.154-2.397-2.154h-6.559c-1.325,0-2.398,0.963-2.398,2.154V93.338
			L680.374,93.338z M681.402,98.234c-2.568,0-4.648-1.887-4.648-4.209V82.867c0-2.326,2.08-4.209,4.648-4.209h9.299
			c2.566,0,4.648,1.883,4.648,4.209v11.158c0,2.322-2.082,4.209-4.648,4.209H681.402L681.402,98.234z"/>
		<polygon fill="#EE7203" points="651.315,98.234 647.692,98.234 647.692,78.658 651.315,78.658 651.315,98.234 		"/>
		<polygon fill="#949494" points="240.907,56.697 230.419,56.697 230.419,7.943 209.167,7.943 209.167,0.006 262.175,0.006 
			262.175,7.943 240.907,7.943 240.907,56.697 		"/>
		<g>
			<path fill="#949494" d="M293.733,13.012h-28.659c-2.275,0-4.127,1.758-4.127,3.918v39.768h9.712V40.231h24.261v16.466h9.713
				V22.974C304.632,17.48,299.742,13.012,293.733,13.012z M294.92,24.434v7.961h-24.262V21.41c0-0.311,0.299-0.562,0.667-0.562
				h19.489C293.078,20.848,294.92,22.456,294.92,24.434z"/>
			<path fill="#949494" d="M685.698,38.713c5.424-0.566,9.651-4.787,9.651-9.893v-5.828c0-5.491-4.888-9.959-10.896-9.959h-24.685
				c-2.274,0-4.124,1.758-4.124,3.917v39.747h9.708v-17.92h7.849c1.555,0,2.958,0.754,3.662,1.969l9.211,15.951h10.008
				L685.698,38.713z M685.644,24.449v2.913c0,1.975-1.841,3.581-4.105,3.581h-16.186V21.43c0-0.311,0.299-0.562,0.666-0.562h15.52
				C683.803,20.867,685.644,22.475,685.644,24.449z"/>
			<path fill="#949494" d="M609.172,16.95v35.83c0,2.159,1.851,3.917,4.125,3.917h34.955v-7.834h-28.706
				c-0.361,0-0.666-0.233-0.666-0.51v-9.57h25.205v-7.836H618.88v-9.57c0-0.276,0.305-0.51,0.666-0.51h28.706v-7.834h-34.955
				C611.022,13.033,609.172,14.791,609.172,16.95z"/>
			<path fill="#949494" d="M367.1,16.93v35.85c0,2.16,1.852,3.918,4.127,3.918H406.2V48.86h-28.721
				c-0.362,0-0.668-0.233-0.668-0.511v-9.576h25.22v-7.838h-25.22v-9.577c0-0.276,0.306-0.511,0.668-0.511H406.2v-7.836h-34.974
				C368.951,13.012,367.1,14.769,367.1,16.93z"/>
			<path fill="#949494" d="M349.862,14.584l-14.027,15.559l-13.994-15.546c-0.903-1.004-2.373-1.604-3.932-1.604h-4.855v43.68
				l0.995,0.006c0,0,3.318,0.018,5.605,0.018c2.076,0,2.159-0.014,2.264-0.029l0.848-0.131V27.965l10.467,11.623h5.202
				l10.469-11.622v28.571l0.848,0.131c0.104,0.016,0.186,0.029,2.263,0.029c2.287,0,5.606-0.018,5.606-0.018l0.995-0.006v-43.68
				h-4.857C352.199,12.994,350.779,13.572,349.862,14.584z"/>
			<path fill="#949494" d="M528.999,13.033h-19.79c-6.008,0-10.896,4.467-10.896,9.957v23.748c0,5.491,4.888,9.959,10.896,9.959
				h19.79c6.007,0,10.895-4.468,10.895-9.959V22.99C539.894,17.5,535.006,13.033,528.999,13.033z M530.187,24.448v20.831
				c0,1.977-1.841,3.584-4.104,3.584h-13.957c-2.263,0-4.104-1.607-4.104-3.584V24.448c0-1.976,1.841-3.582,4.104-3.582h13.957
				C528.346,20.866,530.187,22.473,530.187,24.448z"/>
			<path fill="#949494" d="M587.308,40.109l-8.798-27.074h-8.431l-8.812,27.07l-8.796-27.07h-9.552l0.426,1.309
				c0,0,13.107,40.326,13.188,40.578c0.343,1.061,1.322,1.775,2.438,1.775h4.607c1.114,0,2.095-0.712,2.438-1.768
				c0.04-0.121,5.93-18.25,8.278-25.478c2.346,7.217,8.22,25.293,8.277,25.472c0.343,1.062,1.322,1.775,2.44,1.775h4.605
				c1.115,0,2.096-0.713,2.438-1.775c0.066-0.202,13.188-40.578,13.188-40.578l0.426-1.309h-9.551L587.308,40.109z"/>
		</g>
		<polygon fill="#949494" points="421.452,36.279 414.14,36.279 414.14,31.509 432.38,31.509 432.38,36.279 425.062,36.279 		"/>
		<path fill-rule="evenodd" clip-rule="evenodd" fill="#949494" d="M476.208,7.941c3.836,0,6.945,2.793,6.945,6.236v3.964
			c0,3.442-3.109,6.235-6.945,6.235h-23.387V10.067c0-1.174,1.016-2.126,2.268-2.126H476.208L476.208,7.941z M480.176,0.004
			c7.437,0,13.465,5.459,13.465,12.19v7.931c0,6.732-6.028,12.189-13.465,12.189h-27.354v24.385h-10.488V3.973
			c0-2.19,1.904-3.969,4.252-3.969H480.176L480.176,0.004z"/>
	</g>
</g>
<g id="Data" display="none">
	<g display="inline">
		<rect x="260.344" y="88.504" fill="#949494" width="285.538" height="1.588"/>
		<path fill-rule="evenodd" clip-rule="evenodd" fill="#EE7203" d="M590.769,81.396c1.325,0,2.398,0.965,2.398,2.154v1.367
			c0,1.189-1.073,2.154-2.398,2.154h-8.075v-4.941c0-0.404,0.351-0.734,0.783-0.734H590.769L590.769,81.396z M591.928,89.814
			l4.861,8.418h-3.617l-4.192-7.26c-0.399-0.689-1.202-1.158-2.127-1.158h-4.159v8.418h-3.621V80.027
			c0-0.758,0.657-1.371,1.468-1.371h11.599c2.568,0,4.65,1.885,4.65,4.209v2.74c0,2.322-2.082,4.209-4.65,4.209H591.928
			L591.928,89.814z"/>
		<path fill="#EE7203" d="M639.078,92.139c0-0.109,0-13.483,0-13.483h3.621v19.576c0,0-0.811,0-1.811,0
			c-0.622,0-1.172-0.238-1.498-0.6l-11.718-13.004c-0.035-0.041-0.087-0.066-0.145-0.066c-0.108,0-0.195,0.088-0.195,0.195
			c0,0.111,0,13.475,0,13.475h-3.622V78.656c0,0,0.81,0,1.81,0c0.624,0,1.172,0.238,1.498,0.602l11.718,13.012
			c0.036,0.041,0.087,0.064,0.144,0.064C638.99,92.334,639.078,92.246,639.078,92.139L639.078,92.139z"/>
		<path fill="#EE7203" d="M659.625,93.338c0,1.189,1.073,2.154,2.398,2.154h11.403v2.74h-12.774c-2.567,0-4.648-1.885-4.648-4.209
			V82.865c0-2.324,2.081-4.209,4.648-4.209h12.774v2.74h-11.403c-1.325,0-2.398,0.965-2.398,2.154V93.338L659.625,93.338z"/>
		<path fill-rule="evenodd" clip-rule="evenodd" fill="#EE7203" d="M604.109,93.338c0,1.189,1.072,2.154,2.397,2.154h6.559
			c1.324,0,2.397-0.965,2.397-2.154v-9.787c0-1.189-1.073-2.154-2.397-2.154h-6.559c-1.324,0-2.397,0.965-2.397,2.154V93.338
			L604.109,93.338z M605.137,98.232c-2.568,0-4.649-1.885-4.649-4.209V82.865c0-2.324,2.081-4.209,4.649-4.209h9.298
			c2.567,0,4.649,1.885,4.649,4.209v11.158c0,2.324-2.082,4.209-4.649,4.209H605.137L605.137,98.232z"/>
		<polygon fill="#EE7203" points="568.303,98.232 564.683,98.232 564.683,81.396 557.344,81.396 557.344,78.656 575.646,78.656 
			575.646,81.396 568.303,81.396 568.303,98.232 		"/>
		<path fill-rule="evenodd" clip-rule="evenodd" fill="#EE7203" d="M680.374,93.338c0,1.189,1.073,2.154,2.398,2.154h6.559
			c1.324,0,2.397-0.965,2.397-2.154v-9.785c0-1.191-1.073-2.154-2.397-2.154h-6.559c-1.325,0-2.398,0.963-2.398,2.154V93.338
			L680.374,93.338z M681.402,98.234c-2.568,0-4.648-1.887-4.648-4.209V82.867c0-2.326,2.08-4.209,4.648-4.209h9.299
			c2.566,0,4.648,1.883,4.648,4.209v11.158c0,2.322-2.082,4.209-4.648,4.209H681.402L681.402,98.234z"/>
		<polygon fill="#EE7203" points="651.315,98.234 647.692,98.234 647.692,78.658 651.315,78.658 651.315,98.234 		"/>
		<g>
			<polygon fill="#949494" points="292.084,56.697 281.596,56.697 281.596,7.943 260.344,7.943 260.344,0.006 313.352,0.006 
				313.352,7.943 292.084,7.943 292.084,56.697 			"/>
			<polygon fill="#949494" points="627.894,56.697 618.609,56.697 618.609,20.848 603.449,20.848 603.449,13.035 644.273,13.035 
				644.273,20.848 629.098,20.848 629.098,56.697 			"/>
			<path fill="#949494" d="M344.909,13.012H316.25c-2.275,0-4.127,1.758-4.127,3.918v39.768h9.712V40.231h24.261v16.466h9.713
				V22.974C355.809,17.48,350.919,13.012,344.909,13.012z M346.097,24.434v7.961h-24.262V21.41c0-0.311,0.299-0.562,0.667-0.562
				h19.489C344.255,20.848,346.097,22.456,346.097,24.434z"/>
			<path fill="#949494" d="M587.159,13.012H558.5c-2.275,0-4.127,1.758-4.127,3.918v39.768h9.712V40.231h24.261v16.466h9.713V22.974
				C598.059,17.48,593.169,13.012,587.159,13.012z M588.347,24.434v7.961h-24.262V21.41c0-0.311,0.299-0.562,0.667-0.562h19.489
				C586.505,20.848,588.347,22.456,588.347,24.434z"/>
			<path fill="#949494" d="M684.45,13.012h-28.659c-2.275,0-4.127,1.758-4.127,3.918v39.768h9.712V40.231h24.261v16.466h9.713
				V22.974C695.35,17.48,690.46,13.012,684.45,13.012z M685.638,24.434v7.961h-24.262V21.41c0-0.311,0.299-0.562,0.667-0.562h19.489
				C683.796,20.848,685.638,22.456,685.638,24.434z"/>
			<path fill="#949494" d="M418.276,16.93v35.85c0,2.16,1.852,3.918,4.127,3.918h34.974V48.86h-28.721
				c-0.362,0-0.668-0.233-0.668-0.511v-9.576h25.22v-7.838h-25.22v-9.577c0-0.276,0.306-0.511,0.668-0.511h28.721v-7.836h-34.974
				C420.128,13.012,418.276,14.769,418.276,16.93z"/>
			<path fill="#949494" d="M401.039,14.584l-14.027,15.559l-13.994-15.546c-0.903-1.004-2.373-1.604-3.932-1.604h-4.855v43.68
				l0.995,0.006c0,0,3.318,0.018,5.605,0.018c2.076,0,2.159-0.014,2.264-0.029l0.848-0.131V27.965l10.467,11.623h5.202
				l10.469-11.622v28.571l0.848,0.131c0.104,0.016,0.186,0.029,2.263,0.029c2.287,0,5.606-0.018,5.606-0.018l0.995-0.006v-43.68
				h-4.856C403.376,12.994,401.956,13.572,401.039,14.584z"/>
			<polygon fill="#949494" points="472.629,36.279 465.316,36.279 465.316,31.509 483.557,31.509 483.557,36.279 476.238,36.279 			
				"/>
			<path fill-rule="evenodd" clip-rule="evenodd" fill="#949494" d="M535.741,15.876c0-4.321-3.885-7.84-8.718-7.938h-20.485
				c-1.252,0-2.267,0.92-2.267,2.056l0.004,38.764l22.749,0.006c4.833-0.099,8.718-3.616,8.718-7.938V15.876L535.741,15.876z
				 M529.224,0.002c9.391,0,17.003,6.979,17.003,15.59V41.11c0,8.61-7.612,15.59-17.003,15.59l-35.438-0.006V3.971
				c0-2.192,1.903-3.969,4.25-3.969H529.224L529.224,0.002z"/>
		</g>
	</g>
</g>
<g id="Component">
	<g>
		<rect y="88.504" fill="#949494" width="545.882" height="1.588"/>
		<path fill-rule="evenodd" clip-rule="evenodd" fill="#EE7203" d="M590.769,81.396c1.325,0,2.398,0.965,2.398,2.154v1.367
			c0,1.189-1.073,2.154-2.398,2.154h-8.075v-4.941c0-0.404,0.351-0.734,0.783-0.734H590.769L590.769,81.396z M591.928,89.814
			l4.861,8.418h-3.617l-4.192-7.26c-0.399-0.689-1.202-1.158-2.127-1.158h-4.159v8.418h-3.621V80.027
			c0-0.758,0.657-1.371,1.468-1.371h11.599c2.568,0,4.65,1.885,4.65,4.209v2.74c0,2.322-2.082,4.209-4.65,4.209H591.928
			L591.928,89.814z"/>
		<path fill="#EE7203" d="M639.078,92.139c0-0.109,0-13.483,0-13.483h3.621v19.576c0,0-0.811,0-1.811,0
			c-0.622,0-1.172-0.238-1.498-0.6l-11.718-13.004c-0.035-0.041-0.087-0.066-0.145-0.066c-0.108,0-0.195,0.088-0.195,0.195
			c0,0.111,0,13.475,0,13.475h-3.622V78.656c0,0,0.81,0,1.81,0c0.624,0,1.172,0.238,1.498,0.602l11.718,13.012
			c0.036,0.041,0.087,0.064,0.144,0.064C638.99,92.334,639.078,92.246,639.078,92.139L639.078,92.139z"/>
		<path fill="#EE7203" d="M659.625,93.338c0,1.189,1.073,2.154,2.398,2.154h11.403v2.74h-12.774c-2.567,0-4.648-1.885-4.648-4.209
			V82.865c0-2.324,2.081-4.209,4.648-4.209h12.774v2.74h-11.403c-1.325,0-2.398,0.965-2.398,2.154V93.338L659.625,93.338z"/>
		<path fill-rule="evenodd" clip-rule="evenodd" fill="#EE7203" d="M604.109,93.338c0,1.189,1.072,2.154,2.397,2.154h6.559
			c1.324,0,2.397-0.965,2.397-2.154v-9.787c0-1.189-1.073-2.154-2.397-2.154h-6.559c-1.324,0-2.397,0.965-2.397,2.154V93.338
			L604.109,93.338z M605.137,98.232c-2.568,0-4.649-1.885-4.649-4.209V82.865c0-2.324,2.081-4.209,4.649-4.209h9.298
			c2.567,0,4.649,1.885,4.649,4.209v11.158c0,2.324-2.082,4.209-4.649,4.209H605.137L605.137,98.232z"/>
		<polygon fill="#EE7203" points="568.303,98.232 564.683,98.232 564.683,81.396 557.344,81.396 557.344,78.656 575.646,78.656 
			575.646,81.396 568.303,81.396 568.303,98.232 		"/>
		<path fill-rule="evenodd" clip-rule="evenodd" fill="#EE7203" d="M680.374,93.338c0,1.189,1.073,2.154,2.398,2.154h6.559
			c1.324,0,2.397-0.965,2.397-2.154v-9.785c0-1.191-1.073-2.154-2.397-2.154h-6.559c-1.325,0-2.398,0.963-2.398,2.154V93.338
			L680.374,93.338z M681.402,98.234c-2.568,0-4.648-1.887-4.648-4.209V82.867c0-2.326,2.08-4.209,4.648-4.209h9.299
			c2.566,0,4.648,1.883,4.648,4.209v11.158c0,2.322-2.082,4.209-4.648,4.209H681.402L681.402,98.234z"/>
		<polygon fill="#EE7203" points="651.315,98.234 647.692,98.234 647.692,78.658 651.315,78.658 651.315,98.234 		"/>
		<g>
			<polygon fill="#949494" points="31.74,56.697 21.252,56.697 21.252,7.943 0,7.943 0,0.006 53.008,0.006 53.008,7.943 
				31.74,7.943 31.74,56.697 			"/>
			<polygon fill="#949494" points="678.971,56.697 669.686,56.697 669.686,20.848 654.525,20.848 654.525,13.035 695.35,13.035 
				695.35,20.848 680.174,20.848 680.174,56.697 			"/>
			<path fill="#949494" d="M84.565,13.012H55.906c-2.275,0-4.127,1.758-4.127,3.918v39.768h9.712V40.231h24.261v16.466h9.713V22.974
				C95.465,17.48,90.575,13.012,84.565,13.012z M85.753,24.434v7.961H61.491V21.41c0-0.311,0.299-0.562,0.667-0.562h19.489
				C83.911,20.848,85.753,22.456,85.753,24.434z"/>
			<path fill="#949494" d="M157.933,16.93v35.85c0,2.16,1.852,3.918,4.127,3.918h34.974V48.86h-28.721
				c-0.362,0-0.668-0.233-0.668-0.511v-9.576h25.22v-7.838h-25.22v-9.577c0-0.276,0.306-0.511,0.668-0.511h28.721v-7.836H162.06
				C159.784,13.012,157.933,14.769,157.933,16.93z"/>
			<path fill="#949494" d="M556.015,16.93v35.85c0,2.16,1.852,3.918,4.127,3.918h34.974V48.86h-28.721
				c-0.362,0-0.668-0.233-0.668-0.511v-9.576h25.22v-7.838h-25.22v-9.577c0-0.276,0.306-0.511,0.668-0.511h28.721v-7.836h-34.974
				C557.866,13.012,556.015,14.769,556.015,16.93z"/>
			<path fill="#949494" d="M140.695,14.584l-14.027,15.559l-13.994-15.546c-0.903-1.004-2.373-1.604-3.932-1.604h-4.855v43.68
				l0.995,0.006c0,0,3.318,0.018,5.605,0.018c2.076,0,2.159-0.014,2.264-0.029l0.848-0.131V27.965l10.467,11.623h5.202
				l10.469-11.622v28.571l0.848,0.131c0.105,0.016,0.186,0.029,2.263,0.029c2.287,0,5.607-0.018,5.607-0.018l0.995-0.006v-43.68
				h-4.857C143.032,12.994,141.612,13.572,140.695,14.584z"/>
			<path fill="#949494" d="M383.43,14.584l-14.027,15.559l-13.994-15.546c-0.903-1.004-2.373-1.604-3.932-1.604h-4.855v43.68
				l0.995,0.006c0,0,3.318,0.018,5.605,0.018c2.076,0,2.159-0.014,2.264-0.029l0.848-0.131V27.965L366.8,39.588h5.202l10.469-11.622
				v28.571l0.848,0.131c0.104,0.016,0.186,0.029,2.263,0.029c2.287,0,5.606-0.018,5.606-0.018l0.995-0.006v-43.68h-4.856
				C385.767,12.994,384.347,13.572,383.43,14.584z"/>
			<polygon fill="#949494" points="212.285,36.279 204.973,36.279 204.973,31.509 223.213,31.509 223.213,36.279 215.895,36.279 			
				"/>
			<path fill="#949494" d="M243.93,42.52c0,3.443,3.109,6.236,6.945,6.236h33.023v7.937h-36.992
				c-7.436,0-13.464-5.458-13.464-12.189V12.188C233.442,5.457,239.47,0,246.906,0h36.992v7.937h-33.023
				c-3.835,0-6.945,2.792-6.945,6.236V42.52L243.93,42.52z"/>
			<path fill-rule="evenodd" clip-rule="evenodd" fill="#949494" d="M303.52,44.625c0,2.374,2.143,4.3,4.787,4.3h13.096
				c2.644,0,4.787-1.926,4.787-4.3V25.082c0-2.375-2.143-4.3-4.787-4.3h-13.096c-2.644,0-4.787,1.925-4.787,4.3V44.625
				L303.52,44.625z M304.478,56.698c-5.73,0-10.375-4.207-10.375-9.394V22.401c0-5.188,4.645-9.393,10.375-9.393h20.754
				c5.73,0,10.375,4.205,10.375,9.393v24.903c0,5.187-4.645,9.394-10.375,9.394H304.478L304.478,56.698z"/>
			<path fill-rule="evenodd" clip-rule="evenodd" fill="#949494" d="M460.207,44.625c0,2.374,2.145,4.3,4.788,4.3h13.096
				c2.644,0,4.788-1.926,4.788-4.3V25.082c0-2.375-2.145-4.3-4.788-4.3h-13.096c-2.643,0-4.788,1.925-4.788,4.3V44.625
				L460.207,44.625z M461.166,56.698c-5.73,0-10.375-4.207-10.375-9.394V22.401c0-5.188,4.645-9.393,10.375-9.393h20.754
				c5.73,0,10.375,4.205,10.375,9.393v24.903c0,5.187-4.645,9.394-10.375,9.394H461.166L461.166,56.698z"/>
			<path fill-rule="evenodd" clip-rule="evenodd" fill="#949494" d="M429.495,20.782c2.956,0,4.066,1.152,4.066,3.807v2.73
				c0,2.654-1.109,3.806-4.066,3.806h-16.498v-8.704c0-0.905,0.781-1.639,1.747-1.639H429.495L429.495,20.782z M432.552,13.018
				c5.73,0,10.377,4.205,10.377,9.393v7.112c0,5.188-4.646,9.394-10.377,9.394h-19.555v17.791h-9.607V16.075
				c0-1.688,1.467-3.058,3.277-3.058H432.552L432.552,13.018z"/>
			<path fill="#949494" d="M535.711,39.98c0-0.241,0-26.973,0-26.973h9.685v43.69c0,0-1.809,0-4.041,0
				c-1.39,0-3.153-0.229-3.882-1.036l-24.066-26.88c-0.079-0.088-0.193-0.143-0.323-0.143c-0.241,0-0.437,0.195-0.437,0.436
				c0,0.242,0,27.623,0,27.623h-9.629v-43.69c0,0,1.809,0,4.041,0c1.389,0,3.674,0.531,4.401,1.34l23.492,25.928
				c0.08,0.087,0.194,0.143,0.322,0.143C535.515,40.418,535.711,40.222,535.711,39.98L535.711,39.98z"/>
			<path fill="#949494" d="M636.438,39.98c0-0.241,0-26.973,0-26.973h9.685v43.69c0,0-1.809,0-4.041,0
				c-1.39,0-3.153-0.229-3.882-1.036l-24.066-26.88c-0.079-0.088-0.193-0.143-0.323-0.143c-0.241,0-0.436,0.195-0.436,0.436
				c0,0.242,0,27.623,0,27.623h-9.629v-43.69c0,0,1.809,0,4.041,0c1.389,0,3.674,0.531,4.401,1.34l23.492,25.928
				c0.08,0.087,0.194,0.143,0.322,0.143C636.241,40.418,636.438,40.222,636.438,39.98L636.438,39.98z"/>
		</g>
	</g>
</g>
</svg>
