<?xml version="1.0" encoding="utf-8"?>
<!-- Generator: Adobe Illustrator 15.0.2, SVG Export Plug-In . SVG Version: 6.00 Build 0)  -->
<!DOCTYPE svg PUBLIC "-//W3C//DTD SVG 1.1//EN" "http://www.w3.org/Graphics/SVG/1.1/DTD/svg11.dtd">
<svg version="1.1" id="Calque_3" xmlns="http://www.w3.org/2000/svg" xmlns:xlink="http://www.w3.org/1999/xlink" x="0px" y="0px"
	 width="486.915px" height="98.23px" viewBox="0 0 486.915 98.23" enable-background="new 0 0 486.915 98.23" xml:space="preserve">
<g>
	<rect y="88.5" fill="#949494" width="336.715" height="1.588"/>
	<path fill-rule="evenodd" clip-rule="evenodd" fill="#EE7203" d="M381.602,81.393c1.325,0,2.398,0.965,2.398,2.154v1.367
		c0,1.189-1.073,2.154-2.398,2.154h-8.075v-4.941c0-0.404,0.351-0.734,0.783-0.734H381.602L381.602,81.393z M382.761,89.811
		l4.861,8.418h-3.617l-4.192-7.26c-0.399-0.689-1.202-1.158-2.127-1.158h-4.159v8.418h-3.621V80.023
		c0-0.758,0.657-1.371,1.468-1.371h11.599c2.568,0,4.65,1.885,4.65,4.209v2.74c0,2.322-2.082,4.209-4.65,4.209H382.761
		L382.761,89.811z"/>
	<path fill="#EE7203" d="M429.911,92.135c0-0.109,0-13.482,0-13.482h3.621v19.576c0,0-0.811,0-1.811,0
		c-0.622,0-1.172-0.238-1.498-0.6l-11.718-13.004c-0.035-0.041-0.087-0.066-0.145-0.066c-0.108,0-0.195,0.088-0.195,0.195
		c0,0.111,0,13.475,0,13.475h-3.622V78.652c0,0,0.811,0,1.811,0c0.624,0,1.172,0.238,1.498,0.602l11.718,13.012
		c0.036,0.041,0.087,0.064,0.144,0.064C429.823,92.33,429.911,92.242,429.911,92.135L429.911,92.135z"/>
	<path fill="#EE7203" d="M450.458,93.334c0,1.189,1.073,2.154,2.398,2.154h11.403v2.74h-12.774c-2.567,0-4.648-1.885-4.648-4.209
		V82.861c0-2.324,2.081-4.209,4.648-4.209h12.774v2.74h-11.403c-1.325,0-2.398,0.965-2.398,2.154V93.334L450.458,93.334z"/>
	<path fill-rule="evenodd" clip-rule="evenodd" fill="#EE7203" d="M394.942,93.334c0,1.189,1.072,2.154,2.396,2.154h6.559
		c1.324,0,2.397-0.965,2.397-2.154v-9.787c0-1.189-1.073-2.154-2.397-2.154h-6.559c-1.324,0-2.396,0.965-2.396,2.154V93.334
		L394.942,93.334z M395.97,98.229c-2.568,0-4.649-1.885-4.649-4.209V82.861c0-2.324,2.081-4.209,4.649-4.209h9.298
		c2.567,0,4.649,1.885,4.649,4.209V94.02c0,2.324-2.082,4.209-4.649,4.209H395.97L395.97,98.229z"/>
	<polygon fill="#EE7203" points="359.136,98.229 355.516,98.229 355.516,81.393 348.177,81.393 348.177,78.652 366.479,78.652 
		366.479,81.393 359.136,81.393 359.136,98.229 	"/>
	<path fill-rule="evenodd" clip-rule="evenodd" fill="#EE7203" d="M471.207,93.334c0,1.189,1.073,2.154,2.398,2.154h6.559
		c1.324,0,2.397-0.965,2.397-2.154v-9.785c0-1.191-1.073-2.154-2.397-2.154h-6.559c-1.325,0-2.398,0.963-2.398,2.154V93.334
		L471.207,93.334z M472.235,98.23c-2.568,0-4.648-1.887-4.648-4.209V82.863c0-2.326,2.08-4.209,4.648-4.209h9.299
		c2.566,0,4.648,1.883,4.648,4.209v11.158c0,2.322-2.082,4.209-4.648,4.209H472.235L472.235,98.23z"/>
	<polygon fill="#EE7203" points="442.147,98.23 438.525,98.23 438.525,78.654 442.147,78.654 442.147,98.23 	"/>
	<polygon fill="#949494" points="31.74,56.693 21.252,56.693 21.252,7.939 0,7.939 0,0.002 53.008,0.002 53.008,7.939 31.74,7.939 
		31.74,56.693 	"/>
	<g>
		<path fill="#949494" d="M84.565,13.008H55.906c-2.275,0-4.127,1.758-4.127,3.918v39.768h9.712V40.228h24.261v16.466h9.713V22.97
			C95.465,17.477,90.575,13.008,84.565,13.008z M85.753,24.43v7.961H61.491V21.406c0-0.311,0.299-0.562,0.667-0.562h19.489
			C83.911,20.844,85.753,22.452,85.753,24.43z"/>
		<path fill="#949494" d="M476.531,38.709c5.424-0.566,9.651-4.787,9.651-9.893v-5.828c0-5.491-4.888-9.959-10.896-9.959h-24.686
			c-2.274,0-4.124,1.758-4.124,3.917v39.747h9.708v-17.92h7.849c1.555,0,2.958,0.754,3.662,1.969l9.211,15.951h10.008
			L476.531,38.709z M476.477,24.445v2.913c0,1.975-1.841,3.581-4.104,3.581h-16.187v-9.514c0-0.311,0.299-0.562,0.666-0.562h15.521
			C474.636,20.863,476.477,22.471,476.477,24.445z"/>
		<path fill="#949494" d="M400.005,16.946v35.83c0,2.159,1.851,3.917,4.125,3.917h34.955v-7.834h-28.706
			c-0.361,0-0.666-0.233-0.666-0.51v-9.57h25.205v-7.836h-25.205v-9.57c0-0.276,0.305-0.51,0.666-0.51h28.706v-7.834H404.13
			C401.855,13.029,400.005,14.787,400.005,16.946z"/>
		<path fill="#949494" d="M157.933,16.926v35.85c0,2.16,1.852,3.918,4.127,3.918h34.974v-7.837h-28.721
			c-0.362,0-0.668-0.233-0.668-0.511V38.77h25.22v-7.838h-25.22v-9.577c0-0.276,0.306-0.511,0.668-0.511h28.721v-7.836H162.06
			C159.784,13.008,157.933,14.766,157.933,16.926z"/>
		<path fill="#949494" d="M140.695,14.58l-14.027,15.56l-13.994-15.546c-0.903-1.004-2.373-1.604-3.932-1.604h-4.855v43.68
			l0.995,0.006c0,0,3.318,0.018,5.605,0.018c2.076,0,2.159-0.014,2.264-0.029l0.848-0.131V27.961l10.467,11.623h5.202l10.469-11.622
			v28.571l0.848,0.131c0.104,0.016,0.187,0.029,2.263,0.029c2.287,0,5.606-0.018,5.606-0.018l0.995-0.006V12.99h-4.856
			C143.032,12.99,141.612,13.568,140.695,14.58z"/>
		<path fill="#949494" d="M319.832,13.029h-19.79c-6.008,0-10.896,4.467-10.896,9.957v23.748c0,5.491,4.888,9.959,10.896,9.959
			h19.79c6.007,0,10.895-4.468,10.895-9.959V22.986C330.727,17.496,325.839,13.029,319.832,13.029z M321.02,24.444v20.831
			c0,1.977-1.841,3.584-4.104,3.584h-13.957c-2.263,0-4.104-1.607-4.104-3.584V24.444c0-1.976,1.841-3.582,4.104-3.582h13.957
			C319.179,20.862,321.02,22.469,321.02,24.444z"/>
		<path fill="#949494" d="M378.141,40.105l-8.798-27.074h-8.431l-8.812,27.07l-8.796-27.07h-9.552l0.426,1.309
			c0,0,13.106,40.326,13.188,40.578c0.343,1.062,1.322,1.775,2.438,1.775h4.606c1.114,0,2.095-0.712,2.438-1.768
			c0.04-0.121,5.93-18.25,8.278-25.479c2.346,7.217,8.22,25.293,8.277,25.472c0.343,1.062,1.322,1.774,2.439,1.774h4.605
			c1.115,0,2.096-0.713,2.438-1.775c0.066-0.202,13.188-40.578,13.188-40.578l0.426-1.309h-9.551L378.141,40.105z"/>
	</g>
	<polygon fill="#949494" points="212.285,36.275 204.973,36.275 204.973,31.505 223.213,31.505 223.213,36.275 215.895,36.275 	"/>
	<path fill-rule="evenodd" clip-rule="evenodd" fill="#949494" d="M267.041,7.938c3.836,0,6.945,2.793,6.945,6.236v3.964
		c0,3.442-3.109,6.235-6.945,6.235h-23.387v-14.31c0-1.174,1.016-2.126,2.268-2.126H267.041L267.041,7.938z M271.009,0
		c7.437,0,13.465,5.459,13.465,12.189v7.931c0,6.732-6.028,12.189-13.465,12.189h-27.354v24.385h-10.488V3.969
		c0-2.19,1.904-3.969,4.252-3.969H271.009L271.009,0z"/>
</g>
</svg>
