<?xml version="1.0" encoding="utf-8"?>
<!-- Generator: Adobe Illustrator 15.0.2, SVG Export Plug-In . SVG Version: 6.00 Build 0)  -->
<!DOCTYPE svg PUBLIC "-//W3C//DTD SVG 1.1//EN" "http://www.w3.org/Graphics/SVG/1.1/DTD/svg11.dtd">
<svg version="1.1" id="Calque_1" xmlns="http://www.w3.org/2000/svg" xmlns:xlink="http://www.w3.org/1999/xlink" x="0px" y="0px"
	 width="338.726px" height="150px" viewBox="0 0 338.726 150" enable-background="new 0 0 338.726 150" xml:space="preserve">
<g>
	<g>
		<polygon fill="#949597" points="271.42,90.366 254.709,90.366 254.709,12.684 220.848,12.684 220.848,0.037 305.308,0.037 
			305.308,12.684 271.42,12.684 271.42,90.366 		"/>
		<path fill="#949597" d="M127.586,26.386c-0.165-0.187-0.407-0.305-0.676-0.305c-0.5,0-0.904,0.405-0.904,0.902v63.345
			c-0.544,0.081-16.71,0-16.71,0V0h8.355c2.871,0,5.405,1.086,6.911,2.757l31.929,35.475l32.01-35.506
			C190.011,1.061,192.509,0,195.332,0h8.355v90.328c0,0-16.167,0.081-16.711,0V26.983c0-0.498-0.405-0.902-0.902-0.902
			c-0.265,0-0.501,0.112-0.667,0.292l-24.247,26.918h-9.338L127.586,26.386L127.586,26.386z"/>
		<path fill-rule="evenodd" clip-rule="evenodd" fill="#949597" d="M16.71,38.883V16.076c0-1.871,1.617-3.388,3.613-3.388h30.487
			c6.112,0,11.066,4.449,11.066,9.937v6.322c0,5.489-4.954,9.936-11.066,9.936H16.71L16.71,38.883z M16.71,51.529h43.134
			c6.11,0,11.066,4.447,11.066,9.937v6.32c0,5.489-4.956,9.939-11.066,9.939H16.71V51.529L16.71,51.529z M57.132,0.043
			c11.849,0,21.453,8.695,21.453,19.418V32.11c0,3.247-0.882,6.31-2.438,9c6.82,3.25,11.471,9.732,11.471,17.192v12.649
			c0,10.724-9.605,19.418-21.454,19.418H0V6.365c0-3.493,3.032-6.322,6.775-6.322H57.132L57.132,0.043z"/>
		<polygon fill="#949597" points="338.726,90.369 322.015,90.369 322.015,0.043 338.726,0.043 338.726,90.369 		"/>
	</g>
	<g>
		<path fill="#EC7404" d="M94.541,118.917v25.595c0,0.622,0.557,1.127,1.243,1.127h20.66v4.351h-25.32
			c-1.288,0-2.331-0.975-2.331-2.176v-28.896H94.541L94.541,118.917z"/>
		<path fill="#EC7404" d="M127.006,142.222c0,1.886,1.704,3.417,3.806,3.417h10.409c2.103,0,3.806-1.531,3.806-3.417v-2.176
			c0-1.889-1.704-3.419-3.806-3.419h-12.584c-4.075,0-7.378-2.991-7.378-6.679v-4.351c0-3.688,3.303-6.681,7.378-6.681h14.758
			c4.077,0,7.38,2.993,7.38,6.681v1.086h-5.748c0-1.885-1.704-3.417-3.806-3.417h-10.409c-2.102,0-3.806,1.532-3.806,3.417v2.176
			c0,1.889,1.704,3.42,3.806,3.42h12.583c4.077,0,7.38,2.987,7.38,6.678v4.351c0,3.69-3.303,6.682-7.38,6.682h-14.758
			c-4.075,0-7.378-2.991-7.378-6.682v-1.086H127.006L127.006,142.222z"/>
		<path fill-rule="evenodd" clip-rule="evenodd" fill="#EC7404" d="M75.122,133.366H55.548v-8.931c0-0.645,0.558-1.165,1.243-1.165
			h14.525c2.102,0,3.806,1.529,3.806,3.418V133.366L75.122,133.366z M73.49,118.917c4.077,0,7.38,2.993,7.38,6.681v24.392h-5.748
			v-12.274H55.548v12.274h-5.748v-28.894c0-1.201,1.044-2.179,2.331-2.179H73.49L73.49,118.917z"/>
		<path fill="#EC7404" d="M164.693,123.274c-0.685,0-1.242,0.507-1.242,1.126v7.886h18.798v4.351h-18.798v7.883
			c0,0.622,0.557,1.126,1.242,1.126h20.662v4.351h-25.321c-1.287,0-2.331-0.974-2.331-2.175v-26.722
			c0-1.198,1.044-2.176,2.331-2.176h25.321v4.351H164.693L164.693,123.274z"/>
		<path fill="#EC7404" d="M237.516,127.995c-0.057-0.065-0.14-0.105-0.233-0.105c-0.171,0-0.312,0.137-0.312,0.311v21.786
			c-0.187,0.031-5.747,0-5.747,0v-31.068h2.876c0.985,0,1.857,0.376,2.374,0.949l10.981,12.201l11.013-12.211
			c0.52-0.572,1.376-0.939,2.35-0.939h2.872v31.068c0,0-5.561,0.031-5.747,0V128.2c0-0.174-0.141-0.311-0.312-0.311
			c-0.091,0-0.171,0.036-0.228,0.1l-8.34,9.26h-3.211L237.516,127.995L237.516,127.995z"/>
		<path fill-rule="evenodd" clip-rule="evenodd" fill="#EC7404" d="M217.709,133.378h-19.574v-8.931
			c0-0.645,0.557-1.168,1.241-1.168h14.527c2.1,0,3.806,1.531,3.806,3.42V133.378L217.709,133.378z M216.078,118.933
			c4.074,0,7.379,2.99,7.379,6.678v24.388h-5.747v-12.271h-19.574v12.271h-5.748v-28.894c0-1.201,1.042-2.172,2.331-2.172H216.078
			L216.078,118.933z"/>
		<path fill-rule="evenodd" clip-rule="evenodd" fill="#EC7404" d="M296.875,133.378h-19.574v-8.931
			c0-0.645,0.557-1.168,1.241-1.168h14.527c2.1,0,3.806,1.531,3.806,3.42V133.378L296.875,133.378z M295.245,118.933
			c4.076,0,7.378,2.987,7.378,6.678v24.388h-5.747v-12.271h-19.574v12.271h-5.747v-28.894c0-1.201,1.042-2.172,2.33-2.172H295.245
			L295.245,118.933z"/>
		<path fill-rule="evenodd" clip-rule="evenodd" fill="#EC7404" d="M329.173,123.28c2.104,0,3.81,1.531,3.81,3.42v2.169
			c0,1.89-1.706,3.42-3.81,3.42h-12.814v-7.841c0-0.645,0.557-1.168,1.241-1.168H329.173L329.173,123.28z M331.012,136.636
			l7.714,13.362h-5.737l-6.653-11.521c-0.635-1.095-1.908-1.842-3.376-1.842h-6.601v13.362h-5.748v-28.894
			c0-1.201,1.042-2.172,2.33-2.172h18.407c4.077,0,7.378,2.99,7.378,6.678v4.347c0,3.69-3.301,6.679-7.378,6.679H331.012
			L331.012,136.636z"/>
	</g>
	<line fill="none" stroke="#949597" stroke-width="3.1866" x1="29.654" y1="134.458" x2="0" y2="134.458"/>
</g>
</svg>
