<?xml version="1.0" encoding="utf-8"?>
<!-- Generator: Adobe Illustrator 21.1.0, SVG Export Plug-In . SVG Version: 6.00 Build 0)  -->
<svg version="1.1" id="Calque_1" xmlns="http://www.w3.org/2000/svg" xmlns:xlink="http://www.w3.org/1999/xlink" x="0px" y="0px"
	 viewBox="0 0 159.9 30" style="enable-background:new 0 0 159.9 30;" xml:space="preserve">
<style type="text/css">
	.st0{fill-rule:evenodd;clip-rule:evenodd;fill:#ED7203;}
	.st1{fill:#939393;}
	.st2{fill:#4565AC;}
	.st3{fill-rule:evenodd;clip-rule:evenodd;fill:#4565AC;}
</style>
<g>
	<path class="st0" d="M110.9,25.6c0.6,0,1.1,0.4,1.1,1l0,3.5h-0.8v-3.3c0-0.3-0.2-0.5-0.5-0.5h-1.7v-0.6H110.9L110.9,25.6z
		 M108.4,27.6h2.3v0.6h-2.3V30h-0.8v-4.4h0.8V27.6L108.4,27.6z M118.5,28.9c0,0.3,0.2,0.5,0.5,0.5h2.6V30h-2.9c-0.6,0-1.1-0.4-1.1-1
		v-2.5c0-0.5,0.5-1,1.1-1h2.9v0.6H119c-0.3,0-0.5,0.2-0.5,0.5V28.9L118.5,28.9z M123.6,26.2c-0.1,0-0.2,0.1-0.2,0.2v1.1h2.7v0.6
		h-2.7v1.1c0,0.1,0.1,0.2,0.2,0.2h2.9V30h-3.6c-0.2,0-0.3-0.1-0.3-0.3v-3.8c0-0.2,0.1-0.3,0.3-0.3h3.6v0.6H123.6L123.6,26.2z
		 M113.9,29.2c0,0.1,0.1,0.2,0.2,0.2h2.9V30h-3.5c-0.2,0-0.3-0.1-0.3-0.3l0-4.1h0.8V29.2L113.9,29.2z M131.1,28.7
		C131.1,28.7,131.1,28.6,131.1,28.7l0.1-3.1h0.8V30h-0.4c-0.1,0-0.3-0.1-0.3-0.1l-2.7-3c-0.1,0-0.1,0-0.1,0l0,3.1h-0.8v-4.1v-0.3
		h0.4c0.1,0,0.3,0.1,0.3,0.1L131.1,28.7L131.1,28.7z"/>
	<path class="st1" d="M159.9,28h-25.7v-1h25.7V28z M105.3,28H0v-1h105.3V28z M159.9,1H0V0h159.9V1z"/>
	<path class="st2" d="M58.7,9.8c-0.3,0-0.5,0.2-0.5,0.5v3.2h7.7v1.8h-7.7v3.2c0,0.3,0.2,0.5,0.5,0.5h8.4v1.8H56.8
		c-0.5,0-1-0.4-1-0.9V8.9c0-0.5,0.4-0.9,1-0.9h10.3v1.8H58.7L58.7,9.8z"/>
	<path class="st2" d="M109.5,9.8c-0.3,0-0.5,0.2-0.5,0.5v3.2h7.7v1.8H109v3.2c0,0.3,0.2,0.5,0.5,0.5h8.4v1.8h-10.3
		c-0.5,0-1-0.4-1-0.9V8.9c0-0.5,0.4-0.9,1-0.9H118v1.8H109.5L109.5,9.8z"/>
	<polygon class="st2" points="52.9,8 52.9,20.7 50.6,20.7 50.6,15.2 43.4,15.2 43.4,20.7 41.1,20.7 41.1,8 43.4,8 43.4,13.4 
		50.6,13.4 50.6,8 52.9,8 	"/>
	<polygon class="st2" points="94.9,20.7 92.5,20.7 92.5,9.8 87.8,9.8 87.8,8 99.6,8 99.6,9.8 94.9,9.8 94.9,20.7 	"/>
	<path class="st3" d="M77.3,9.8c0.9,0,1.6,0.6,1.6,1.4V12c0,0.8-0.7,1.4-1.6,1.4h-5.2v-3.2c0-0.3,0.2-0.5,0.5-0.5H77.3L77.3,9.8z
		 M78.1,15.2l3.2,5.5h-2.3L76.1,16c-0.3-0.4-0.8-0.8-1.4-0.8h-2.7v5.5h-2.3V8.9c0-0.5,0.4-0.9,1-0.9h7.5c1.7,0,3,1.2,3,2.7v1.8
		c0,1.5-1.3,2.7-3,2.7H78.1L78.1,15.2z"/>
	<path class="st2" d="M30.3,8l0,10.5c0,0.3,0.2,0.5,0.5,0.5h8.4v1.8H28.9c-0.5,0-1-0.4-1-0.9V8H30.3L30.3,8z"/>
	<path class="st3" d="M128.1,9.8c0.9,0,1.6,0.6,1.6,1.4V12c0,0.8-0.7,1.4-1.6,1.4h-5.2v-3.2c0-0.3,0.2-0.5,0.5-0.5H128.1L128.1,9.8z
		 M128.8,15.2l3.2,5.5h-2.3l-2.7-4.7c-0.3-0.4-0.8-0.8-1.4-0.8h-2.7v5.5h-2.3V8.9c0-0.5,0.4-0.9,1-0.9h7.5c1.7,0,3,1.2,3,2.7v1.8
		c0,1.5-1.3,2.7-3,2.7H128.8L128.8,15.2z"/>
	<polygon class="st2" points="103.7,20.7 101.4,20.7 101.4,8 103.7,8 103.7,20.7 	"/>
	<polygon class="st2" points="86,20.7 83.6,20.7 83.6,8 86,8 86,20.7 	"/>
</g>
</svg>
