<?xml version="1.0" encoding="utf-8"?>
<!-- Generator: Adobe Illustrator 21.1.0, SVG Export Plug-In . SVG Version: 6.00 Build 0)  -->
<svg version="1.1" id="Calque_1" xmlns="http://www.w3.org/2000/svg" xmlns:xlink="http://www.w3.org/1999/xlink" x="0px" y="0px"
	 viewBox="0 0 141.5 30" style="enable-background:new 0 0 141.5 30;" xml:space="preserve">
<style type="text/css">
	.st0{fill-rule:evenodd;clip-rule:evenodd;fill:#ED7203;}
	.st1{fill:#939393;}
	.st2{fill:#4565AC;}
	.st3{fill-rule:evenodd;clip-rule:evenodd;fill:#4565AC;}
</style>
<g>
	<path class="st0" d="M92.5,25.6c0.6,0,1.1,0.4,1.1,1l0,3.5h-0.8v-3.3c0-0.3-0.2-0.5-0.5-0.5h-1.7v-0.6H92.5L92.5,25.6z M89.9,27.6
		h2.3v0.6h-2.3V30h-0.8v-4.4h0.8V27.6L89.9,27.6z M100.1,28.9c0,0.3,0.2,0.5,0.5,0.5h2.6V30h-2.9c-0.6,0-1.1-0.4-1.1-1v-2.5
		c0-0.5,0.5-1,1.1-1h2.9v0.6h-2.6c-0.3,0-0.5,0.2-0.5,0.5V28.9L100.1,28.9z M105.2,26.2c-0.1,0-0.2,0.1-0.2,0.2v1.1h2.7v0.6H105v1.1
		c0,0.1,0.1,0.2,0.2,0.2h2.9V30h-3.6c-0.2,0-0.3-0.1-0.3-0.3v-3.8c0-0.2,0.1-0.3,0.3-0.3h3.6v0.6H105.2L105.2,26.2z M95.5,29.2
		c0,0.1,0.1,0.2,0.2,0.2h2.9V30H95c-0.2,0-0.3-0.1-0.3-0.3l0-4.1h0.8V29.2L95.5,29.2z M112.7,28.7C112.7,28.7,112.7,28.6,112.7,28.7
		l0.1-3.1h0.8V30h-0.4c-0.1,0-0.3-0.1-0.3-0.1l-2.7-3c-0.1,0-0.1,0-0.1,0V30h-0.8v-4.1v-0.3h0.4c0.1,0,0.3,0.1,0.3,0.1L112.7,28.7
		L112.7,28.7z"/>
	<path class="st1" d="M141.5,28.5h-25.7v-1h25.7V28.5z M86.9,28.5H0v-1h86.9V28.5z M141.5,1H0V0h141.5V1z"/>
	<path class="st2" d="M46.2,8l0,10.5c0,0.3,0.2,0.5,0.5,0.5h8.4v1.8H44.8c-0.5,0-1-0.4-1-0.9V8H46.2L46.2,8z"/>
	<path class="st2" d="M78.5,15.3c-0.1,0.2-0.2,0.4-0.2,0.6v4.9H76v-4.9c0-0.2-0.1-0.4-0.2-0.6L70.7,8h2.7l3.7,5.3L80.9,8h2.7
		L78.5,15.3L78.5,15.3z"/>
	<path class="st2" d="M102.9,11.7C102.9,11.7,102.8,11.6,102.9,11.7c-0.2,0-0.2,0-0.2,0.1v8.9c-0.1,0-2.3,0-2.3,0V8h1.2
		c0.4,0,0.8,0.2,1,0.4l4.5,5l4.5-5c0.2-0.2,0.6-0.4,1-0.4h1.2v12.7c0,0-2.3,0-2.3,0v-8.9c0-0.1-0.1-0.1-0.1-0.1c0,0-0.1,0-0.1,0
		l-3.4,3.8h-1.3L102.9,11.7L102.9,11.7z"/>
	<path class="st2" d="M59.5,17.5c0,0.8,0.7,1.4,1.6,1.4h4.3c0.9,0,1.6-0.6,1.6-1.4v-0.9c0-0.8-0.7-1.4-1.6-1.4h-5.1
		c-1.7,0-3-1.2-3-2.7v-1.8c0-1.5,1.3-2.7,3-2.7h6c1.7,0,3,1.2,3,2.7v0.4h-2.3c0-0.8-0.7-1.4-1.6-1.4H61c-0.9,0-1.6,0.6-1.6,1.4V12
		c0,0.8,0.7,1.4,1.6,1.4h5.1c1.7,0,3,1.2,3,2.7v1.8c0,1.5-1.3,2.7-3,2.7h-6c-1.7,0-3-1.2-3-2.7v-0.4H59.5L59.5,17.5z"/>
	<path class="st3" d="M87.5,17.5c0,0.8,0.7,1.4,1.6,1.4h4.3c0.9,0,1.6-0.6,1.6-1.4v-6.3c0-0.8-0.7-1.4-1.6-1.4h-4.3
		c-0.9,0-1.6,0.6-1.6,1.4V17.5L87.5,17.5z M88.2,20.7c-1.7,0-3-1.2-3-2.7v-7.2c0-1.5,1.3-2.7,3-2.7h6c1.7,0,3,1.2,3,2.7v7.2
		c0,1.5-1.3,2.7-3,2.7H88.2L88.2,20.7z"/>
	<path class="st3" d="M38.3,13.9h-8l0-3.6c0-0.3,0.2-0.5,0.5-0.5h5.9c0.9,0,1.6,0.6,1.6,1.4V13.9L38.3,13.9z M37.6,8
		c1.7,0,3,1.2,3,2.7l0,10h-2.3l0-5h-8v5h-2.3V8.9c0-0.5,0.4-0.9,1-0.9H37.6L37.6,8z"/>
</g>
</svg>
