<?xml version="1.0" encoding="utf-8"?>
<!-- Generator: Adobe Illustrator 21.1.0, SVG Export Plug-In . SVG Version: 6.00 Build 0)  -->
<svg version="1.1" id="Calque_1" xmlns="http://www.w3.org/2000/svg" xmlns:xlink="http://www.w3.org/1999/xlink" x="0px" y="0px"
	 viewBox="0 0 160.3 30" style="enable-background:new 0 0 160.3 30;" xml:space="preserve">
<style type="text/css">
	.st0{fill-rule:evenodd;clip-rule:evenodd;fill:#ED7203;}
	.st1{fill:#939393;}
	.st2{fill-rule:evenodd;clip-rule:evenodd;fill:#4565AC;}
	.st3{fill:#4565AC;}
</style>
<g>
	<path class="st0" d="M111.3,25.6c0.6,0,1.1,0.4,1.1,1V30h-0.8l0-3.3c0-0.3-0.2-0.5-0.5-0.5h-1.7v-0.6H111.3L111.3,25.6z
		 M108.8,27.6h2.3v0.6h-2.3V30H108v-4.4h0.8V27.6L108.8,27.6z M118.9,28.9c0,0.3,0.2,0.5,0.5,0.5h2.6V30h-2.9c-0.6,0-1.1-0.4-1.1-1
		v-2.5c0-0.5,0.5-1,1.1-1h2.9v0.6h-2.6c-0.3,0-0.5,0.2-0.5,0.5V28.9L118.9,28.9z M124,26.2c-0.1,0-0.2,0.1-0.2,0.2v1.1h2.7v0.6h-2.7
		v1.1c0,0.1,0.1,0.2,0.2,0.2h2.9V30h-3.6c-0.2,0-0.3-0.1-0.3-0.3v-3.8c0-0.2,0.1-0.3,0.3-0.3h3.6v0.6H124L124,26.2z M114.4,29.2
		c0,0.1,0.1,0.2,0.2,0.2h2.9V30h-3.5c-0.2,0-0.3-0.1-0.3-0.3l0-4.1h0.8V29.2L114.4,29.2z M131.5,28.7
		C131.5,28.7,131.6,28.6,131.5,28.7l0.1-3.1h0.8V30H132c-0.1,0-0.3-0.1-0.3-0.1l-2.7-3c-0.1,0-0.1,0-0.1,0l0,3.1h-0.8v-4.1v-0.3h0.4
		c0.1,0,0.3,0.1,0.3,0.1L131.5,28.7L131.5,28.7z"/>
	<path class="st1" d="M160.3,28.5h-25.7v-1h25.7V28.5z M105.7,28.5H0v-1h105.7V28.5z M160.3,1H0V0h160.3V1z"/>
	<g>
		<path class="st2" d="M56.7,9.8c0.9,0,1.6,0.6,1.6,1.4V12c0,0.8-0.7,1.4-1.6,1.4h-5.2v-3.2c0-0.3,0.2-0.5,0.5-0.5H56.7L56.7,9.8z
			 M57.5,15.2l3.2,5.5h-2.3L55.6,16c-0.3-0.4-0.8-0.8-1.4-0.8h-2.7v5.5h-2.3V8.9c0-0.5,0.4-0.9,1-0.9h7.5c1.7,0,3,1.2,3,2.7v1.8
			c0,1.5-1.3,2.7-3,2.7H57.5L57.5,15.2z"/>
		<polygon class="st3" points="45.6,20.7 43.2,20.7 43.2,8 45.6,8 45.6,20.7 		"/>
		<path class="st3" d="M30.3,17.5c0,0.8,0.7,1.4,1.6,1.4h4.3c0.9,0,1.6-0.6,1.6-1.4v-0.9c0-0.8-0.7-1.4-1.6-1.4H31
			c-1.7,0-3-1.2-3-2.7v-1.8c0-1.5,1.3-2.7,3-2.7h6c1.7,0,3,1.2,3,2.7v0.4h-2.3c0-0.8-0.7-1.4-1.6-1.4h-4.3c-0.9,0-1.6,0.6-1.6,1.4
			V12c0,0.8,0.7,1.4,1.6,1.4H37c1.7,0,3,1.2,3,2.7v1.8c0,1.5-1.3,2.7-3,2.7h-6c-1.7,0-3-1.2-3-2.7v-0.4H30.3L30.3,17.5z"/>
		<path class="st2" d="M73.8,13.9h-8v-3.6c0-0.3,0.2-0.5,0.5-0.5h5.9c0.9,0,1.6,0.6,1.6,1.4L73.8,13.9L73.8,13.9z M73.2,8
			c1.7,0,3,1.2,3,2.7l0,10h-2.3v-5h-8v5h-2.3V8.9c0-0.5,0.4-0.9,1-0.9H73.2L73.2,8z"/>
		<polygon class="st3" points="85.6,20.7 83.2,20.7 83.2,9.8 78.4,9.8 78.4,8 90.3,8 90.3,9.8 85.6,9.8 85.6,20.7 		"/>
		<path class="st3" d="M95.5,9.8c-0.3,0-0.5,0.2-0.5,0.5v3.2h7.7v1.8H95v3.2c0,0.3,0.2,0.5,0.5,0.5h8.4v1.8H93.6c-0.5,0-1-0.4-1-0.9
			V8.9c0-0.5,0.4-0.9,1-0.9H104v1.8H95.5L95.5,9.8z"/>
		<path class="st3" d="M108.7,17.5c0,0.8,0.7,1.4,1.6,1.4h7.4v1.8h-8.3c-1.7,0-3-1.2-3-2.7v-7.2c0-1.5,1.3-2.7,3-2.7h8.3v1.8h-7.4
			c-0.9,0-1.6,0.6-1.6,1.4V17.5L108.7,17.5z"/>
		<polygon class="st3" points="132.4,8 132.4,20.7 130,20.7 130,15.2 122.9,15.2 122.9,20.7 120.5,20.7 120.5,8 122.9,8 122.9,13.4 
			130,13.4 130,8 132.4,8 		"/>
	</g>
</g>
</svg>
