<?xml version="1.0" encoding="utf-8"?>
<!-- Generator: Adobe Illustrator 21.1.0, SVG Export Plug-In . SVG Version: 6.00 Build 0)  -->
<svg version="1.1" id="Calque_1" xmlns="http://www.w3.org/2000/svg" xmlns:xlink="http://www.w3.org/1999/xlink" x="0px" y="0px"
	 viewBox="0 0 144.7 30" style="enable-background:new 0 0 144.7 30;" xml:space="preserve">
<style type="text/css">
	.st0{fill-rule:evenodd;clip-rule:evenodd;fill:#ED7203;}
	.st1{fill:#939393;}
	.st2{fill:#4565AC;}
	.st3{fill-rule:evenodd;clip-rule:evenodd;fill:#4565AC;}
</style>
<g>
	<path class="st0" d="M95.7,25.6c0.6,0,1.1,0.4,1.1,1V30h-0.8v-3.3c0-0.3-0.2-0.5-0.5-0.5h-1.7v-0.6H95.7L95.7,25.6z M93.1,27.6h2.3
		v0.6h-2.3V30h-0.8v-4.4h0.8V27.6L93.1,27.6z M103.2,28.9c0,0.3,0.2,0.5,0.5,0.5h2.6V30h-2.9c-0.6,0-1.1-0.4-1.1-1v-2.5
		c0-0.5,0.5-1,1.1-1h2.9v0.6h-2.6c-0.3,0-0.5,0.2-0.5,0.5V28.9L103.2,28.9z M108.3,26.2c-0.1,0-0.2,0.1-0.2,0.2v1.1h2.7v0.6h-2.7
		v1.1c0,0.1,0.1,0.2,0.2,0.2h2.9V30h-3.6c-0.2,0-0.3-0.1-0.3-0.3v-3.8c0-0.2,0.1-0.3,0.3-0.3h3.6v0.6H108.3L108.3,26.2z M98.7,29.2
		c0,0.1,0.1,0.2,0.2,0.2h2.9V30h-3.5c-0.2,0-0.3-0.1-0.3-0.3l0-4.1h0.8V29.2L98.7,29.2z M115.8,28.7
		C115.9,28.7,115.9,28.6,115.8,28.7l0.1-3.1h0.8V30h-0.4c-0.1,0-0.3-0.1-0.3-0.1l-2.7-3c-0.1,0-0.1,0-0.1,0l0,3.1h-0.8v-4.1v-0.3
		h0.4c0.1,0,0.3,0.1,0.3,0.1L115.8,28.7L115.8,28.7z"/>
	<path class="st1" d="M144.7,28H119v-1h25.7V28z M90.1,28H0v-1h90.1V28z M144.7,1H0V0h144.7V1z"/>
	<polygon class="st2" points="70.5,8 72.9,8 72.9,20.7 70.5,20.7 70.5,8 	"/>
	<path class="st3" d="M49.4,9.8c0.9,0,1.6,0.6,1.6,1.4V12c0,0.8-0.7,1.4-1.6,1.4h-5.2v-3.2c0-0.3,0.2-0.5,0.5-0.5H49.4L49.4,9.8z
		 M50.3,8c1.7,0,3,1.2,3,2.7v1.8c0,1.5-1.3,2.7-3,2.7h-6.1v5.5h-2.3V8.9c0-0.5,0.4-0.9,1-0.9H50.3L50.3,8z"/>
	<path class="st2" d="M78.4,8v10.5c0,0.3,0.2,0.5,0.5,0.5h8.4v1.8H77c-0.5,0-1-0.4-1-0.9V8H78.4L78.4,8z"/>
	<path class="st2" d="M30.8,9.8c-0.3,0-0.5,0.2-0.5,0.5v3.2h7.7v1.8h-7.7v3.2c0,0.3,0.2,0.5,0.5,0.5h8.4v1.8H28.9
		c-0.5,0-1-0.4-1-0.9V8.9c0-0.5,0.4-0.9,1-0.9h10.3v1.8H30.8L30.8,9.8z"/>
	<path class="st2" d="M114.4,16.7c0-0.1,0-8.7,0-8.7h2.3v12.7c0,0-0.5,0-1.2,0c-0.4,0-0.8-0.2-1-0.4l-7.6-8.4c0,0-0.1,0-0.1,0
		c-0.1,0-0.1,0.1-0.1,0.1c0,0.1,0,8.7,0,8.7h-2.3V8c0,0,0.5,0,1.2,0c0.4,0,0.8,0.2,1,0.4l7.6,8.4c0,0,0.1,0,0.1,0
		C114.3,16.8,114.4,16.8,114.4,16.7L114.4,16.7z"/>
	<path class="st2" d="M57.8,17.5c0,0.8,0.7,1.4,1.6,1.4h4.3c0.9,0,1.6-0.6,1.6-1.4v-0.9c0-0.8-0.7-1.4-1.6-1.4h-5.1
		c-1.7,0-3-1.2-3-2.7v-1.8c0-1.5,1.3-2.7,3-2.7h6c1.7,0,3,1.2,3,2.7v0.4h-2.3c0-0.8-0.7-1.4-1.6-1.4h-4.3c-0.9,0-1.6,0.6-1.6,1.4V12
		c0,0.8,0.7,1.4,1.6,1.4h5.1c1.7,0,3,1.2,3,2.7v1.8c0,1.5-1.3,2.7-3,2.7h-6c-1.7,0-3-1.2-3-2.7v-0.4H57.8L57.8,17.5z"/>
	<polygon class="st2" points="72.9,20.7 70.5,20.7 70.5,8 72.9,8 72.9,20.7 	"/>
	<path class="st3" d="M91.7,17.5c0,0.8,0.7,1.4,1.6,1.4h4.3c0.9,0,1.6-0.6,1.6-1.4v-6.3c0-0.8-0.7-1.4-1.6-1.4h-4.3
		c-0.9,0-1.6,0.6-1.6,1.4V17.5L91.7,17.5z M92.3,20.7c-1.7,0-3-1.2-3-2.7v-7.2c0-1.5,1.3-2.7,3-2.7h6c1.7,0,3,1.2,3,2.7v7.2
		c0,1.5-1.3,2.7-3,2.7H92.3L92.3,20.7z"/>
</g>
</svg>
