<?xml version="1.0" encoding="utf-8"?>
<!-- Generator: Adobe Illustrator 21.1.0, SVG Export Plug-In . SVG Version: 6.00 Build 0)  -->
<svg version="1.1" id="Calque_1" xmlns="http://www.w3.org/2000/svg" xmlns:xlink="http://www.w3.org/1999/xlink" x="0px" y="0px"
	 viewBox="0 0 98.936 30.794" enable-background="new 0 0 98.936 30.794" xml:space="preserve">
<g>
	<path fill-rule="evenodd" clip-rule="evenodd" fill="#EE7203" d="M49.661,26.325c0.586,0,1.061,0.431,1.061,0.961v3.507h-0.827
		v-3.351c0-0.272-0.245-0.492-0.547-0.492H47.6v-0.626H49.661L49.661,26.325z M47.081,28.403h2.296v0.625h-2.296v1.765h-0.826
		v-4.468h0.826V28.403L47.081,28.403z M57.246,29.677c0,0.271,0.245,0.492,0.547,0.492h2.603v0.625h-2.915
		c-0.586,0-1.061-0.43-1.061-0.961v-2.547c0-0.53,0.475-0.961,1.061-0.961h2.915v0.626h-2.603c-0.302,0-0.547,0.22-0.547,0.492
		V29.677L57.246,29.677z M62.384,26.951c-0.099,0-0.179,0.073-0.179,0.162v1.134h2.703v0.626h-2.703v1.134
		c0,0.089,0.08,0.162,0.179,0.162h2.96v0.625h-3.63c-0.185,0-0.335-0.14-0.335-0.313v-3.843c0-0.173,0.15-0.313,0.335-0.313h3.63
		v0.626H62.384L62.384,26.951z M52.689,30.006c0,0.089,0.08,0.162,0.179,0.162h2.904v0.625h-3.568c-0.185,0-0.335-0.14-0.335-0.313
		l-0.007-4.156h0.827V30.006L52.689,30.006z M69.932,29.44c0.051,0.014,0.071-0.011,0.071-0.04v-3.075h0.827v4.468h-0.413
		c-0.142,0-0.268-0.054-0.342-0.137l-2.681-2.978c-0.052-0.014-0.07,0.011-0.07,0.04l0,3.075h-0.827v-4.163v-0.305h0.413
		c0.142,0,0.267,0.055,0.342,0.137L69.932,29.44L69.932,29.44z"/>
	<path fill="#949494" d="M98.936,29H73v-1h25.936V29z M44.021,29H0v-1h44.021V29z M98.937,1H0V0h98.937V1z"/>
	<path fill-rule="evenodd" clip-rule="evenodd" fill="#4565AD" d="M66.926,10.431c0.864,0,1.564,0.629,1.564,1.404v0.892
		c0,0.776-0.7,1.404-1.564,1.404H61.66V10.91c0-0.264,0.229-0.479,0.511-0.479H66.926L66.926,10.431z M67.681,15.919l3.17,5.491
		h-2.359l-2.734-4.734c-0.261-0.449-0.784-0.756-1.388-0.756H61.66v5.491h-2.362V9.538c0-0.494,0.429-0.894,0.957-0.894h7.564
		c1.675,0,3.032,1.229,3.032,2.745v1.786c0,1.516-1.357,2.744-3.032,2.744H67.681L67.681,15.919z"/>
	<path fill="#4565AD" d="M47.426,10.431c-0.282,0-0.511,0.207-0.511,0.463v3.239h7.724v1.787h-7.723v3.24
		c0,0.256,0.229,0.463,0.511,0.463h8.489v1.787H45.511c-0.529,0-0.958-0.4-0.958-0.894V9.538c0-0.494,0.429-0.894,0.958-0.894
		h10.404v1.787H47.426L47.426,10.431z"/>
	<path fill-rule="evenodd" clip-rule="evenodd" fill="#4565AD" d="M38.489,14.581h-8.043l0-3.67c0-0.264,0.229-0.479,0.511-0.479
		h5.968c0.864,0,1.564,0.629,1.564,1.404V14.581L38.489,14.581z M37.819,8.644c1.675,0,3.032,1.229,3.032,2.745l0,10.021h-2.362
		v-5.042h-8.042v5.042h-2.362V9.538c0-0.493,0.429-0.893,0.957-0.893H37.819L37.819,8.644z"/>
</g>
</svg>
