<?xml version="1.0" encoding="utf-8"?>
<!-- Generator: Adobe Illustrator 21.1.0, SVG Export Plug-In . SVG Version: 6.00 Build 0)  -->
<svg version="1.1" id="Calque_1" xmlns="http://www.w3.org/2000/svg" xmlns:xlink="http://www.w3.org/1999/xlink" x="0px" y="0px"
	 viewBox="0 0 102.8 30" style="enable-background:new 0 0 102.8 30;" xml:space="preserve">
<style type="text/css">
	.st0{fill-rule:evenodd;clip-rule:evenodd;fill:#ED7203;}
	.st1{display:none;fill:#939393;}
	.st2{fill:#4565AC;}
	.st3{fill:#939393;}
</style>
<g>
	<g>
		<path class="st0" d="M53.8,25.6c0.6,0,1.1,0.4,1.1,1V30H54v-3.3c0-0.3-0.2-0.5-0.5-0.5h-1.7v-0.6H53.8L53.8,25.6z M51.2,27.6h2.3
			v0.6h-2.3V30h-0.8v-4.4h0.8V27.6L51.2,27.6z M61.3,28.9c0,0.3,0.2,0.5,0.5,0.5h2.6V30h-2.9c-0.6,0-1.1-0.4-1.1-1v-2.5
			c0-0.5,0.5-1,1.1-1h2.9v0.6h-2.6c-0.3,0-0.5,0.2-0.5,0.5V28.9L61.3,28.9z M66.5,26.2c-0.1,0-0.2,0.1-0.2,0.2v1.1H69v0.6h-2.7v1.1
			c0,0.1,0.1,0.2,0.2,0.2h2.9V30h-3.6c-0.2,0-0.3-0.1-0.3-0.3v-3.8c0-0.2,0.1-0.3,0.3-0.3h3.6v0.6H66.5L66.5,26.2z M56.8,29.2
			c0,0.1,0.1,0.2,0.2,0.2h2.9V30h-3.5c-0.2,0-0.3-0.1-0.3-0.3l0-4.1h0.8V29.2L56.8,29.2z M74,28.7C74,28.7,74,28.6,74,28.7l0.1-3.1
			h0.8V30h-0.4c-0.1,0-0.3-0.1-0.3-0.1l-2.7-3c-0.1,0-0.1,0-0.1,0V30h-0.8v-4.1v-0.3H71c0.1,0,0.3,0.1,0.3,0.1L74,28.7L74,28.7z"/>
		<path class="st1" d="M102.8,28.1H77.1v-0.4h25.7V28.1z M48.2,28.1H0v-0.4h48.2V28.1z M102.8,0.4H0V0h102.8V0.4z"/>
		<path class="st2" d="M45.7,9.8c-0.3,0-0.5,0.2-0.5,0.5v3.2h7.7v1.8h-7.7l0,3.2c0,0.3,0.2,0.5,0.5,0.5h8.4v1.8H43.8
			c-0.5,0-1-0.4-1-0.9V8.9c0-0.5,0.4-0.9,1-0.9h10.3v1.8H45.7L45.7,9.8z"/>
		<path class="st2" d="M61.6,8h2.5l3.9,9.2c0,0.1,0.1,0.2,0.2,0.2c0.1,0,0.2-0.1,0.2-0.2L72.4,8h2.5l-5.2,12.3
			c-0.1,0.2-0.3,0.4-0.6,0.4h-1.6c-0.3,0-0.5-0.2-0.6-0.4L61.6,8L61.6,8z"/>
		<path class="st2" d="M30.3,17.5c0,0.8,0.7,1.4,1.6,1.4h4.3c0.9,0,1.6-0.6,1.6-1.4v-0.9c0-0.8-0.7-1.4-1.6-1.4h-5.1
			c-1.7,0-3-1.2-3-2.7v-1.8c0-1.5,1.3-2.7,3-2.7h6c1.7,0,3,1.2,3,2.7v0.4h-2.3c0-0.8-0.7-1.4-1.6-1.4h-4.3c-0.9,0-1.6,0.6-1.6,1.4
			V12c0,0.8,0.7,1.4,1.6,1.4H37c1.7,0,3,1.2,3,2.7v1.8c0,1.5-1.3,2.7-3,2.7h-6c-1.7,0-3-1.2-3-2.7v-0.4H30.3L30.3,17.5z"/>
		<polygon class="st2" points="59.2,20.7 56.9,20.7 56.9,8 59.2,8 59.2,20.7 		"/>
	</g>
	<path class="st3" d="M102.8,28.5H77.1v-1h25.7V28.5z M48.2,28.5H0v-1h48.2V28.5z M102.8,1H0V0h102.8V1z"/>
</g>
</svg>
