<?xml version="1.0" encoding="utf-8"?>
<!-- Generator: Adobe Illustrator 21.1.0, SVG Export Plug-In . SVG Version: 6.00 Build 0)  -->
<svg version="1.1" id="Calque_1" xmlns="http://www.w3.org/2000/svg" xmlns:xlink="http://www.w3.org/1999/xlink" x="0px" y="0px"
	 viewBox="0 0 362.94 78" enable-background="new 0 0 362.94 78" xml:space="preserve">
<g>
	<path fill-rule="evenodd" clip-rule="evenodd" fill="#EE7203" d="M262.737,71.821h5.947v1.618h-5.947V78H260.6V66.451h2.137V71.821
		L262.737,71.821z M269.406,66.451c1.514,0,2.743,1.112,2.743,2.483V78h-2.137v-8.662c0-0.701-0.633-1.271-1.415-1.271h-4.532
		v-1.616H269.406L269.406,66.451z"/>
	<path fill="#4565AD" d="M265.522,43.756c0.056,0.061,0.128,0.099,0.208,0.099c0.173,0,0.313-0.177,0.313-0.396l0.002-22.706h6.104
		v32.995h-3.052c-1.049,0-1.977-0.4-2.526-1.011L246.77,30.746c-0.056-0.062-0.127-0.099-0.207-0.099
		c-0.173,0-0.314,0.177-0.314,0.396l-0.002,22.706h-6.104l0.001-30.742l-0.001-2.254h3.052c1.049,0,1.974,0.402,2.525,1.011
		L265.522,43.756L265.522,43.756z"/>
	<path fill="#4565AD" d="M115.837,20.753c4.328,0,7.836,3.176,7.836,7.094c0,0.373-0.001,25.901-0.001,25.901h-6.104l0-24.746
		c0-2.005-1.809-3.629-4.042-3.629H99.752v-4.62C99.752,20.753,115.201,20.753,115.837,20.753L115.837,20.753z"/>
	<polygon fill="#4565AD" points="96.782,36.096 114.599,36.096 114.599,40.715 96.782,40.715 96.782,53.749 90.678,53.749 
		90.678,20.753 96.782,20.753 96.782,36.096 	"/>
	<path fill="#4565AD" d="M138.191,47.933c0,0.659,0.59,1.196,1.319,1.196h21.447v4.62c0,0-25.451,0-26.346,0
		c-1.367,0-2.475-1.036-2.475-2.31c0-0.664-0.049-30.686-0.049-30.686h6.104V47.933L138.191,47.933z"/>
	<path fill="#4565AD" d="M209.788,25.373c-0.729,0-1.32,0.535-1.32,1.196v8.372h19.962v4.62h-19.962v8.373
		c0,0.659,0.591,1.196,1.32,1.196h21.86v4.62c0,0-26.668,0-26.809,0c-1.366,0-2.475-1.036-2.475-2.31c0-0.355,0-28.022,0-28.376
		c0-1.276,1.108-2.31,2.475-2.31c0.141,0,26.809,0,26.809,0v4.62H209.788L209.788,25.373z"/>
	<path fill="#4565AD" d="M171.845,45.498c0,2.005,1.81,3.631,4.042,3.631h19.219v4.62c0,0-20.36,0-21.529,0
		c-4.327,0-7.836-3.177-7.836-7.094c0-0.389,0-18.432,0-18.807c0-3.918,3.509-7.094,7.836-7.094c0.952,0,21.529,0,21.529,0v4.62
		h-19.219c-2.232,0-4.042,1.625-4.042,3.629V45.498L171.845,45.498z"/>
	<path fill="#949494" d="M362.94,73.182h-84.687v-0.924h84.687V73.182z M254.496,73.182H0v-0.924h254.496V73.182z M362.94,0.924H0V0
		h362.94V0.924z"/>
</g>
</svg>
