<?xml version="1.0" encoding="utf-8"?>
<!-- Generator: Adobe Illustrator 21.1.0, SVG Export Plug-In . SVG Version: 6.00 Build 0)  -->
<svg version="1.1" xmlns="http://www.w3.org/2000/svg" xmlns:xlink="http://www.w3.org/1999/xlink" x="0px" y="0px"
	 viewBox="0 0 264.473 109.643" enable-background="new 0 0 264.473 109.643" xml:space="preserve">
<g id="ALCENforFusion_DEF">
	<g>
		<g>
			<path fill="#919294" d="M128.493,78.717c-0.515,0-0.928,0.387-0.928,0.867v6.086h14.044v3.366h-14.044v10.313h-4.295V77.033
				c0-0.926,0.78-1.679,1.739-1.679h18.923v3.363H128.493L128.493,78.717z"/>
			<path fill="#919294" d="M160.454,99.349h-0.708h-6.818c-3.042,0-5.512-2.309-5.512-5.158V75.354h4.293v17.997
				c0,1.461,1.274,2.642,2.847,2.642h5.19h0.708h1.877c1.573,0,2.845-1.18,2.845-2.642V75.354h4.294v18.837
				c0,2.85-2.469,5.158-5.511,5.158H160.454L160.454,99.349z"/>
			<path fill="#919294" d="M258.975,91.881c0-0.136,0-16.527,0-16.527h4.296v24c0,0-0.964,0-2.143,0
				c-0.741,0-1.393-0.291-1.777-0.735l-13.902-15.944c-0.044-0.047-0.103-0.081-0.17-0.081c-0.129,0-0.232,0.108-0.232,0.242
				c0,0.129,0,16.518,0,16.518h-4.3v-24c0,0,0.963,0,2.148,0c0.737,0,1.387,0.29,1.776,0.735l13.901,15.95
				c0.041,0.054,0.102,0.081,0.17,0.081C258.873,92.121,258.975,92.014,258.975,91.881L258.975,91.881z"/>
			<path fill-rule="evenodd" clip-rule="evenodd" fill="#919294" d="M217.286,93.351c0,1.461,1.275,2.642,2.844,2.642h7.782
				c1.564,0,2.841-1.18,2.841-2.642V81.354c0-1.461-1.276-2.642-2.841-2.642h-7.782c-1.569,0-2.844,1.181-2.844,2.642V93.351
				L217.286,93.351z M218.503,99.354c-3.044,0-5.513-2.311-5.513-5.163V80.515c0-2.854,2.469-5.161,5.513-5.161h11.03
				c3.046,0,5.516,2.306,5.516,5.161v13.676c0,2.853-2.47,5.163-5.516,5.163H218.503L218.503,99.354z"/>
			<polygon fill="#919294" points="207.294,99.354 202.996,99.354 202.996,75.354 207.294,75.354 207.294,99.354 			"/>
			<path fill="#919294" d="M179.346,93.351c0,1.461,1.272,2.642,2.841,2.642h7.779c1.569,0,2.847-1.18,2.847-2.642v-1.678
				c0-1.463-1.277-2.638-2.847-2.638h-9.401c-3.046,0-5.517-2.314-5.517-5.164v-3.357c0-2.854,2.471-5.161,5.517-5.161h11.031
				c3.046,0,5.513,2.306,5.513,5.161v0.84h-4.296c0-1.463-1.277-2.642-2.847-2.642h-7.779c-1.569,0-2.841,1.179-2.841,2.642v1.677
				c0,1.458,1.272,2.639,2.841,2.639h9.409c3.046,0,5.513,2.312,5.513,5.161v3.36c0,2.853-2.467,5.158-5.513,5.158h-11.031
				c-3.046,0-5.517-2.306-5.517-5.158v-0.84H179.346L179.346,93.351z"/>
		</g>
		<g>
			<path fill-rule="evenodd" clip-rule="evenodd" fill="#D1731D" d="M83.602,0c14.386,0,26.041,10.554,26.041,23.576v86.067H89.358
				v-82.23c0-6.665-6.012-12.06-13.431-12.06H33.021V0H83.602z"/>
			<polygon fill-rule="evenodd" clip-rule="evenodd" fill="#D1731D" points="20.281,50.985 76.624,50.985 76.624,66.335 
				20.281,66.335 20.281,109.643 0,109.643 0,0 20.281,0 			"/>
		</g>
		<rect x="123.035" y="107.643" fill="#D1731D" width="141.438" height="2"/>
		<g>
			<path fill-rule="evenodd" clip-rule="evenodd" fill="#919294" d="M242.249,56.169c0.855,0,1.553,0.638,1.553,1.429v0.909
				c0,0.793-0.697,1.429-1.553,1.429h-5.222v-3.277c0-0.269,0.232-0.489,0.508-0.489H242.249L242.249,56.169z M242.998,61.76
				l3.147,5.589h-2.344l-2.709-4.82c-0.26-0.458-0.776-0.769-1.374-0.769h-2.691v5.589h-2.339V55.257
				c0-0.499,0.426-0.908,0.947-0.908h7.502c1.662,0,3.008,1.251,3.008,2.796v1.821c0,1.542-1.346,2.794-3.008,2.794H242.998
				L242.998,61.76z"/>
			<path fill="#919294" d="M208.992,56.169c-0.277,0-0.504,0.213-0.504,0.473v3.297h7.66v1.824h-7.66v5.586h-2.343V55.257
				c0-0.499,0.425-0.908,0.948-0.908h10.317v1.82H208.992L208.992,56.169z"/>
			<path fill-rule="evenodd" clip-rule="evenodd" fill="#919294" d="M221.942,64.102c0,0.789,0.693,1.427,1.548,1.427h4.244
				c0.856,0,1.55-0.638,1.55-1.427v-6.504c0-0.791-0.693-1.429-1.55-1.429h-4.244c-0.854,0-1.548,0.638-1.548,1.429V64.102
				L221.942,64.102z M222.604,67.349c-1.661,0-3.007-1.251-3.007-2.796v-7.408c0-1.545,1.346-2.796,3.007-2.796h6.014
				c1.663,0,3.009,1.251,3.009,2.796v7.408c0,1.545-1.346,2.796-3.009,2.796H222.604L222.604,67.349z"/>
		</g>
		<g>
			<path fill="#919294" d="M191.581,63.412c0.021,0.024,0.051,0.039,0.082,0.039c0.068,0,0.123-0.07,0.123-0.156l0.001-8.946h2.405
				v13h-1.203c-0.413,0-0.778-0.158-0.995-0.398l-7.802-8.665c-0.021-0.024-0.05-0.039-0.081-0.039c-0.068,0-0.124,0.07-0.124,0.156
				v8.946h-2.405V55.237v-0.888h1.202c0.413,0,0.778,0.158,0.995,0.398L191.581,63.412L191.581,63.412z"/>
			<path fill="#919294" d="M132.606,54.349c1.705,0,3.087,1.252,3.087,2.795c0,0.147,0,10.205,0,10.205h-2.405v-9.75
				c0-0.789-0.712-1.43-1.592-1.43h-5.428v-1.82C126.269,54.349,132.355,54.349,132.606,54.349L132.606,54.349z"/>
			<polygon fill="#919294" points="125.099,60.394 132.118,60.394 132.118,62.214 125.099,62.214 125.099,67.349 122.693,67.349 
				122.693,54.349 125.099,54.349 125.099,60.394 			"/>
			<path fill="#919294" d="M141.413,65.058c0,0.26,0.233,0.471,0.52,0.471h8.449v1.82c0,0-10.027,0-10.38,0
				c-0.539,0-0.976-0.408-0.976-0.91c0-0.261-0.02-12.09-0.02-12.09h2.405V65.058L141.413,65.058z"/>
			<path fill="#919294" d="M169.622,56.169c-0.287,0-0.52,0.211-0.52,0.471v3.298h7.864v1.82h-7.864v3.299
				c0,0.26,0.232,0.471,0.52,0.471h8.613v1.82c0,0-10.508,0-10.562,0c-0.539,0-0.976-0.408-0.976-0.91c0-0.14,0-11.04,0-11.18
				c0-0.502,0.436-0.91,0.976-0.91c0.055,0,10.562,0,10.562,0v1.82H169.622L169.622,56.169z"/>
			<path fill="#919294" d="M154.673,64.099c0,0.79,0.713,1.43,1.593,1.43h7.572v1.82c0,0-8.022,0-8.482,0
				c-1.705,0-3.088-1.252-3.088-2.795c0-0.153,0-7.262,0-7.41c0-1.543,1.383-2.795,3.088-2.795c0.375,0,8.482,0,8.482,0v1.82h-7.572
				c-0.88,0-1.593,0.64-1.593,1.43V64.099L154.673,64.099z"/>
		</g>
	</g>
</g>
<g id="Calque_3" display="none">
	<g display="inline">
		<path fill="#919294" d="M-191.107,78.717c-0.514,0-0.928,0.387-0.928,0.867v6.086h14.044v3.366h-14.044v10.313h-4.295V77.033
			c0-0.926,0.781-1.679,1.74-1.679h18.923v3.363H-191.107L-191.107,78.717z"/>
		<path fill="#919294" d="M-159.145,99.349h-0.708h-6.818c-3.042,0-5.512-2.309-5.512-5.158V75.354h4.293v17.997
			c0,1.461,1.274,2.642,2.847,2.642h5.19h0.708h1.877c1.573,0,2.845-1.18,2.845-2.642V75.354h4.294v18.837
			c0,2.85-2.469,5.158-5.511,5.158H-159.145L-159.145,99.349z"/>
		<path fill="#919294" d="M-60.625,91.881c0-0.136,0-16.527,0-16.527h4.296v24c0,0-0.964,0-2.143,0
			c-0.741,0-1.393-0.291-1.777-0.735l-13.902-15.944c-0.044-0.047-0.103-0.081-0.17-0.081c-0.129,0-0.232,0.108-0.232,0.242
			c0,0.129,0,16.518,0,16.518h-4.3v-24c0,0,0.963,0,2.148,0c0.737,0,1.387,0.29,1.776,0.735l13.901,15.95
			c0.041,0.054,0.103,0.081,0.17,0.081C-60.727,92.121-60.625,92.014-60.625,91.881L-60.625,91.881z"/>
		<path fill-rule="evenodd" clip-rule="evenodd" fill="#919294" d="M-102.313,93.351c0,1.461,1.274,2.642,2.844,2.642h7.782
			c1.564,0,2.841-1.18,2.841-2.642V81.354c0-1.461-1.276-2.642-2.841-2.642h-7.782c-1.569,0-2.844,1.181-2.844,2.642V93.351
			L-102.313,93.351z M-101.097,99.354c-3.044,0-5.513-2.311-5.513-5.163V80.515c0-2.854,2.469-5.161,5.513-5.161h11.03
			c3.046,0,5.516,2.306,5.516,5.161v13.676c0,2.853-2.47,5.163-5.516,5.163H-101.097L-101.097,99.354z"/>
		<polygon fill="#919294" points="-112.306,99.354 -116.604,99.354 -116.604,75.354 -112.306,75.354 -112.306,99.354 		"/>
		<path fill="#919294" d="M-140.254,93.351c0,1.461,1.271,2.642,2.841,2.642h7.779c1.569,0,2.847-1.18,2.847-2.642v-1.678
			c0-1.463-1.277-2.638-2.847-2.638h-9.401c-3.046,0-5.517-2.314-5.517-5.164v-3.357c0-2.854,2.471-5.161,5.517-5.161h11.031
			c3.046,0,5.513,2.306,5.513,5.161v0.84h-4.296c0-1.463-1.277-2.642-2.847-2.642h-7.779c-1.569,0-2.841,1.179-2.841,2.642v1.677
			c0,1.458,1.271,2.639,2.841,2.639h9.409c3.046,0,5.513,2.312,5.513,5.161v3.36c0,2.853-2.467,5.158-5.513,5.158h-11.031
			c-3.046,0-5.517-2.306-5.517-5.158v-0.84H-140.254L-140.254,93.351z"/>
	</g>
	<g display="inline">
		<path fill-rule="evenodd" clip-rule="evenodd" fill="#D1731D" d="M-247.781-30.357c18.37,0,33.253,13.476,33.253,30.103v109.896
			h-25.9V4.646c0-8.51-7.677-15.399-17.15-15.399h-54.786v-19.604H-247.781z"/>
		<polygon fill-rule="evenodd" clip-rule="evenodd" fill="#D1731D" points="-328.632,34.744 -256.689,34.744 -256.689,54.345 
			-328.632,54.345 -328.632,109.643 -354.528,109.643 -354.528,-30.357 -328.632,-30.357 		"/>
	</g>
	<rect x="-196.564" y="107.643" display="inline" fill="#D1731D" width="141.438" height="2"/>
	<g display="inline">
		<path fill-rule="evenodd" clip-rule="evenodd" fill="#919294" d="M-160.521,56.169c0.855,0,1.553,0.638,1.553,1.429v0.909
			c0,0.793-0.697,1.429-1.553,1.429h-5.222v-3.277c0-0.269,0.233-0.489,0.508-0.489H-160.521L-160.521,56.169z M-159.772,61.76
			l3.147,5.589h-2.344l-2.709-4.82c-0.26-0.458-0.776-0.769-1.374-0.769h-2.692v5.589h-2.339V55.257
			c0-0.499,0.426-0.908,0.947-0.908h7.502c1.662,0,3.008,1.251,3.008,2.796v1.821c0,1.542-1.346,2.794-3.008,2.794H-159.772
			L-159.772,61.76z"/>
		<path fill="#919294" d="M-193.778,56.169c-0.278,0-0.505,0.213-0.505,0.473v3.297h7.66v1.824h-7.66v5.586h-2.342V55.257
			c0-0.499,0.425-0.908,0.948-0.908h10.317v1.82H-193.778L-193.778,56.169z"/>
		<path fill-rule="evenodd" clip-rule="evenodd" fill="#919294" d="M-180.828,64.102c0,0.789,0.693,1.427,1.548,1.427h4.244
			c0.856,0,1.55-0.638,1.55-1.427v-6.504c0-0.791-0.693-1.429-1.55-1.429h-4.244c-0.855,0-1.548,0.638-1.548,1.429V64.102
			L-180.828,64.102z M-180.166,67.349c-1.661,0-3.007-1.251-3.007-2.796v-7.408c0-1.545,1.346-2.796,3.007-2.796h6.014
			c1.663,0,3.009,1.251,3.009,2.796v7.408c0,1.545-1.346,2.796-3.009,2.796H-180.166L-180.166,67.349z"/>
	</g>
</g>
<g id="Calque_2" display="none">
	<g display="inline">
		<g>
			<path fill="#919294" d="M428.683,17.876c-1.022,0-1.842,0.769-1.842,1.721v12.085h27.887v6.684h-27.887v20.479h-8.528V14.532
				c0-1.838,1.549-3.333,3.453-3.333h37.575v6.677H428.683L428.683,17.876z"/>
			<path fill="#919294" d="M492.148,58.846h-1.406h-13.539c-6.04,0-10.944-4.584-10.944-10.243V11.199h8.524v35.736
				c0,2.902,2.53,5.246,5.652,5.246h10.307h1.406h3.727c3.124,0,5.649-2.343,5.649-5.246V11.199h8.526v37.404
				c0,5.658-4.902,10.243-10.943,10.243H492.148L492.148,58.846z"/>
			<path fill="#919294" d="M687.778,44.017c0-0.271,0-32.818,0-32.818h8.531v47.656c0,0-1.914,0-4.255,0
				c-1.472,0-2.765-0.578-3.529-1.46l-27.605-31.66c-0.087-0.094-0.204-0.16-0.338-0.16c-0.256,0-0.461,0.215-0.461,0.479
				c0,0.256,0,32.8,0,32.8h-8.538V11.199c0,0,1.912,0,4.266,0c1.464,0,2.754,0.575,3.527,1.46l27.603,31.672
				c0.082,0.107,0.204,0.161,0.338,0.161C687.577,44.492,687.778,44.281,687.778,44.017L687.778,44.017z"/>
			<path fill-rule="evenodd" clip-rule="evenodd" fill="#919294" d="M604.998,46.935c0,2.902,2.531,5.246,5.647,5.246h15.453
				c3.107,0,5.641-2.343,5.641-5.246V23.114c0-2.902-2.534-5.247-5.641-5.247h-15.453c-3.116,0-5.647,2.345-5.647,5.247V46.935
				L604.998,46.935z M607.415,58.855c-6.045,0-10.947-4.588-10.947-10.252V21.446c0-5.668,4.902-10.247,10.947-10.247h21.902
				c6.048,0,10.952,4.579,10.952,10.247v27.157c0,5.664-4.904,10.252-10.952,10.252H607.415L607.415,58.855z"/>
			<polygon fill="#919294" points="585.157,58.855 576.623,58.855 576.623,11.199 585.157,11.199 585.157,58.855 			"/>
			<path fill="#919294" d="M529.66,46.935c0,2.902,2.524,5.246,5.642,5.246h15.447c3.115,0,5.652-2.343,5.652-5.246v-3.332
				c0-2.905-2.537-5.237-5.652-5.237H532.08c-6.048,0-10.954-4.596-10.954-10.254v-6.666c0-5.668,4.906-10.247,10.954-10.247h21.905
				c6.048,0,10.946,4.579,10.946,10.247v1.668h-8.53c0-2.906-2.537-5.247-5.652-5.247h-15.447c-3.117,0-5.642,2.341-5.642,5.247
				v3.33c0,2.894,2.524,5.239,5.642,5.239h18.684c6.048,0,10.946,4.591,10.946,10.248v6.672c0,5.664-4.898,10.243-10.946,10.243
				H532.08c-6.048,0-10.954-4.579-10.954-10.243v-1.668H529.66L529.66,46.935z"/>
		</g>
		<g>
			<path fill-rule="evenodd" clip-rule="evenodd" fill="#D1731D" d="M368.074-30.357c14.386,0,26.041,10.554,26.041,23.576v86.067
				h-20.284v-82.23c0-6.665-6.012-12.06-13.431-12.06h-42.907v-15.353H368.074z"/>
			<polygon fill-rule="evenodd" clip-rule="evenodd" fill="#D1731D" points="304.754,20.628 361.097,20.628 361.097,35.979 
				304.754,35.979 304.754,79.286 284.473,79.286 284.473,-30.357 304.754,-30.357 			"/>
		</g>
		<rect x="417.845" y="75.315" fill="#D1731D" width="280.852" height="3.971"/>
		<g>
			<path fill-rule="evenodd" clip-rule="evenodd" fill="#919294" d="M654.567-26.897c1.698,0,3.083,1.267,3.083,2.837v1.804
				c0,1.575-1.385,2.838-3.083,2.838h-10.369v-6.508c0-0.534,0.462-0.971,1.009-0.971H654.567L654.567-26.897z M656.055-15.794
				l6.249,11.098h-4.653l-5.38-9.572c-0.516-0.91-1.541-1.526-2.727-1.526h-5.345v11.098h-4.645v-24.011
				c0-0.991,0.846-1.803,1.881-1.803h14.896c3.301,0,5.973,2.484,5.973,5.552v3.617c0,3.061-2.672,5.548-5.973,5.548H656.055
				L656.055-15.794z"/>
			<path fill="#919294" d="M588.529-26.897c-0.551,0-1.001,0.423-1.001,0.938v6.547h15.211v3.622h-15.211v11.093h-4.652v-24.011
				c0-0.991,0.844-1.803,1.883-1.803h20.488v3.614H588.529L588.529-26.897z"/>
			<path fill-rule="evenodd" clip-rule="evenodd" fill="#919294" d="M614.244-11.146c0,1.567,1.377,2.835,3.073,2.835h8.428
				c1.701,0,3.078-1.268,3.078-2.835V-24.06c0-1.57-1.377-2.837-3.078-2.837h-8.428c-1.696,0-3.073,1.267-3.073,2.837V-11.146
				L614.244-11.146z M615.56-4.697c-3.299,0-5.971-2.484-5.971-5.552v-14.71c0-3.068,2.672-5.552,5.971-5.552h11.94
				c3.303,0,5.975,2.484,5.975,5.552v14.71c0,3.068-2.672,5.552-5.975,5.552H615.56L615.56-4.697z"/>
		</g>
		<g>
			<path fill="#919294" d="M553.956-12.514c0.043,0.047,0.101,0.077,0.163,0.077c0.136,0,0.244-0.139,0.244-0.309l0.002-17.765
				h4.776v25.814h-2.39c-0.82,0-1.545-0.313-1.976-0.79l-15.492-17.206c-0.043-0.049-0.099-0.077-0.161-0.077
				c-0.136,0-0.246,0.139-0.246,0.309v17.764h-4.776v-24.05v-1.764h2.388c0.82,0,1.545,0.314,1.976,0.791L553.956-12.514
				L553.956-12.514z"/>
			<path fill="#919294" d="M436.851-30.511c3.386,0,6.13,2.485,6.13,5.55c0,0.292,0,20.264,0,20.264h-4.776v-19.36
				c0-1.568-1.414-2.839-3.161-2.839h-10.777v-3.615C424.266-30.511,436.353-30.511,436.851-30.511L436.851-30.511z"/>
			<polygon fill="#919294" points="421.942,-18.507 435.881,-18.507 435.881,-14.894 421.942,-14.894 421.942,-4.697 
				417.166,-4.697 417.166,-30.511 421.942,-30.511 421.942,-18.507 			"/>
			<path fill="#919294" d="M454.338-9.246c0,0.516,0.464,0.935,1.033,0.935h16.778v3.614c0,0-19.912,0-20.611,0
				c-1.071,0-1.938-0.81-1.938-1.807c0-0.519-0.039-24.007-0.039-24.007h4.776V-9.246L454.338-9.246z"/>
			<path fill="#919294" d="M510.353-26.896c-0.57,0-1.032,0.419-1.032,0.935v6.549h15.616v3.615H509.32v6.55
				c0,0.516,0.462,0.935,1.032,0.935h17.103v3.614c0,0-20.865,0-20.974,0c-1.07,0-1.938-0.81-1.938-1.807c0-0.277,0-21.922,0-22.2
				c0-0.998,0.867-1.807,1.938-1.807c0.108,0,20.974,0,20.974,0v3.615H510.353L510.353-26.896z"/>
			<path fill="#919294" d="M480.667-11.151c0,1.569,1.416,2.84,3.163,2.84h15.036v3.614c0,0-15.93,0-16.844,0
				c-3.385,0-6.131-2.486-6.131-5.55c0-0.305,0-14.42,0-14.714c0-3.065,2.746-5.55,6.131-5.55c0.745,0,16.844,0,16.844,0v3.615
				H483.83c-1.747,0-3.163,1.271-3.163,2.839V-11.151L480.667-11.151z"/>
		</g>
	</g>
</g>
</svg>
